<?xml version="1.0" encoding="UTF-8"?>
<svg id="Layer_2" xmlns="http://www.w3.org/2000/svg" width="1137" height="112.22" viewBox="0 0 1137 112.22">
  <defs>
    <style>
      .cls-1 {
        fill: #fff;
      }
    </style>
  </defs>
  <g id="Layer_1-2" data-name="Layer_1">
    <g id="_x39_5ed3e5be8">
      <path class="cls-1" d="M28.85,59.82c-5.93,0-11.04-1.1-15.35-3.29-4.31-2.19-7.64-5.24-9.98-9.15-2.34-3.92-3.51-8.47-3.51-13.65,0-3.89.77-7.55,2.31-10.99,1.55-3.45,3.76-6.46,6.62-9.04,2.86-2.6,6.27-4.62,10.23-6.09,3.97-1.48,8.37-2.22,13.2-2.22s9.18.76,12.42,2.28c3.23,1.51,5.64,3.56,7.21,6.15,1.58,2.6,2.37,5.52,2.37,8.75,0,2.64-.67,5.06-1.99,7.25-1.31,2.19-3.08,3.93-5.3,5.19-2.23,1.27-4.73,1.9-7.52,1.9s-5.32-.56-7.56-1.68c-2.24-1.12-4.01-2.67-5.3-4.66-1.29-2-1.92-4.24-1.92-6.74,0-2.64.52-4.92,1.57-6.85,1.04-1.92,2.46-3.41,4.25-4.48,1.8-1.07,3.8-1.61,6-1.61,1.73,0,3.21.55,4.43,1.66,1.22,1.09,1.84,2.36,1.84,3.8,0,1.09-.43,2.11-1.28,3.07-.84.94-1.9,1.41-3.2,1.41-.51,0-1.02-.11-1.54-.34-.53-.22-.86-.41-1.01-.56v-.67c.95.11,1.73-.16,2.35-.78.63-.63.94-1.41.94-2.35,0-1-.33-1.87-.98-2.62-.64-.74-1.51-1.12-2.6-1.12-1.25,0-2.29.5-3.11,1.5-.82.98-1.23,2.25-1.23,3.8,0,1.75.7,3.29,2.13,4.63,1.42,1.34,3.14,2.01,5.19,2.01,2.29,0,4.21-.79,5.75-2.39,1.55-1.59,2.33-3.46,2.33-5.6,0-1.89-.5-3.52-1.5-4.9-.98-1.37-2.32-2.45-3.98-3.22-1.67-.77-3.56-1.16-5.66-1.16-3.98,0-7.34,1.13-10.05,3.38-2.72,2.24-4.78,5.21-6.18,8.93-1.39,3.72-2.08,7.79-2.08,12.22,0,5.19.69,9.72,2.08,13.58,1.4,3.87,3.28,6.86,5.64,8.97,2.37,2.12,5,3.18,7.9,3.18.9,0,1.92-.13,3.09-.4,1.17-.28,2.11-.63,2.82-1.03v-3.22c0-4.13-.37-7.24-1.1-9.33-.72-2.1-1.72-3.42-3.02-3.96v-.83h20.79c-.04.45-.17,1.58-.38,3.38-.2,1.79-.29,4.27-.29,7.45v9.8h-1.05c-.24-.64-.93-1.24-2.08-1.81-1.15-.58-2.88-.87-5.17-.87-1.49,0-3.15.28-4.97.83-1.82.54-3.78,1.09-5.89,1.63-2.09.55-4.31.83-6.65.83Z"/>
      <path class="cls-1" d="M80.6,59.82c-4.34,0-8.19-.87-11.53-2.62-3.33-1.75-5.94-4.24-7.83-7.48-1.9-3.23-2.84-7.08-2.84-11.53s.95-8.26,2.84-11.5c1.89-3.23,4.5-5.73,7.83-7.48,3.34-1.75,7.18-2.62,11.53-2.62s8.25.87,11.59,2.62c3.34,1.75,5.96,4.24,7.86,7.48,1.89,3.24,2.84,7.07,2.84,11.5s-.95,8.29-2.84,11.53c-1.9,3.24-4.52,5.73-7.86,7.48-3.35,1.75-7.21,2.62-11.59,2.62ZM80.6,58.03c2.45,0,4.43-1.6,5.95-4.81,1.52-3.22,2.28-8.22,2.28-15.02s-.76-11.81-2.28-14.97c-1.52-3.18-3.51-4.77-5.95-4.77s-4.34,1.59-5.86,4.77c-1.52,3.17-2.28,8.16-2.28,14.97s.76,11.79,2.28,15.02c1.52,3.21,3.47,4.81,5.86,4.81Z"/>
      <path class="cls-1" d="M128.24,59.82c-4.34,0-8.19-.87-11.53-2.62-3.33-1.75-5.94-4.24-7.83-7.48-1.9-3.23-2.84-7.08-2.84-11.53s.95-8.26,2.84-11.5c1.89-3.23,4.5-5.73,7.83-7.48,3.34-1.75,7.18-2.62,11.53-2.62s8.25.87,11.59,2.62c3.34,1.75,5.96,4.24,7.86,7.48,1.89,3.24,2.84,7.07,2.84,11.5s-.95,8.29-2.84,11.53c-1.9,3.24-4.52,5.73-7.86,7.48-3.35,1.75-7.21,2.62-11.59,2.62ZM128.24,58.03c2.45,0,4.43-1.6,5.95-4.81,1.52-3.22,2.28-8.22,2.28-15.02s-.76-11.81-2.28-14.97c-1.52-3.18-3.51-4.77-5.95-4.77s-4.34,1.59-5.86,4.77c-1.52,3.17-2.28,8.16-2.28,14.97s.76,11.79,2.28,15.02c1.52,3.21,3.47,4.81,5.86,4.81Z"/>
      <path class="cls-1" d="M176.92,89.43c-3,0-5.71-.67-8.12-1.99-2.42-1.31-4.34-3.07-5.75-5.26-1.42-2.19-2.13-4.61-2.13-7.25s.62-5.02,1.86-6.96c1.25-1.94,2.83-3.44,4.72-4.5,1.89-1.05,3.79-1.57,5.68-1.57,2.04,0,3.83.56,5.35,1.68,1.52,1.13,2.28,2.62,2.28,4.45,0,1.25-.46,2.38-1.39,3.4-.93,1.03-2.11,1.54-3.56,1.54-.49,0-1.05-.11-1.66-.34-.6-.22-1-.44-1.19-.65v-.81c1,.09,1.84-.23,2.51-.96.67-.72,1.01-1.62,1.01-2.71s-.37-2.07-1.12-2.89c-.75-.82-1.7-1.23-2.84-1.23-1.34,0-2.46.58-3.33,1.75-.87,1.17-1.3,2.62-1.3,4.32,0,1.24.37,2.42,1.12,3.54.74,1.13,1.73,2.04,2.98,2.73,1.25.7,2.62,1.05,4.12,1.05,1.7,0,3.18-.4,4.45-1.21,1.26-.79,2.27-1.85,3.02-3.18.76-1.31,1.14-2.74,1.14-4.27,0-2.9-1.02-5.23-3.04-7.01-2.01-1.76-4.85-2.64-8.48-2.64-2.09,0-4.04.36-5.84,1.07-1.79.73-3.19,1.59-4.19,2.57-.54,1.25-1.23,2.2-2.08,2.84-.85.65-1.75.98-2.69.98s-1.61-.26-2.1-.78c-.49-.53-.74-1.16-.74-1.92s.52-1.61,1.57-2.46c1.04-.85,2.56-1.28,4.57-1.28l5.44-6.2c-4.03-1.3-7.29-3.47-9.78-6.54-2.5-3.07-3.74-6.8-3.74-11.19,0-3.94.92-7.31,2.75-10.12,1.85-2.82,4.43-5,7.74-6.54,3.31-1.55,7.12-2.33,11.41-2.33,2.34,0,4.52.25,6.54.74s3.87,1.2,5.57,2.1c1.79-.36,3.23-1.03,4.32-2.01,1.1-1,1.66-2.22,1.66-3.67,0-1.3-.34-2.34-1.01-3.13-.67-.81-1.63-1.21-2.89-1.21-1.05,0-1.92.31-2.62.94-.69.62-1.03,1.38-1.03,2.28s.28,1.65.85,2.13c.58.48,1.24.67,1.99.56l.07.67c-.35.2-.76.35-1.23.45-.48.11-1,.16-1.54.16-1.14,0-2.24-.35-3.31-1.05-1.07-.7-1.95-1.62-2.62-2.78-.67-1.15-1.01-2.36-1.01-3.65,0-2.8.87-5.02,2.62-6.67,1.75-1.64,3.91-2.46,6.49-2.46,1.85,0,3.5.43,4.97,1.28,1.48.85,2.65,2.01,3.51,3.49.88,1.47,1.32,3.14,1.32,5.04,0,2.54-.67,4.71-2.01,6.51-1.34,1.79-3.17,3.18-5.46,4.16v.83c2.09,1.6,3.73,3.6,4.92,6.02,1.21,2.42,1.81,5.17,1.81,8.26,0,3.89-.94,7.25-2.82,10.07-1.87,2.81-4.45,4.99-7.74,6.54-3.28,1.56-7.07,2.33-11.35,2.33-2.34,0-4.54-.23-6.58-.69l-4.86,5.33.51.51c1-.79,2.28-1.5,3.85-2.13s3.22-.94,4.97-.94c5.98.04,10.73,1.54,14.23,4.48,3.52,2.95,5.28,7.07,5.28,12.35,0,2.98-.73,5.68-2.17,8.1-1.45,2.42-3.4,4.33-5.84,5.75-2.43,1.43-5.12,2.15-8.06,2.15ZM175.58,52.8c2.34,0,4.23-1.39,5.66-4.19,1.44-2.79,2.17-7.1,2.17-12.94s-.73-10.23-2.17-13.03c-1.43-2.79-3.32-4.19-5.66-4.19s-4.25,1.4-5.73,4.19c-1.47,2.79-2.19,7.13-2.19,13.03s.73,10.15,2.19,12.94c1.48,2.79,3.39,4.19,5.73,4.19Z"/>
      <path class="cls-1" d="M213.78,59.82c-3.35,0-5.99-1.04-7.92-3.11-1.94-2.07-2.91-4.8-2.91-8.19v-28.78c0-2.83-.15-5.1-.43-6.8-.27-1.7-.6-2.98-1.01-3.85-.39-.88-.82-1.51-1.28-1.9v-.76c1.8-.04,3.68-.2,5.62-.47,1.94-.28,3.8-.7,5.6-1.28,1.8-.58,3.36-1.26,4.66-2.06h.74v43.37c0,1.69.27,3.01.83,3.96.55.94,1.33,1.41,2.33,1.41.64,0,1.17-.23,1.59-.69.43-.48.72-1.04.87-1.7l.74.16c-.35,3.13-1.27,5.7-2.78,7.7-1.49,2-3.71,3-6.65,3Z"/>
      <path class="cls-1" d="M249.53,59.82c-3.09,0-6.14-.45-9.15-1.34-3.02-.91-5.76-2.27-8.24-4.07-2.46-1.82-4.43-4.07-5.91-6.76-1.47-2.7-2.19-5.85-2.19-9.44,0-4.43.95-8.26,2.86-11.5,1.92-3.23,4.66-5.73,8.19-7.48s7.73-2.62,12.58-2.62c6.22,0,10.89,1.02,14.01,3.07,3.12,2.05,4.68,4.61,4.68,7.7,0,2.19-.83,3.96-2.48,5.3-1.64,1.34-3.84,2.33-6.58,2.95-2.73.63-5.77.96-9.11.98-3.35.02-6.71-.18-10.09-.58-.04.15-.07.43-.07.83,0,4.09.62,7.73,1.86,10.92,1.25,3.19,3.01,5.7,5.28,7.52,2.27,1.82,4.87,2.73,7.81,2.73,2.19,0,3.94-.57,5.26-1.72,1.33-1.15,1.99-2.57,1.99-4.27,0-1.53-.43-2.73-1.28-3.58s-1.87-1.28-3.07-1.28-2.2.37-2.89,1.1c-.67.72-.93,1.5-.78,2.35l-.81.07c-.36-.45-.65-1.12-.87-2.01s-.34-1.67-.34-2.33c0-2.34.77-4.33,2.31-5.98,1.55-1.64,3.72-2.46,6.51-2.46,2.55,0,4.67.89,6.36,2.66,1.7,1.76,2.55,3.94,2.55,6.54,0,3.64-1.62,6.67-4.86,9.09-3.24,2.42-7.75,3.63-13.54,3.63ZM238.09,34.47c3.39.21,6.41.02,9.09-.58,2.67-.61,4.79-1.59,6.36-2.93s2.35-3.01,2.35-5.01c-.04-2.19-.68-4.01-1.9-5.44-1.23-1.44-3.08-2.17-5.57-2.17-2.69,0-5.01,1.41-6.98,4.23-1.97,2.81-3.08,6.78-3.33,11.91Z"/>
      <path class="cls-1" d="M319.44,59.82c-4.69,0-8.94-.69-12.76-2.06-3.8-1.37-7.09-3.27-9.87-5.71-2.76-2.45-4.89-5.33-6.38-8.64-1.49-3.32-2.24-6.93-2.24-10.81,0-5.19,1.17-9.84,3.51-13.94,2.34-4.12,5.67-7.35,9.98-9.71,4.31-2.37,9.43-3.56,15.35-3.56,3.59,0,7.01.3,10.25.9,3.23.6,5.95,1.4,8.15,2.39l-1.79,12.85h-.9c-.26-2.69-.91-5.11-1.95-7.27-1.05-2.18-2.39-3.92-4.05-5.21-1.64-1.3-3.51-1.95-5.6-1.95-2.54,0-4.78.74-6.74,2.22-1.94,1.47-3.6,3.49-4.97,6.07-1.38,2.57-2.41,5.56-3.11,8.97-.69,3.4-1.03,7.05-1.03,10.94,0,4.88.79,9.02,2.39,12.42,1.59,3.39,3.72,5.97,6.36,7.74,2.64,1.76,5.51,2.64,8.59,2.64s5.83-.9,7.92-2.69c2.09-1.8,3.13-4.25,3.13-7.34,0-1.44-.35-2.79-1.05-4.03-.69-1.25-1.63-2.27-2.82-3.07-1.2-.81-2.59-1.21-4.19-1.21-2,0-3.67.7-5.01,2.1-1.34,1.39-2.01,2.99-2.01,4.79,0,1.54.43,2.84,1.3,3.92.86,1.07,1.95,1.61,3.25,1.61,1.1,0,1.98-.39,2.62-1.19.65-.81.98-1.73.98-2.78s-.33-1.84-.98-2.51c-.64-.67-1.47-.95-2.46-.85v-.67c.1-.21.43-.41.96-.6.55-.21,1.08-.31,1.59-.31,1.39,0,2.47.49,3.27,1.48.81.97,1.21,2.05,1.21,3.25,0,1.45-.59,2.76-1.77,3.94-1.16,1.16-2.64,1.75-4.43,1.75-2.25,0-4.27-.59-6.07-1.79-1.79-1.21-3.22-2.85-4.3-4.95-1.07-2.09-1.61-4.45-1.61-7.09s.65-4.89,1.95-7.03c1.3-2.15,3.07-3.88,5.3-5.19,2.25-1.33,4.77-1.99,7.56-1.99,2.94,0,5.58.71,7.92,2.13,2.34,1.42,4.2,3.29,5.57,5.62,1.37,2.32,2.06,4.82,2.06,7.52,0,3.63-.85,6.88-2.55,9.76-1.7,2.86-4.26,5.11-7.68,6.74-3.4,1.61-7.7,2.42-12.89,2.42Z"/>
      <path class="cls-1" d="M358.85,59.82c-4.09,0-7.4-1.17-9.91-3.51-2.51-2.34-3.76-5.56-3.76-9.65s1.25-7.17,3.76-9.53c2.52-2.37,5.82-3.56,9.91-3.56,2,0,3.92.44,5.75,1.32,1.85.87,3.18,1.9,3.98,3.09h.9l-2.1-12.04c-.4-2.38-1.25-4.24-2.55-5.55-1.29-1.33-2.93-1.99-4.92-1.99-1.6,0-2.86.41-3.78,1.23-.93.82-1.39,1.88-1.39,3.18,0,1.09.35,1.98,1.05,2.66.7.67,1.52,1.01,2.46,1.01s1.71-.22,2.28-.67c.58-.45.82-1.05.72-1.81l.83-.07c.4.66.6,1.43.6,2.33,0,1.54-.57,2.95-1.7,4.23-1.12,1.27-2.67,1.9-4.66,1.9s-3.64-.65-5.04-1.95c-1.39-1.3-2.08-2.89-2.08-4.79,0-1.79.62-3.36,1.86-4.7,1.25-1.35,2.95-2.42,5.1-3.18,2.15-.77,4.54-1.16,7.18-1.16,5.47,0,9.74,1.34,12.8,4.01,3.07,2.66,5.06,6.43,5.95,11.32l2.46,14.12c.31,1.64.75,2.94,1.32,3.89.57.94,1.33,1.41,2.28,1.41.64,0,1.13-.22,1.48-.67.36-.45.63-.99.83-1.63h.76c-.3,3.03-1.17,5.58-2.62,7.65-1.45,2.07-3.55,3.11-6.29,3.11s-4.83-.88-6.58-2.64c-1.75-1.77-2.81-3.96-3.2-6.56h-.92c-.79,2.69-2.34,4.9-4.63,6.62-2.28,1.71-5,2.57-8.15,2.57ZM364.83,54.07c1.8,0,3.27-.76,4.41-2.28,1.15-1.52,1.72-3.5,1.72-5.95s-.58-4.34-1.72-5.86c-1.14-1.52-2.61-2.28-4.41-2.28s-3.31.74-4.41,2.22c-1.09,1.47-1.63,3.44-1.63,5.93s.54,4.43,1.63,5.95c1.1,1.52,2.57,2.28,4.41,2.28Z"/>
      <path class="cls-1" d="M404.61,59.82c-3.35,0-5.99-1.04-7.92-3.11-1.94-2.07-2.91-4.8-2.91-8.19v-28.78c0-2.83-.15-5.1-.43-6.8-.27-1.7-.6-2.98-1.01-3.85-.39-.88-.82-1.51-1.28-1.9v-.76c1.8-.04,3.68-.2,5.62-.47,1.94-.28,3.8-.7,5.6-1.28,1.8-.58,3.36-1.26,4.66-2.06h.74v43.37c0,1.69.27,3.01.83,3.96.55.94,1.33,1.41,2.33,1.41.64,0,1.17-.23,1.59-.69.43-.48.72-1.04.87-1.7l.74.16c-.35,3.13-1.27,5.7-2.78,7.7-1.49,2-3.71,3-6.65,3Z"/>
      <path class="cls-1" d="M440.36,59.82c-3.09,0-6.14-.45-9.15-1.34-3.02-.91-5.76-2.27-8.24-4.07-2.46-1.82-4.43-4.07-5.91-6.76-1.47-2.7-2.19-5.85-2.19-9.44,0-4.43.95-8.26,2.86-11.5,1.92-3.23,4.66-5.73,8.19-7.48s7.73-2.62,12.58-2.62c6.22,0,10.89,1.02,14.01,3.07,3.12,2.05,4.68,4.61,4.68,7.7,0,2.19-.83,3.96-2.48,5.3-1.64,1.34-3.84,2.33-6.58,2.95-2.73.63-5.77.96-9.11.98-3.35.02-6.71-.18-10.09-.58-.04.15-.07.43-.07.83,0,4.09.62,7.73,1.86,10.92,1.25,3.19,3.01,5.7,5.28,7.52,2.27,1.82,4.87,2.73,7.81,2.73,2.19,0,3.94-.57,5.26-1.72,1.33-1.15,1.99-2.57,1.99-4.27,0-1.53-.43-2.73-1.28-3.58s-1.87-1.28-3.07-1.28-2.2.37-2.89,1.1c-.67.72-.93,1.5-.78,2.35l-.81.07c-.36-.45-.65-1.12-.87-2.01s-.34-1.67-.34-2.33c0-2.34.77-4.33,2.31-5.98,1.55-1.64,3.72-2.46,6.51-2.46,2.55,0,4.67.89,6.36,2.66,1.7,1.76,2.55,3.94,2.55,6.54,0,3.64-1.62,6.67-4.86,9.09-3.24,2.42-7.75,3.63-13.54,3.63ZM428.92,34.47c3.39.21,6.41.02,9.09-.58,2.67-.61,4.79-1.59,6.36-2.93s2.35-3.01,2.35-5.01c-.04-2.19-.68-4.01-1.9-5.44-1.23-1.44-3.08-2.17-5.57-2.17-2.69,0-5.01,1.41-6.98,4.23-1.97,2.81-3.08,6.78-3.33,11.91Z"/>
      <path class="cls-1" d="M461.31,58.77v-.83c.7-.85,1.31-2.99,1.84-6.42.52-3.45.78-8.03.78-13.76v-4.25c0-2.85-.13-5.11-.38-6.8-.26-1.7-.58-3-.98-3.89-.39-.9-.84-1.54-1.34-1.95v-.74c1.8-.06,3.69-.22,5.66-.49s3.85-.66,5.64-1.19c1.79-.54,3.31-1.2,4.57-1.99h.83v8.75h.9c.83-2.79,2.42-4.91,4.77-6.38,2.34-1.48,5.01-2.22,8.01-2.22s5.73.78,7.92,2.35,3.88,3.65,5.08,6.24c1.19,2.6,1.79,5.46,1.79,8.59v4.19c0,5.73.26,10.28.78,13.65.54,3.36,1.15,5.46,1.84,6.31v.83h-19.29v-.83c.7-.85,1.31-2.95,1.84-6.31.52-3.37.78-7.92.78-13.65v-5.37c0-2.49-.65-4.59-1.95-6.31-1.29-1.73-3.02-2.6-5.21-2.6s-3.89.84-5.24,2.51c-1.34,1.67-2.01,3.75-2.01,6.24v5.53c0,5.73.27,10.28.81,13.65.55,3.36,1.17,5.46,1.88,6.31v.83h-19.29Z"/>
      <path class="cls-1" d="M527.77,59.82c-3.63,0-6.68-1-9.15-3-2.46-2-4.32-4.64-5.57-7.92-1.24-3.3-1.86-6.86-1.86-10.7s.62-7.39,1.86-10.65c1.25-3.27,3.11-5.91,5.57-7.92,2.47-2.01,5.53-3.02,9.15-3.02s6.27.8,8.48,2.39c2.22,1.58,3.91,4.1,5.06,7.54h.9v-6.87c0-2.85-.13-5.11-.38-6.8-.24-1.7-.56-3-.96-3.89s-.85-1.54-1.34-1.95v-.74c1.79-.06,3.65-.22,5.6-.49,1.95-.27,3.84-.68,5.66-1.25,1.82-.58,3.35-1.28,4.59-2.08h.76v43.53c0,1.69.28,3.01.85,3.96.58.94,1.34,1.41,2.28,1.41.64,0,1.17-.23,1.59-.69.43-.48.75-1.04.96-1.7l.74.16c-.35,3.13-1.28,5.7-2.8,7.7-1.52,2-3.75,3-6.69,3-3.09,0-5.57-.86-7.45-2.57-1.87-1.73-2.95-4.29-3.25-7.68h-.96c-1,3.54-2.65,6.13-4.95,7.79-2.3,1.64-5.19,2.46-8.68,2.46ZM533.54,54.36c2.38,0,4.33-1.37,5.82-4.12,1.51-2.74,2.26-6.76,2.26-12.04s-.76-9.22-2.26-11.95c-1.49-2.74-3.44-4.12-5.82-4.12s-4.27,1.38-5.77,4.12c-1.49,2.73-2.24,6.71-2.24,11.95s.74,9.3,2.24,12.04c1.51,2.75,3.43,4.12,5.77,4.12Z"/>
      <path class="cls-1" d="M577.43,59.82c-4.09,0-7.4-1.17-9.91-3.51-2.51-2.34-3.76-5.56-3.76-9.65s1.25-7.17,3.76-9.53c2.52-2.37,5.82-3.56,9.91-3.56,2,0,3.92.44,5.75,1.32,1.85.87,3.18,1.9,3.98,3.09h.9l-2.1-12.04c-.4-2.38-1.25-4.24-2.55-5.55-1.29-1.33-2.93-1.99-4.92-1.99-1.6,0-2.86.41-3.78,1.23-.93.82-1.39,1.88-1.39,3.18,0,1.09.35,1.98,1.05,2.66.7.67,1.52,1.01,2.46,1.01s1.71-.22,2.28-.67c.58-.45.82-1.05.72-1.81l.83-.07c.4.66.6,1.43.6,2.33,0,1.54-.57,2.95-1.7,4.23-1.12,1.27-2.67,1.9-4.66,1.9s-3.64-.65-5.04-1.95c-1.39-1.3-2.08-2.89-2.08-4.79,0-1.79.62-3.36,1.86-4.7,1.25-1.35,2.95-2.42,5.1-3.18,2.15-.77,4.54-1.16,7.18-1.16,5.47,0,9.74,1.34,12.8,4.01,3.07,2.66,5.06,6.43,5.95,11.32l2.46,14.12c.31,1.64.75,2.94,1.32,3.89.57.94,1.33,1.41,2.28,1.41.64,0,1.13-.22,1.48-.67.36-.45.63-.99.83-1.63h.76c-.3,3.03-1.17,5.58-2.62,7.65-1.45,2.07-3.55,3.11-6.29,3.11s-4.83-.88-6.58-2.64c-1.75-1.77-2.81-3.96-3.2-6.56h-.92c-.79,2.69-2.34,4.9-4.63,6.62-2.28,1.71-5,2.57-8.15,2.57ZM583.4,54.07c1.8,0,3.27-.76,4.41-2.28,1.15-1.52,1.72-3.5,1.72-5.95s-.58-4.34-1.72-5.86c-1.14-1.52-2.61-2.28-4.41-2.28s-3.31.74-4.41,2.22c-1.09,1.47-1.63,3.44-1.63,5.93s.54,4.43,1.63,5.95c1.1,1.52,2.57,2.28,4.41,2.28Z"/>
      <path class="cls-1" d="M611.01,58.77v-.83c.7-.85,1.31-2.95,1.84-6.31.52-3.37.78-7.92.78-13.65v-6.65c-.11-3.39-.42-5.82-.94-7.32-.53-1.51-1.11-2.51-1.77-3v-.76c1.8-.04,3.69-.21,5.66-.51,1.97-.3,3.86-.72,5.68-1.28,1.82-.55,3.35-1.22,4.59-2.01h.76v10.7h.96c1.19-3.14,3.02-5.69,5.48-7.63,2.47-1.94,5.53-2.91,9.18-2.91,2.83,0,5.31.6,7.43,1.79,2.11,1.2,3.77,2.81,4.97,4.83,1.21,2.01,1.81,4.27,1.81,6.76,0,3.79-1.13,6.88-3.38,9.27-2.24,2.39-5.46,3.58-9.65,3.58-1.94,0-3.73-.41-5.35-1.23-1.61-.82-2.9-1.96-3.85-3.42-.94-1.48-1.41-3.14-1.41-4.99,0-.94.17-1.8.51-2.6.36-.81.78-1.45,1.28-1.95l.74.13c-.49.66-.66,1.38-.49,2.15.18.76.62,1.42,1.32,1.97.7.55,1.52.83,2.46.83,1.4,0,2.56-.54,3.49-1.61.92-1.07,1.39-2.31,1.39-3.69,0-1.89-.63-3.46-1.88-4.7-1.24-1.25-2.93-1.88-5.08-1.88-1.79,0-3.44.75-4.95,2.24-1.49,1.49-2.7,3.4-3.63,5.73-.91,2.32-1.37,4.72-1.37,7.21v.96c0,5.73.27,10.28.81,13.65.55,3.36,1.17,5.46,1.88,6.31v.83h-19.29Z"/>
      <path class="cls-1" d="M676.89,58.77v-.9c1.1-.85,2.48-2.99,4.14-6.42,1.67-3.45,3.36-8.08,5.06-13.92l3.29-9.87c1.75-5.83,2.79-10.46,3.13-13.9.36-3.45.26-5.6-.29-6.45v-.9h21.69v.9c-.55.85-.64,3-.27,6.45.37,3.44,1.41,8.07,3.11,13.9l3.29,9.87c1.75,5.84,3.44,10.47,5.08,13.92,1.64,3.44,3.03,5.57,4.19,6.42v.9h-23.32v-.9c.59-.85.7-2.99.34-6.42-.37-3.45-1.43-8.08-3.18-13.92l-2.62-8.21c-.75-.1-1.56.04-2.44.45-.87.39-1.35.91-1.45,1.57.19.3.34.7.45,1.21.1.49.16.93.16,1.32,0,.7-.13,1.43-.38,2.17-.26.75-.65,1.12-1.19,1.12s-.96-.37-1.21-1.12c-.26-.74-.38-1.47-.38-2.17,0-.39.05-.83.16-1.32.1-.5.25-.91.45-1.21-.09-.65-.58-1.17-1.45-1.57-.87-.4-1.68-.55-2.44-.45l-2.6,8.21c-1.7,5.84-2.75,10.47-3.16,13.92-.39,3.44-.29,5.57.31,6.42v.9h-8.46ZM695.28,30.35h.67c.1-1.09.51-2.02,1.23-2.8.73-.77,1.54-1.24,2.44-1.39l-3.51-11.12h-.9l-3.51,11.12c.9.15,1.7.63,2.42,1.43.73.79,1.12,1.71,1.16,2.75Z"/>
      <path class="cls-1" d="M731.39,58.77v-.9c.85-.85,1.59-2.99,2.22-6.42.63-3.45.94-8.08.94-13.92v-9.87c0-5.83-.31-10.46-.94-13.9-.63-3.45-1.37-5.6-2.22-6.45v-.9h23.28v.9c-.85.85-1.61,3-2.26,6.45-.64,3.44-.96,8.07-.96,13.9v9.87c0,5.84.32,10.47.96,13.92.65,3.44,1.41,5.57,2.26,6.42v.9h-23.28Z"/>
      <path class="cls-1" d="M774.85,58.77v-.9c1.1-.85,2.48-2.99,4.14-6.42,1.67-3.45,3.36-8.08,5.06-13.92l3.29-9.87c1.75-5.83,2.79-10.46,3.13-13.9.36-3.45.26-5.6-.29-6.45v-.9h21.69v.9c-.55.85-.64,3-.27,6.45.37,3.44,1.41,8.07,3.11,13.9l3.29,9.87c1.75,5.84,3.44,10.47,5.08,13.92,1.64,3.44,3.03,5.57,4.19,6.42v.9h-23.32v-.9c.59-.85.7-2.99.34-6.42-.37-3.45-1.43-8.08-3.18-13.92l-2.62-8.21c-.75-.1-1.56.04-2.44.45-.87.39-1.35.91-1.45,1.57.19.3.34.7.45,1.21.1.49.16.93.16,1.32,0,.7-.13,1.43-.38,2.17-.26.75-.65,1.12-1.19,1.12s-.96-.37-1.21-1.12c-.26-.74-.38-1.47-.38-2.17,0-.39.05-.83.16-1.32.1-.5.25-.91.45-1.21-.09-.65-.58-1.17-1.45-1.57-.87-.4-1.68-.55-2.44-.45l-2.6,8.21c-1.7,5.84-2.75,10.47-3.16,13.92-.39,3.44-.29,5.57.31,6.42v.9h-8.46ZM793.24,30.35h.67c.1-1.09.51-2.02,1.23-2.8.73-.77,1.54-1.24,2.44-1.39l-3.51-11.12h-.9l-3.51,11.12c.9.15,1.7.63,2.42,1.43.73.79,1.12,1.71,1.16,2.75Z"/>
      <path class="cls-1" d="M847.76,59.82c-6.58,0-11.5-.97-14.77-2.91-3.27-1.95-4.9-4.53-4.9-7.72,0-2.49.86-4.5,2.57-6.04,1.73-1.55,3.88-2.33,6.47-2.33s4.53.74,6.13,2.22c1.59,1.47,2.39,3.14,2.39,5.04,0,1.05-.22,1.92-.67,2.62h-.83c0-.79-.34-1.46-1.01-2.01-.67-.55-1.53-.83-2.57-.83-1.25,0-2.24.39-2.95,1.16-.72.78-1.07,1.81-1.07,3.11,0,1.6.7,3.02,2.13,4.27,1.42,1.24,3.5,1.86,6.24,1.86,1.39,0,2.73-.31,4.03-.94s2.37-1.52,3.22-2.69c.85-1.17,1.28-2.54,1.28-4.1,0-2.03-.55-3.72-1.66-5.06-1.09-1.35-2.48-2.53-4.19-3.54-1.7-1-3.52-1.91-5.46-2.75-1.94-.85-3.76-1.76-5.46-2.73-1.69-.97-3.08-2.15-4.19-3.56-1.09-1.4-1.63-3.12-1.63-5.17,0-2.58.75-4.69,2.26-6.33,1.52-1.66,3.55-2.86,6.09-3.63,2.55-.77,5.33-1.16,8.33-1.16,3.64,0,6.94.31,9.89.94,2.97.62,5.2,1.2,6.69,1.75l-1.57,9.94h-.67c-.26-1.79-.85-3.52-1.79-5.19-.94-1.67-2.17-3.03-3.67-4.1-1.49-1.07-3.24-1.61-5.24-1.61-2.64,0-4.6.49-5.86,1.45-1.27.97-1.9,2.23-1.9,3.76,0,1.4.57,2.63,1.72,3.67,1.15,1.05,2.63,2.05,4.45,3,1.82.94,3.74,1.92,5.75,2.95,2.01,1.02,3.93,2.17,5.75,3.45,1.82,1.27,3.3,2.75,4.45,4.45,1.15,1.69,1.72,3.7,1.72,6.04,0,2.9-.87,5.28-2.62,7.14-1.75,1.87-4.09,3.26-7.03,4.19-2.94.92-6.23,1.39-9.87,1.39Z"/>
      <path class="cls-1" d="M889.26,59.82c-6.58,0-11.5-.97-14.77-2.91-3.27-1.95-4.9-4.53-4.9-7.72,0-2.49.86-4.5,2.57-6.04,1.73-1.55,3.88-2.33,6.47-2.33s4.53.74,6.13,2.22c1.59,1.47,2.39,3.14,2.39,5.04,0,1.05-.22,1.92-.67,2.62h-.83c0-.79-.34-1.46-1.01-2.01-.67-.55-1.53-.83-2.57-.83-1.25,0-2.24.39-2.95,1.16-.72.78-1.07,1.81-1.07,3.11,0,1.6.7,3.02,2.13,4.27,1.42,1.24,3.5,1.86,6.24,1.86,1.39,0,2.73-.31,4.03-.94s2.37-1.52,3.22-2.69c.85-1.17,1.28-2.54,1.28-4.1,0-2.03-.55-3.72-1.66-5.06-1.09-1.35-2.48-2.53-4.19-3.54-1.7-1-3.52-1.91-5.46-2.75-1.94-.85-3.76-1.76-5.46-2.73-1.69-.97-3.08-2.15-4.19-3.56-1.09-1.4-1.63-3.12-1.63-5.17,0-2.58.75-4.69,2.26-6.33,1.52-1.66,3.55-2.86,6.09-3.63,2.55-.77,5.33-1.16,8.33-1.16,3.64,0,6.94.31,9.89.94,2.97.62,5.2,1.2,6.69,1.75l-1.57,9.94h-.67c-.26-1.79-.85-3.52-1.79-5.19-.94-1.67-2.17-3.03-3.67-4.1-1.49-1.07-3.24-1.61-5.24-1.61-2.64,0-4.6.49-5.86,1.45-1.27.97-1.9,2.23-1.9,3.76,0,1.4.57,2.63,1.72,3.67,1.15,1.05,2.63,2.05,4.45,3,1.82.94,3.74,1.92,5.75,2.95,2.01,1.02,3.93,2.17,5.75,3.45,1.82,1.27,3.3,2.75,4.45,4.45,1.15,1.69,1.72,3.7,1.72,6.04,0,2.9-.87,5.28-2.62,7.14-1.75,1.87-4.09,3.26-7.03,4.19-2.94.92-6.23,1.39-9.87,1.39Z"/>
      <path class="cls-1" d="M920.2,14.44c-2.09,0-3.88-.69-5.37-2.08-1.49-1.4-2.24-3.1-2.24-5.1s.74-3.75,2.24-5.13c1.49-1.37,3.28-2.06,5.37-2.06s3.9.69,5.39,2.06c1.49,1.38,2.24,3.08,2.24,5.13s-.75,3.7-2.24,5.1c-1.49,1.39-3.29,2.08-5.39,2.08ZM911.1,58.77v-.83c.7-.85,1.31-2.95,1.84-6.31.52-3.37.78-7.92.78-13.65v-6.65c-.11-3.39-.44-5.82-.98-7.32-.54-1.51-1.11-2.51-1.7-3v-.76c1.79-.04,3.67-.21,5.64-.51,1.97-.3,3.86-.72,5.68-1.28,1.82-.55,3.35-1.22,4.59-2.01h.76v21.53c0,5.73.26,10.28.78,13.65.52,3.36,1.15,5.46,1.9,6.31v.83h-19.29Z"/>
      <path class="cls-1" d="M952.08,59.82c-6.58,0-11.5-.97-14.77-2.91-3.27-1.95-4.9-4.53-4.9-7.72,0-2.49.86-4.5,2.57-6.04,1.73-1.55,3.88-2.33,6.47-2.33s4.53.74,6.13,2.22c1.59,1.47,2.39,3.14,2.39,5.04,0,1.05-.22,1.92-.67,2.62h-.83c0-.79-.34-1.46-1.01-2.01-.67-.55-1.53-.83-2.57-.83-1.25,0-2.24.39-2.95,1.16-.72.78-1.07,1.81-1.07,3.11,0,1.6.7,3.02,2.13,4.27,1.42,1.24,3.5,1.86,6.24,1.86,1.39,0,2.73-.31,4.03-.94s2.37-1.52,3.22-2.69c.85-1.17,1.28-2.54,1.28-4.1,0-2.03-.55-3.72-1.66-5.06-1.09-1.35-2.48-2.53-4.19-3.54-1.7-1-3.52-1.91-5.46-2.75-1.94-.85-3.76-1.76-5.46-2.73-1.69-.97-3.08-2.15-4.19-3.56-1.09-1.4-1.63-3.12-1.63-5.17,0-2.58.75-4.69,2.26-6.33,1.52-1.66,3.55-2.86,6.09-3.63,2.55-.77,5.33-1.16,8.33-1.16,3.64,0,6.94.31,9.89.94,2.97.62,5.2,1.2,6.69,1.75l-1.57,9.94h-.67c-.26-1.79-.85-3.52-1.79-5.19-.94-1.67-2.17-3.03-3.67-4.1-1.49-1.07-3.24-1.61-5.24-1.61-2.64,0-4.6.49-5.86,1.45-1.27.97-1.9,2.23-1.9,3.76,0,1.4.57,2.63,1.72,3.67,1.15,1.05,2.63,2.05,4.45,3,1.82.94,3.74,1.92,5.75,2.95,2.01,1.02,3.93,2.17,5.75,3.45,1.82,1.27,3.3,2.75,4.45,4.45,1.15,1.69,1.72,3.7,1.72,6.04,0,2.9-.87,5.28-2.62,7.14-1.75,1.87-4.09,3.26-7.03,4.19-2.94.92-6.23,1.39-9.87,1.39Z"/>
      <path class="cls-1" d="M992.98,59.82c-3.35,0-6.29-.54-8.84-1.61-2.54-1.07-4.52-2.79-5.93-5.15-1.42-2.37-2.13-5.48-2.13-9.33v-24.37h-5.91v-1.63h3.13c3.04,0,5.65-.62,7.81-1.86,2.18-1.25,3.92-2.86,5.24-4.83,1.33-1.97,2.24-4.03,2.73-6.18h.83v12.87h13.76v1.63h-13.61v29.99c0,2.39.5,4.45,1.52,6.2,1.03,1.75,2.44,2.62,4.23,2.62,1.34,0,2.42-.47,3.25-1.41.82-.95,1.23-2.2,1.23-3.74,0-1.34-.33-2.38-.98-3.13-.64-.76-1.43-1.14-2.37-1.14-.85,0-1.54.39-2.06,1.16-.53.78-.73,1.69-.63,2.73h-.67c-.21-.34-.39-.85-.54-1.52-.15-.68-.22-1.37-.22-2.06,0-1.8.54-3.38,1.63-4.72,1.1-1.34,2.53-2.01,4.27-2.01,1.89,0,3.52.7,4.9,2.1,1.37,1.39,2.06,3.28,2.06,5.66,0,2.81-1.16,5.14-3.49,6.98-2.32,1.84-5.39,2.75-9.22,2.75Z"/>
      <path class="cls-1" d="M1020.94,59.82c-4.09,0-7.4-1.17-9.91-3.51-2.51-2.34-3.76-5.56-3.76-9.65s1.25-7.17,3.76-9.53c2.52-2.37,5.82-3.56,9.91-3.56,2,0,3.92.44,5.75,1.32,1.85.87,3.18,1.9,3.98,3.09h.9l-2.1-12.04c-.4-2.38-1.25-4.24-2.55-5.55-1.29-1.33-2.93-1.99-4.92-1.99-1.6,0-2.86.41-3.78,1.23-.93.82-1.39,1.88-1.39,3.18,0,1.09.35,1.98,1.05,2.66.7.67,1.52,1.01,2.46,1.01s1.71-.22,2.28-.67c.58-.45.82-1.05.72-1.81l.83-.07c.4.66.6,1.43.6,2.33,0,1.54-.57,2.95-1.7,4.23-1.12,1.27-2.67,1.9-4.66,1.9s-3.64-.65-5.04-1.95c-1.39-1.3-2.08-2.89-2.08-4.79,0-1.79.62-3.36,1.86-4.7,1.25-1.35,2.95-2.42,5.1-3.18,2.15-.77,4.54-1.16,7.18-1.16,5.47,0,9.74,1.34,12.8,4.01,3.07,2.66,5.06,6.43,5.95,11.32l2.46,14.12c.31,1.64.75,2.94,1.32,3.89.57.94,1.33,1.41,2.28,1.41.64,0,1.13-.22,1.48-.67.36-.45.63-.99.83-1.63h.76c-.3,3.03-1.17,5.58-2.62,7.65-1.45,2.07-3.55,3.11-6.29,3.11s-4.83-.88-6.58-2.64c-1.75-1.77-2.81-3.96-3.2-6.56h-.92c-.79,2.69-2.34,4.9-4.63,6.62-2.28,1.71-5,2.57-8.15,2.57ZM1026.91,54.07c1.8,0,3.27-.76,4.41-2.28,1.15-1.52,1.72-3.5,1.72-5.95s-.58-4.34-1.72-5.86c-1.14-1.52-2.61-2.28-4.41-2.28s-3.31.74-4.41,2.22c-1.09,1.47-1.63,3.44-1.63,5.93s.54,4.43,1.63,5.95c1.1,1.52,2.57,2.28,4.41,2.28Z"/>
      <path class="cls-1" d="M1054.52,58.77v-.83c.7-.85,1.31-2.99,1.84-6.42.52-3.45.78-8.03.78-13.76v-4.25c0-2.85-.13-5.11-.38-6.8-.26-1.7-.58-3-.98-3.89-.39-.9-.84-1.54-1.34-1.95v-.74c1.8-.06,3.69-.22,5.66-.49s3.85-.66,5.64-1.19c1.79-.54,3.31-1.2,4.57-1.99h.83v8.75h.9c.83-2.79,2.42-4.91,4.77-6.38,2.34-1.48,5.01-2.22,8.01-2.22s5.73.78,7.92,2.35,3.88,3.65,5.08,6.24c1.19,2.6,1.79,5.46,1.79,8.59v4.19c0,5.73.26,10.28.78,13.65.54,3.36,1.15,5.46,1.84,6.31v.83h-19.29v-.83c.7-.85,1.31-2.95,1.84-6.31.52-3.37.78-7.92.78-13.65v-5.37c0-2.49-.65-4.59-1.95-6.31-1.29-1.73-3.02-2.6-5.21-2.6s-3.89.84-5.24,2.51c-1.34,1.67-2.01,3.75-2.01,6.24v5.53c0,5.73.27,10.28.81,13.65.55,3.36,1.17,5.46,1.88,6.31v.83h-19.29Z"/>
      <path class="cls-1" d="M1124.29,59.82c-3.35,0-6.29-.54-8.84-1.61-2.54-1.07-4.52-2.79-5.93-5.15-1.42-2.37-2.13-5.48-2.13-9.33v-24.37h-5.91v-1.63h3.13c3.04,0,5.65-.62,7.81-1.86,2.18-1.25,3.92-2.86,5.24-4.83,1.33-1.97,2.24-4.03,2.73-6.18h.83v12.87h13.76v1.63h-13.61v29.99c0,2.39.5,4.45,1.52,6.2,1.03,1.75,2.44,2.62,4.23,2.62,1.34,0,2.42-.47,3.25-1.41.82-.95,1.23-2.2,1.23-3.74,0-1.34-.33-2.38-.98-3.13-.64-.76-1.43-1.14-2.37-1.14-.85,0-1.54.39-2.06,1.16-.53.78-.73,1.69-.63,2.73h-.67c-.21-.34-.39-.85-.54-1.52-.15-.68-.22-1.37-.22-2.06,0-1.8.54-3.38,1.63-4.72,1.1-1.34,2.53-2.01,4.27-2.01,1.89,0,3.52.7,4.9,2.1,1.37,1.39,2.06,3.28,2.06,5.66,0,2.81-1.16,5.14-3.49,6.98-2.32,1.84-5.39,2.75-9.22,2.75Z"/>
      <path class="cls-1" d="M239.85,103.24c-1.18,1.11-2.47,1.92-3.87,2.44-1.39.53-2.8.77-4.23.74-1.42-.03-2.76-.32-4.03-.87-1.27-.55-2.37-1.34-3.31-2.37-.93-1.04-1.59-2.31-1.99-3.8-.4-1.49-.44-3.2-.11-5.13.34-1.95,1.01-3.56,1.99-4.83,1-1.26,2.27-2.18,3.8-2.73,1.55-.57,3.3-.73,5.26-.49.95.09,1.89.24,2.8.45.92.2,1.81.53,2.66,1.01,1.04.58,1.91,1.3,2.6,2.15.68.85,1.06,1.92,1.14,3.2.01.22,0,.46-.02.69-.02.24-.17.4-.47.49-.29.09-.53.03-.72-.18-.18-.22-.35-.5-.49-.85-.13-.34-.29-.65-.47-.94-.35-.63-.76-1.19-1.25-1.68-.49-.5-1.09-.9-1.79-1.16-1.06-.39-2.14-.65-3.22-.78-1.07-.13-2.17-.12-3.27.02-1.05.15-1.96.5-2.75,1.05-.79.54-1.45,1.25-1.99,2.15-.72,1.16-1.14,2.38-1.28,3.65-.12,1.27-.02,2.56.31,3.87.22.96.65,1.74,1.28,2.35.64.62,1.4,1.1,2.28,1.45,1.55.62,3.09.84,4.61.67,1.53-.16,2.95-.68,4.25-1.57,1.3-.88,2.36-2.06,3.18-3.56.1-.21.2-.41.29-.6.1-.21.32-.25.65-.13.21.08.32.22.34.43.03.21.04.41.04.6-.04.88-.27,1.67-.67,2.37-.4.69-.92,1.32-1.54,1.9Z"/>
      <path class="cls-1" d="M245.04,107.69c-.42-.04-.65-.23-.69-.56-.03-.33-.06-.64-.09-.94-.09-1.61-.18-3.27-.27-4.97-.09-1.71-.08-3.67.04-5.86,0-.61-.01-1.46-.02-2.55,0-1.09,0-2.22.02-3.38.01-.3.03-.6.04-.92.03-.31.12-.58.27-.81.15-.23.4-.36.76-.36.39-.03.65.08.78.31.13.24.21.51.22.83.03.31.06.6.09.87.04.75.07,1.5.09,2.26.01.75,0,1.49-.02,2.24,0,.39.07.71.2.96.13.26.45.37.96.36,2.09-.06,4.17-.04,6.24.04,2.09.09,4.17.24,6.24.45.55.04.91-.06,1.07-.31.18-.27.27-.64.29-1.12,0-.86.02-1.73.07-2.6.06-.86.1-1.73.13-2.6.03-.27.05-.54.07-.83.01-.28.1-.54.27-.78.21-.31.43-.46.65-.45.23.02.45.17.63.45.21.31.34.65.38,1.01.04.35.06.69.04,1.05-.09,2.06-.11,4.11-.04,6.15.06,2.05.16,4.09.29,6.13.03.35,0,.69-.07,1.05-.06.35-.13.69-.22,1.05-.08.3-.2.59-.36.87-.15.27-.42.39-.81.36-.4-.03-.66-.18-.76-.47-.09-.3-.15-.6-.16-.92,0-.06-.01-.25-.02-.56-.02-.32-.03-.72-.04-1.19-.02-.46-.03-.92-.04-1.39,0-.46-.01-.83-.02-1.12-.03-.68-.08-1.17-.13-1.45-.06-.3-.24-.48-.54-.54-.29-.06-.77-.08-1.45-.07-1.92.04-3.85.1-5.77.16-1.92.04-3.86.08-5.8.09-.54.02-.9.13-1.07.36-.17.21-.24.56-.22,1.05.04.73.06,1.48.04,2.24,0,.76-.02,1.51-.04,2.24-.02.48-.04.96-.09,1.43-.04.48-.1.95-.16,1.41-.03.3-.1.6-.2.92-.09.31-.35.44-.78.38Z"/>
      <path class="cls-1" d="M267.92,106.1c-.75-.12-1.32-.27-1.72-.45-.4-.19-.68-.48-.83-.87-.15-.4-.23-.97-.25-1.7-.02-1.34.01-2.67.09-4.01.09-1.34.14-2.67.16-4.01.01-.88.07-1.77.16-2.66s.15-1.78.18-2.66c.03-.88-.06-1.76-.25-2.64-.09-.43-.02-.73.2-.9.22-.18.48-.32.78-.43.59-.22,1.21-.36,1.86-.4.64-.04,1.26-.05,1.88-.02.81.04,1.71.09,2.73.13,1.01.04,2.04.1,3.07.16,1.04.04,2,.1,2.89.16.9.04,1.64.09,2.24.13.59.04.95.09,1.07.13.3.08.55.2.76.38.21.18.31.42.31.72-.03.39-.17.67-.4.85-.24.17-.54.26-.9.27-.87.02-1.73.02-2.6.02s-1.73-.05-2.6-.16c-1.25-.15-2.52-.23-3.78-.27-1.25-.04-2.51-.07-3.76-.07-.46,0-.79.1-.98.29-.18.18-.23.5-.16.96.09.6.16,1.19.2,1.77s.07,1.17.09,1.77c.01.51.12.86.34,1.05.22.18.59.24,1.12.18,1.44-.22,2.9-.31,4.36-.27,1.46.03,2.91.12,4.34.27.23.02.5.02.78,0,.3-.03.55.01.76.11.22.11.34.35.34.72,0,.35-.11.58-.34.69-.21.12-.46.19-.76.2-.29.02-.55.06-.78.11-1.31.27-2.64.47-3.98.6-1.33.12-2.66.2-3.98.25-.64.03-1.11.08-1.39.13-.27.06-.44.22-.49.49-.04.26-.08.69-.09,1.3v2.84c-.02.55,0,.96.04,1.21.04.24.18.38.43.43.25.03.68.04,1.28.04.25,0,.7,0,1.37-.02.65-.03,1.4-.04,2.24-.04.85-.01,1.69-.02,2.53-.02s1.57.02,2.22.04c.64.02,1.08.04,1.32.07.31.06.63.13.96.2.32.06.59.19.81.38.22.2.32.49.31.9-.03.39-.17.67-.4.85-.22.18-.5.31-.83.38-.31.08-.63.15-.94.22-.27.04-.71.1-1.32.16-.62.04-1.33.08-2.15.11-.81.03-1.65.04-2.53.04-.87.01-1.71.01-2.53,0-.81,0-1.52-.01-2.13-.04-.62-.03-1.06-.06-1.34-.09Z"/>
      <path class="cls-1" d="M302.36,103.24c-1.18,1.11-2.47,1.92-3.87,2.44-1.39.53-2.8.77-4.23.74-1.42-.03-2.76-.32-4.03-.87-1.27-.55-2.37-1.34-3.31-2.37-.93-1.04-1.59-2.31-1.99-3.8-.4-1.49-.44-3.2-.11-5.13.34-1.95,1.01-3.56,1.99-4.83,1-1.26,2.27-2.18,3.8-2.73,1.55-.57,3.3-.73,5.26-.49.95.09,1.89.24,2.8.45.92.2,1.81.53,2.66,1.01,1.04.58,1.91,1.3,2.6,2.15.68.85,1.06,1.92,1.14,3.2.01.22,0,.46-.02.69-.02.24-.17.4-.47.49-.29.09-.53.03-.72-.18-.18-.22-.35-.5-.49-.85-.13-.34-.29-.65-.47-.94-.35-.63-.76-1.19-1.25-1.68-.49-.5-1.09-.9-1.79-1.16-1.06-.39-2.14-.65-3.22-.78-1.07-.13-2.17-.12-3.27.02-1.05.15-1.96.5-2.75,1.05-.79.54-1.45,1.25-1.99,2.15-.72,1.16-1.14,2.38-1.28,3.65-.12,1.27-.02,2.56.31,3.87.22.96.65,1.74,1.28,2.35.64.62,1.4,1.1,2.28,1.45,1.55.62,3.09.84,4.61.67,1.53-.16,2.95-.68,4.25-1.57,1.3-.88,2.36-2.06,3.18-3.56.1-.21.2-.41.29-.6.1-.21.32-.25.65-.13.21.08.32.22.34.43.03.21.04.41.04.6-.04.88-.27,1.67-.67,2.37-.4.69-.92,1.32-1.54,1.9Z"/>
      <path class="cls-1" d="M309.3,107.29c-.27-.02-.48-.11-.63-.29-.15-.18-.26-.39-.31-.63-.12-.68-.19-1.49-.2-2.42-.02-.94-.01-1.94.02-3,0-.39-.04-.73-.11-1.03-.06-.31-.32-.6-.78-.87-.58-.32-.86-.72-.83-1.19.03-.48.35-.85.96-1.12.59-.25.95-.56,1.05-.92.1-.36.16-.78.16-1.28.03-.86.06-1.73.09-2.6.04-.86.09-1.73.13-2.6.01-.34.1-.65.25-.92.15-.27.41-.39.81-.38.32,0,.56.13.69.38.15.24.23.5.25.78.1.7.17,1.38.2,2.04.03.64.03,1.31.02,2.01v2.42c1.59-.52,3.05-1.12,4.39-1.79,1.33-.67,2.65-1.29,3.96-1.86.41-.19.87-.43,1.37-.69.49-.28.97-.53,1.45-.74.48-.21.9-.34,1.28-.38.37-.04.65.08.83.36.18.29.13.63-.13,1.03-.26.4-.64.84-1.14,1.3-.51.45-1.05.87-1.63,1.28s-1.12.75-1.61,1.03c-.82.51-1.67,1-2.53,1.48-.87.46-1.73.94-2.6,1.43.03.12.3.31.81.58.52.26,1.17.55,1.95.87.79.33,1.62.66,2.51.98.88.33,1.72.65,2.53.96.81.3,1.48.55,2.01.76.54.21.84.35.92.4.36.2.68.43.96.69.3.27.37.64.22,1.12-.17.55-.46.85-.9.9-.42.03-.84-.01-1.25-.13-.64-.21-1.28-.43-1.9-.67-.62-.23-1.23-.5-1.86-.78-1.38-.61-2.74-1.21-4.1-1.79-1.36-.58-2.76-1.1-4.21-1.54-.24-.07-.47-.15-.69-.22-.22-.07-.51-.06-.87.04-.15.39-.23.84-.25,1.37-.02.51-.02,1.05,0,1.61.01.57,0,1.13-.02,1.68-.02.54-.11,1.02-.27,1.45-.08.23-.19.44-.34.6-.13.18-.35.27-.65.27Z"/>
      <path class="cls-1" d="M329.25,112.12c-.24.12-.46.13-.67.04-.21-.09-.37-.24-.47-.45-.09-.21-.09-.42,0-.63.03-.13.1-.25.2-.34.12-.09.18-.15.18-.18.21-.13.41-.29.6-.47.19-.18.36-.37.51-.58.22-.26.45-.62.69-1.07.25-.45.48-.93.67-1.43.19-.51.32-.93.38-1.28.03-.13.04-.4.04-.81.01-.4-.03-.72-.13-.96-.08-.12-.08-.3,0-.56.07-.25.23-.44.49-.56.21-.09.4-.11.58-.07.19.04.36.22.49.54.4.98.55,1.92.45,2.8-.09.88-.35,1.7-.76,2.46-.42.76-.92,1.48-1.5,2.15-.27.28-.6.56-.98.83-.39.28-.65.47-.78.56Z"/>
      <path class="cls-1" d="M364.9,105.72c-.98.49-2.08.82-3.27.98-1.18.18-2.39.23-3.63.16-1.24-.06-2.48-.2-3.72-.43-1.24-.22-2.42-.48-3.54-.76-.91-.25-1.59-.69-2.04-1.32s-.63-1.34-.54-2.15c.04-.23.1-.46.16-.67.06-.22.22-.39.49-.49.25-.09.48-.09.67,0,.21.08.41.2.6.36.85.7,1.77,1.28,2.78,1.72,1.01.45,2.04.78,3.07,1.01,1.04.22,2.05.35,3.02.38.98.03,1.86-.02,2.62-.16s1.37-.34,1.84-.63c.58-.34.97-.77,1.19-1.28.21-.52.21-1.04.02-1.57-.18-.54-.57-.97-1.16-1.32-1.05-.61-2.08-1.06-3.09-1.37-1-.3-2-.54-3-.74-.98-.19-1.97-.41-2.95-.67-.98-.27-1.99-.68-3-1.23-1.06-.59-1.81-1.32-2.24-2.17-.44-.86-.62-1.75-.54-2.64.09-.91.39-1.75.9-2.51.52-.77,1.21-1.38,2.06-1.81,2.97-1.53,6.02-1.7,9.15-.49,1.04.39,1.85,1,2.42,1.81.58.81.98,1.74,1.21,2.8.06.24.07.48.04.72-.02.22-.17.4-.45.54-.24.09-.48.02-.72-.2-.22-.22-.45-.5-.67-.85-.22-.36-.45-.68-.67-.98-.53-.73-1.23-1.28-2.1-1.66-.87-.39-1.79-.59-2.78-.6-.97-.01-1.9.15-2.78.49-.88.35-1.59.87-2.13,1.57-.45.57-.64,1.15-.58,1.75.07.6.4,1.11.98,1.54.16.11.53.27,1.1.49.58.22,1.29.49,2.13.78.83.29,1.72.58,2.66.9.95.31,1.88.64,2.78.96.91.31,1.71.6,2.39.85.7.26,1.21.47,1.54.65.82.45,1.45,1.02,1.9,1.7.46.69.67,1.52.63,2.48-.03.96-.29,1.77-.78,2.44-.48.66-1.14,1.2-1.99,1.61Z"/>
      <path class="cls-1" d="M386.8,103.24c-1.18,1.11-2.47,1.92-3.87,2.44-1.39.53-2.8.77-4.23.74-1.42-.03-2.76-.32-4.03-.87-1.27-.55-2.37-1.34-3.31-2.37-.93-1.04-1.59-2.31-1.99-3.8-.4-1.49-.44-3.2-.11-5.13.34-1.95,1.01-3.56,1.99-4.83,1-1.26,2.27-2.18,3.8-2.73,1.55-.57,3.3-.73,5.26-.49.95.09,1.89.24,2.8.45.92.2,1.81.53,2.66,1.01,1.04.58,1.91,1.3,2.6,2.15.68.85,1.06,1.92,1.14,3.2.01.22,0,.46-.02.69-.02.24-.17.4-.47.49-.29.09-.53.03-.72-.18-.18-.22-.35-.5-.49-.85-.13-.34-.29-.65-.47-.94-.35-.63-.76-1.19-1.25-1.68-.49-.5-1.09-.9-1.79-1.16-1.06-.39-2.14-.65-3.22-.78-1.07-.13-2.17-.12-3.27.02-1.05.15-1.96.5-2.75,1.05-.79.54-1.45,1.25-1.99,2.15-.72,1.16-1.14,2.38-1.28,3.65-.12,1.27-.02,2.56.31,3.87.22.96.65,1.74,1.28,2.35.64.62,1.4,1.1,2.28,1.45,1.55.62,3.09.84,4.61.67,1.53-.16,2.95-.68,4.25-1.57,1.3-.88,2.36-2.06,3.18-3.56.1-.21.2-.41.29-.6.1-.21.32-.25.65-.13.21.08.32.22.34.43.03.21.04.41.04.6-.04.88-.27,1.67-.67,2.37-.4.69-.92,1.32-1.54,1.9Z"/>
      <path class="cls-1" d="M392,107.69c-.42-.04-.65-.23-.69-.56-.03-.33-.06-.64-.09-.94-.09-1.61-.18-3.27-.27-4.97-.09-1.71-.08-3.67.04-5.86,0-.61-.01-1.46-.02-2.55,0-1.09,0-2.22.02-3.38.01-.3.03-.6.04-.92.03-.31.12-.58.27-.81.15-.23.4-.36.76-.36.39-.03.65.08.78.31.13.24.21.51.22.83.03.31.06.6.09.87.04.75.07,1.5.09,2.26.01.75,0,1.49-.02,2.24,0,.39.07.71.2.96.13.26.45.37.96.36,2.09-.06,4.17-.04,6.24.04,2.09.09,4.17.24,6.24.45.55.04.91-.06,1.07-.31.18-.27.27-.64.29-1.12,0-.86.02-1.73.07-2.6.06-.86.1-1.73.13-2.6.03-.27.05-.54.07-.83.01-.28.1-.54.27-.78.21-.31.43-.46.65-.45.23.02.45.17.63.45.21.31.34.65.38,1.01.04.35.06.69.04,1.05-.09,2.06-.11,4.11-.04,6.15.06,2.05.16,4.09.29,6.13.03.35,0,.69-.07,1.05-.06.35-.13.69-.22,1.05-.08.3-.2.59-.36.87-.15.27-.42.39-.81.36-.4-.03-.66-.18-.76-.47-.09-.3-.15-.6-.16-.92,0-.06-.01-.25-.02-.56-.02-.32-.03-.72-.04-1.19-.02-.46-.03-.92-.04-1.39,0-.46-.01-.83-.02-1.12-.03-.68-.08-1.17-.13-1.45-.06-.3-.24-.48-.54-.54-.29-.06-.77-.08-1.45-.07-1.92.04-3.85.1-5.77.16-1.92.04-3.86.08-5.8.09-.54.02-.9.13-1.07.36-.17.21-.24.56-.22,1.05.04.73.06,1.48.04,2.24,0,.76-.02,1.51-.04,2.24-.02.48-.04.96-.09,1.43-.04.48-.1.95-.16,1.41-.03.3-.1.6-.2.92-.09.31-.35.44-.78.38Z"/>
      <path class="cls-1" d="M414.88,106.1c-.75-.12-1.32-.27-1.72-.45-.4-.19-.68-.48-.83-.87-.15-.4-.23-.97-.25-1.7-.02-1.34.01-2.67.09-4.01.09-1.34.14-2.67.16-4.01.01-.88.07-1.77.16-2.66s.15-1.78.18-2.66c.03-.88-.06-1.76-.25-2.64-.09-.43-.02-.73.2-.9.22-.18.48-.32.78-.43.59-.22,1.21-.36,1.86-.4.64-.04,1.26-.05,1.88-.02.81.04,1.71.09,2.73.13,1.01.04,2.04.1,3.07.16,1.04.04,2,.1,2.89.16.9.04,1.64.09,2.24.13.59.04.95.09,1.07.13.3.08.55.2.76.38.21.18.31.42.31.72-.03.39-.17.67-.4.85-.24.17-.54.26-.9.27-.87.02-1.73.02-2.6.02s-1.73-.05-2.6-.16c-1.25-.15-2.52-.23-3.78-.27-1.25-.04-2.51-.07-3.76-.07-.46,0-.79.1-.98.29-.18.18-.23.5-.16.96.09.6.16,1.19.2,1.77s.07,1.17.09,1.77c.01.51.12.86.34,1.05.22.18.59.24,1.12.18,1.44-.22,2.9-.31,4.36-.27,1.46.03,2.91.12,4.34.27.23.02.5.02.78,0,.3-.03.55.01.76.11.22.11.34.35.34.72,0,.35-.11.58-.34.69-.21.12-.46.19-.76.2-.29.02-.55.06-.78.11-1.31.27-2.64.47-3.98.6-1.33.12-2.66.2-3.98.25-.64.03-1.11.08-1.39.13-.27.06-.44.22-.49.49-.04.26-.08.69-.09,1.3v2.84c-.02.55,0,.96.04,1.21.04.24.18.38.43.43.25.03.68.04,1.28.04.25,0,.7,0,1.37-.02.65-.03,1.4-.04,2.24-.04.85-.01,1.69-.02,2.53-.02s1.57.02,2.22.04c.64.02,1.08.04,1.32.07.31.06.63.13.96.2.32.06.59.19.81.38.22.2.32.49.31.9-.03.39-.17.67-.4.85-.22.18-.5.31-.83.38-.31.08-.63.15-.94.22-.27.04-.71.1-1.32.16-.62.04-1.33.08-2.15.11-.81.03-1.65.04-2.53.04-.87.01-1.71.01-2.53,0-.81,0-1.52-.01-2.13-.04-.62-.03-1.06-.06-1.34-.09Z"/>
      <path class="cls-1" d="M433.74,106.1c-.63-.06-1.09-.25-1.39-.56-.29-.31-.46-.77-.54-1.37-.09-.77-.16-1.72-.2-2.84-.03-1.13-.06-2.33-.07-3.58v-3.74c.01-1.24.02-2.37.02-3.4s-.01-1.86-.02-2.48c-.02-.52.08-.95.29-1.28.21-.32.57-.53,1.07-.6,1.97-.21,3.89-.27,5.77-.2,1.89.06,3.65.31,5.26.76,1.62.45,3.03,1.12,4.21,2.01,1.19.88,2.08,2.03,2.66,3.45.59,1.42.81,3.14.63,5.17-.26,1.54-.81,2.88-1.66,4.01-.84,1.12-1.9,2.03-3.18,2.73-1.27.7-2.66,1.2-4.19,1.5-1.43.27-2.88.45-4.32.54-1.45.07-2.9.03-4.36-.11ZM435.02,103.73c.36-.04.9-.07,1.61-.09.73-.01,1.55-.07,2.46-.16.91-.09,1.84-.23,2.8-.43.95-.19,1.84-.47,2.64-.83,1.17-.52,2.1-1.22,2.78-2.1.68-.88,1.12-1.86,1.3-2.93.19-1.07.1-2.13-.27-3.18-.37-1.06-1.04-2-1.99-2.84-1.54-1.34-3.22-2.25-5.04-2.73-1.82-.48-3.73-.65-5.73-.51-.63.04-1.07.2-1.32.47-.24.27-.35.74-.31,1.41.04,2.12.12,4.25.25,6.38.12,2.12.05,4.25-.2,6.38-.03.37.02.67.16.9.15.21.44.3.87.27Z"/>
      <path class="cls-1" d="M455.83,103.26c-.98-1.28-1.69-2.65-2.1-4.1-.42-1.44-.68-2.94-.78-4.5-.09-1.33-.11-2.66-.04-4.01.06-1.34.18-2.67.36-4.01.06-.28.12-.57.18-.87.06-.3.16-.54.31-.74.15-.19.34-.28.56-.27.23,0,.43.08.56.22.13.13.21.29.22.47.06.51.09,1.02.09,1.54.01.51.03,1.02.07,1.54v4.12c0,1.27.07,2.46.2,3.56.13,1.09.39,2.11.78,3.07.63,1.45,1.42,2.51,2.39,3.18.98.67,2.06.93,3.25.76,1.17-.16,2.37-.76,3.58-1.79,1-.85,1.76-1.8,2.28-2.86.52-1.07.92-2.22,1.21-3.42.25-1.03.4-2.07.45-3.13.06-1.07.04-2.14-.04-3.2-.06-.46-.09-.97-.09-1.54s.07-1.07.22-1.52c.16-.45.45-.68.85-.69.23,0,.44.11.6.31.16.2.28.42.36.67.09.26.13.46.13.6.04,1.36.07,2.72.07,4.07.01,1.36-.06,2.72-.22,4.07-.15,1.36-.44,2.7-.87,4.03-.44,1.39-1.07,2.61-1.92,3.65-.84,1.03-1.79,1.86-2.86,2.48-1.07.62-2.2.98-3.38,1.12-1.16.12-2.31-.04-3.42-.49-1.11-.45-2.1-1.22-2.98-2.33Z"/>
      <path class="cls-1" d="M476.87,107.13c-.76.04-1.35,0-1.77-.11-.4-.11-.71-.35-.92-.74-.2-.39-.35-.94-.45-1.66-.18-1.34-.31-2.75-.38-4.23-.08-1.48-.11-2.92-.09-4.34.01-1.42.06-2.71.13-3.89.07-1.19.15-2.19.22-3,.09-.81.16-1.31.22-1.52.09-.36.23-.68.43-.96.19-.28.51-.39.96-.31.4.04.65.21.76.49.1.29.17.6.2.94.09,1.3.1,2.6.02,3.89-.06,1.3-.13,2.6-.22,3.89-.11,1.54-.15,3.08-.13,4.61.01,1.52.03,3.09.07,4.7,1.58-.21,3.12-.34,4.63-.4,1.51-.06,3-.04,4.48.04.27.02.57.01.92-.02.34-.03.64,0,.9.07.27.08.41.28.43.6.03.42-.08.7-.34.85-.24.13-.55.21-.92.22-.36.01-.67.04-.94.09-1.38.18-2.75.32-4.12.45-1.36.12-2.72.23-4.1.34Z"/>
      <path class="cls-1" d="M491.43,106.1c-.75-.12-1.32-.27-1.72-.45-.4-.19-.68-.48-.83-.87-.15-.4-.23-.97-.25-1.7-.02-1.34.01-2.67.09-4.01.09-1.34.14-2.67.16-4.01.01-.88.07-1.77.16-2.66s.15-1.78.18-2.66c.03-.88-.06-1.76-.25-2.64-.09-.43-.02-.73.2-.9.22-.18.48-.32.78-.43.59-.22,1.21-.36,1.86-.4.64-.04,1.26-.05,1.88-.02.81.04,1.71.09,2.73.13,1.01.04,2.04.1,3.07.16,1.04.04,2,.1,2.89.16.9.04,1.64.09,2.24.13.59.04.95.09,1.07.13.3.08.55.2.76.38.21.18.31.42.31.72-.03.39-.17.67-.4.85-.24.17-.54.26-.9.27-.87.02-1.73.02-2.6.02s-1.73-.05-2.6-.16c-1.25-.15-2.52-.23-3.78-.27-1.25-.04-2.51-.07-3.76-.07-.46,0-.79.1-.98.29-.18.18-.23.5-.16.96.09.6.16,1.19.2,1.77s.07,1.17.09,1.77c.01.51.12.86.34,1.05.22.18.59.24,1.12.18,1.44-.22,2.9-.31,4.36-.27,1.46.03,2.91.12,4.34.27.23.02.5.02.78,0,.3-.03.55.01.76.11.22.11.34.35.34.72,0,.35-.11.58-.34.69-.21.12-.46.19-.76.2-.29.02-.55.06-.78.11-1.31.27-2.64.47-3.98.6-1.33.12-2.66.2-3.98.25-.64.03-1.11.08-1.39.13-.27.06-.44.22-.49.49-.04.26-.08.69-.09,1.3v2.84c-.02.55,0,.96.04,1.21.04.24.18.38.43.43.25.03.68.04,1.28.04.25,0,.7,0,1.37-.02.65-.03,1.4-.04,2.24-.04.85-.01,1.69-.02,2.53-.02s1.57.02,2.22.04c.64.02,1.08.04,1.32.07.31.06.63.13.96.2.32.06.59.19.81.38.22.2.32.49.31.9-.03.39-.17.67-.4.85-.22.18-.5.31-.83.38-.31.08-.63.15-.94.22-.27.04-.71.1-1.32.16-.62.04-1.33.08-2.15.11-.81.03-1.65.04-2.53.04-.87.01-1.71.01-2.53,0-.81,0-1.52-.01-2.13-.04-.62-.03-1.06-.06-1.34-.09Z"/>
      <path class="cls-1" d="M509.33,112.12c-.24.12-.46.13-.67.04-.21-.09-.37-.24-.47-.45-.09-.21-.09-.42,0-.63.03-.13.1-.25.2-.34.12-.09.18-.15.18-.18.21-.13.41-.29.6-.47.19-.18.36-.37.51-.58.22-.26.45-.62.69-1.07.25-.45.48-.93.67-1.43.19-.51.32-.93.38-1.28.03-.13.04-.4.04-.81.01-.4-.03-.72-.13-.96-.08-.12-.08-.3,0-.56.07-.25.23-.44.49-.56.21-.09.4-.11.58-.07.19.04.36.22.49.54.4.98.55,1.92.45,2.8-.09.88-.35,1.7-.76,2.46-.42.76-.92,1.48-1.5,2.15-.27.28-.6.56-.98.83-.39.28-.65.47-.78.56Z"/>
      <path class="cls-1" d="M546.01,103.24c-1.18,1.11-2.47,1.92-3.87,2.44-1.39.53-2.8.77-4.23.74-1.42-.03-2.76-.32-4.03-.87-1.27-.55-2.37-1.34-3.31-2.37-.93-1.04-1.59-2.31-1.99-3.8-.4-1.49-.44-3.2-.11-5.13.34-1.95,1.01-3.56,1.99-4.83,1-1.26,2.27-2.18,3.8-2.73,1.55-.57,3.3-.73,5.26-.49.95.09,1.89.24,2.8.45.92.2,1.81.53,2.66,1.01,1.04.58,1.91,1.3,2.6,2.15.68.85,1.06,1.92,1.14,3.2.01.22,0,.46-.02.69-.02.24-.17.4-.47.49-.29.09-.53.03-.72-.18-.18-.22-.35-.5-.49-.85-.13-.34-.29-.65-.47-.94-.35-.63-.76-1.19-1.25-1.68-.49-.5-1.09-.9-1.79-1.16-1.06-.39-2.14-.65-3.22-.78-1.07-.13-2.17-.12-3.27.02-1.05.15-1.96.5-2.75,1.05-.79.54-1.45,1.25-1.99,2.15-.72,1.16-1.14,2.38-1.28,3.65-.12,1.27-.02,2.56.31,3.87.22.96.65,1.74,1.28,2.35.64.62,1.4,1.1,2.28,1.45,1.55.62,3.09.84,4.61.67,1.53-.16,2.95-.68,4.25-1.57,1.3-.88,2.36-2.06,3.18-3.56.1-.21.2-.41.29-.6.1-.21.32-.25.65-.13.21.08.32.22.34.43.03.21.04.41.04.6-.04.88-.27,1.67-.67,2.37-.4.69-.92,1.32-1.54,1.9Z"/>
      <path class="cls-1" d="M550.71,106.93c-.35-.09-.54-.27-.58-.54-.03-.27-.04-.54-.02-.83.12-.83.3-1.64.54-2.44.23-.79.57-1.53.98-2.24,1.1-1.88,2.09-3.81,2.98-5.8.88-1.98,1.8-3.94,2.78-5.86.4-.81.82-1.24,1.25-1.3.45-.07.95.22,1.52.87.03.04.18.35.45.9.28.54.63,1.25,1.05,2.13.41.87.88,1.84,1.39,2.91.5,1.07,1,2.18,1.48,3.31.49,1.12.95,2.2,1.37,3.25.43,1.05.77,1.99,1.03,2.82.06.2.11.44.16.74.04.29.03.56-.02.83-.06.26-.22.44-.47.56-.29.15-.6.14-.94-.02-.33-.18-.67-.46-1.01-.85-.33-.39-.63-.82-.9-1.3-.26-.48-.44-.96-.56-1.45-.18-.72-.49-1.19-.92-1.43-.44-.23-1-.34-1.68-.29-.84.03-1.67.04-2.51.04-.82-.01-1.63-.1-2.44-.25-.7-.12-1.19.17-1.45.85-.21.54-.44,1.14-.67,1.79-.24.66-.5,1.29-.78,1.88-.29.6-.6,1.06-.94,1.41-.35.34-.7.45-1.07.31ZM555.95,97.8h4.9l-2.42-5.46c-.45,1.02-.87,1.95-1.25,2.8-.39.84-.8,1.72-1.23,2.66Z"/>
      <path class="cls-1" d="M569.68,107.56c-.87.1-1.28-.6-1.23-2.13.04-.83.09-1.66.13-2.48.04-.82.13-1.63.27-2.44.32-1.82.6-3.65.83-5.48.22-1.85.32-3.7.31-5.55v-.45c.01-.16.03-.32.04-.49.21-1.25.79-1.51,1.75-.76.95.72,1.79,1.54,2.51,2.46.72.94,1.53,1.96,2.44,3.04.91,1.09,1.84,2.18,2.8,3.27.97,1.07,1.87,2.06,2.71,2.95.85.88,1.56,1.61,2.13,2.19.58.57.95.87,1.12.92.04-.76.07-1.5.07-2.22.01-.73-.04-1.46-.18-2.19-.15-1.16-.2-2.32-.13-3.47.06-1.15.16-2.29.29-3.42.13-1.15.23-2.29.29-3.45.01-.25.08-.48.2-.69.13-.21.34-.32.6-.34.34-.04.57.06.69.29.13.24.21.5.25.78,0,0,.01.25.04.74.03.48.07,1.13.11,1.95.04.81.09,1.72.13,2.73.06,1.02.11,2.06.16,3.13.06,1.07.1,2.12.13,3.13.04,1,.07,1.9.09,2.71.03.81.03,1.43,0,1.88-.02.6-.08,1.16-.18,1.68-.11.52-.26.95-.47,1.28-.21.34-.49.54-.83.58-.35.04-.76-.13-1.25-.51-.3-.24-.58-.51-.83-.83-.26-.3-.51-.59-.76-.9-.64-.79-1.38-1.69-2.19-2.71-.81-1.01-1.63-2.06-2.48-3.13-.85-1.09-1.69-2.14-2.51-3.16-.82-1.03-1.58-1.95-2.28-2.75-.69-.82-1.28-1.46-1.77-1.92-.48-.46-.82-.68-1.01-.65-.09,1.76-.2,3.54-.31,5.33-.11,1.79-.2,3.58-.29,5.37-.02.49-.02,1.05,0,1.66.03.62.02,1.22-.02,1.81-.03.6-.15,1.1-.36,1.5-.21.41-.55.66-1.01.74Z"/>
      <path class="cls-1" d="M607.39,103.24c-1.18,1.11-2.47,1.92-3.87,2.44-1.39.53-2.8.77-4.23.74-1.42-.03-2.76-.32-4.03-.87-1.27-.55-2.37-1.34-3.31-2.37-.93-1.04-1.59-2.31-1.99-3.8-.4-1.49-.44-3.2-.11-5.13.34-1.95,1.01-3.56,1.99-4.83,1-1.26,2.27-2.18,3.8-2.73,1.55-.57,3.3-.73,5.26-.49.95.09,1.89.24,2.8.45.92.2,1.81.53,2.66,1.01,1.04.58,1.91,1.3,2.6,2.15.68.85,1.06,1.92,1.14,3.2.01.22,0,.46-.02.69-.02.24-.17.4-.47.49-.29.09-.53.03-.72-.18-.18-.22-.35-.5-.49-.85-.13-.34-.29-.65-.47-.94-.35-.63-.76-1.19-1.25-1.68-.49-.5-1.09-.9-1.79-1.16-1.06-.39-2.14-.65-3.22-.78-1.07-.13-2.17-.12-3.27.02-1.05.15-1.96.5-2.75,1.05-.79.54-1.45,1.25-1.99,2.15-.72,1.16-1.14,2.38-1.28,3.65-.12,1.27-.02,2.56.31,3.87.22.96.65,1.74,1.28,2.35.64.62,1.4,1.1,2.28,1.45,1.55.62,3.09.84,4.61.67,1.53-.16,2.95-.68,4.25-1.57,1.3-.88,2.36-2.06,3.18-3.56.1-.21.2-.41.29-.6.1-.21.32-.25.65-.13.21.08.32.22.34.43.03.21.04.41.04.6-.04.88-.27,1.67-.67,2.37-.4.69-.92,1.32-1.54,1.9Z"/>
      <path class="cls-1" d="M614.26,106.1c-.75-.12-1.32-.27-1.72-.45-.4-.19-.68-.48-.83-.87-.15-.4-.23-.97-.25-1.7-.02-1.34.01-2.67.09-4.01.09-1.34.14-2.67.16-4.01.01-.88.07-1.77.16-2.66s.15-1.78.18-2.66c.03-.88-.06-1.76-.25-2.64-.09-.43-.02-.73.2-.9.22-.18.48-.32.78-.43.59-.22,1.21-.36,1.86-.4.64-.04,1.26-.05,1.88-.02.81.04,1.71.09,2.73.13,1.01.04,2.04.1,3.07.16,1.04.04,2,.1,2.89.16.9.04,1.64.09,2.24.13.59.04.95.09,1.07.13.3.08.55.2.76.38.21.18.31.42.31.72-.03.39-.17.67-.4.85-.24.17-.54.26-.9.27-.87.02-1.73.02-2.6.02s-1.73-.05-2.6-.16c-1.25-.15-2.52-.23-3.78-.27-1.25-.04-2.51-.07-3.76-.07-.46,0-.79.1-.98.29-.18.18-.23.5-.16.96.09.6.16,1.19.2,1.77s.07,1.17.09,1.77c.01.51.12.86.34,1.05.22.18.59.24,1.12.18,1.44-.22,2.9-.31,4.36-.27,1.46.03,2.91.12,4.34.27.23.02.5.02.78,0,.3-.03.55.01.76.11.22.11.34.35.34.72,0,.35-.11.58-.34.69-.21.12-.46.19-.76.2-.29.02-.55.06-.78.11-1.31.27-2.64.47-3.98.6-1.33.12-2.66.2-3.98.25-.64.03-1.11.08-1.39.13-.27.06-.44.22-.49.49-.04.26-.08.69-.09,1.3v2.84c-.02.55,0,.96.04,1.21.04.24.18.38.43.43.25.03.68.04,1.28.04.25,0,.7,0,1.37-.02.65-.03,1.4-.04,2.24-.04.85-.01,1.69-.02,2.53-.02s1.57.02,2.22.04c.64.02,1.08.04,1.32.07.31.06.63.13.96.2.32.06.59.19.81.38.22.2.32.49.31.9-.03.39-.17.67-.4.85-.22.18-.5.31-.83.38-.31.08-.63.15-.94.22-.27.04-.71.1-1.32.16-.62.04-1.33.08-2.15.11-.81.03-1.65.04-2.53.04-.87.01-1.71.01-2.53,0-.81,0-1.52-.01-2.13-.04-.62-.03-1.06-.06-1.34-.09Z"/>
      <path class="cls-1" d="M634.54,107.13c-.76.04-1.35,0-1.77-.11-.4-.11-.71-.35-.92-.74-.2-.39-.35-.94-.45-1.66-.18-1.34-.31-2.75-.38-4.23-.08-1.48-.11-2.92-.09-4.34.01-1.42.06-2.71.13-3.89.07-1.19.15-2.19.22-3,.09-.81.16-1.31.22-1.52.09-.36.23-.68.43-.96.19-.28.51-.39.96-.31.4.04.65.21.76.49.1.29.17.6.2.94.09,1.3.1,2.6.02,3.89-.06,1.3-.13,2.6-.22,3.89-.11,1.54-.15,3.08-.13,4.61.01,1.52.03,3.09.07,4.7,1.58-.21,3.12-.34,4.63-.4,1.51-.06,3-.04,4.48.04.27.02.57.01.92-.02.34-.03.64,0,.9.07.27.08.41.28.43.6.03.42-.08.7-.34.85-.24.13-.55.21-.92.22-.36.01-.67.04-.94.09-1.38.18-2.75.32-4.12.45-1.36.12-2.72.23-4.1.34Z"/>
      <path class="cls-1" d="M669.75,106.73c-.51,0-.84-.18-.98-.54-.15-.37-.22-.76-.22-1.16,0-1.07-.01-2.14-.02-3.2,0-1.06,0-2.11.02-3.18.04-.52-.02-1-.18-1.43-.15-.43-.4-.86-.76-1.3-1.15-1.35-2.27-2.73-3.36-4.12-1.09-1.39-2.24-2.72-3.45-4.01-.21-.23-.42-.48-.63-.72-.2-.23-.31-.5-.36-.78-.03-.3.08-.62.34-.96.25-.34.59-.43,1.03-.27.43.15.92.56,1.48,1.23.92,1.06,1.82,2.14,2.71,3.25.9,1.09,1.71,2.25,2.44,3.47.19.3.39.6.58.92.19.31.5.59.92.83.45-1.16,1.04-2.18,1.77-3.04.74-.86,1.52-1.71,2.33-2.53.65-.68,1.34-1.33,2.06-1.92.73-.61,1.39-1.29,1.99-2.04.19-.25.43-.45.72-.58.28-.13.58-.07.9.18.31.26.45.54.4.85-.04.3-.17.58-.38.85-.67.96-1.44,1.9-2.31,2.84-.85.93-1.73,1.91-2.64,2.95-.91,1.03-1.8,2.19-2.66,3.49-.54.82-.78,1.7-.72,2.62.06,1.11.09,2.21.09,3.31.01,1.09.03,2.19.04,3.31.03.42-.02.81-.16,1.16-.13.34-.46.51-.98.51Z"/>
      <path class="cls-1" d="M692.86,106.24c-1.73,0-3.37-.34-4.92-1.03-1.56-.68-2.9-1.64-4.05-2.86-1.15-1.22-2.01-2.65-2.6-4.27-.51-1.49-.63-2.92-.36-4.27.27-1.35.87-2.61,1.81-3.76,1.44-1.77,3.01-3.09,4.7-3.96,1.7-.86,3.44-1.3,5.21-1.3s3.54.41,5.26,1.23c1.73.82,3.34,2.03,4.83,3.63,1,1.05,1.59,2.24,1.79,3.58.21,1.33.12,2.66-.27,4.01-.55,1.88-1.31,3.49-2.28,4.83-.97,1.34-2.2,2.38-3.69,3.11-1.49.72-3.31,1.07-5.44,1.07ZM685.87,100.44c.67.85,1.49,1.53,2.46,2.04.97.49,2.03.82,3.18.96,1.15.13,2.29.11,3.42-.09,1.15-.21,2.23-.58,3.25-1.12,1.01-.54,1.88-1.24,2.6-2.1.72-.88,1.21-1.91,1.48-3.11.37-1.55.37-2.95,0-4.21-.36-1.25-1.2-2.32-2.53-3.2-1.11-.73-2.27-1.3-3.49-1.72-1.21-.41-2.48-.61-3.8-.58-.62.03-1.23.06-1.86.07-.63.02-1.2.27-1.72.76-1.11,1-2.05,2.1-2.84,3.29-.79,1.18-1.31,2.52-1.57,4.03-.17.94-.12,1.83.13,2.66.27.82.7,1.6,1.3,2.33Z"/>
      <path class="cls-1" d="M709,103.26c-.98-1.28-1.69-2.65-2.1-4.1-.42-1.44-.68-2.94-.78-4.5-.09-1.33-.11-2.66-.04-4.01.06-1.34.18-2.67.36-4.01.06-.28.12-.57.18-.87.06-.3.16-.54.31-.74.15-.19.34-.28.56-.27.23,0,.43.08.56.22.13.13.21.29.22.47.06.51.09,1.02.09,1.54.01.51.03,1.02.07,1.54v4.12c0,1.27.07,2.46.2,3.56.13,1.09.39,2.11.78,3.07.63,1.45,1.42,2.51,2.39,3.18.98.67,2.06.93,3.25.76,1.17-.16,2.37-.76,3.58-1.79,1-.85,1.76-1.8,2.28-2.86.52-1.07.92-2.22,1.21-3.42.25-1.03.4-2.07.45-3.13.06-1.07.04-2.14-.04-3.2-.06-.46-.09-.97-.09-1.54s.07-1.07.22-1.52c.16-.45.45-.68.85-.69.23,0,.44.11.6.31.16.2.28.42.36.67.09.26.13.46.13.6.04,1.36.07,2.72.07,4.07.01,1.36-.06,2.72-.22,4.07-.15,1.36-.44,2.7-.87,4.03-.44,1.39-1.07,2.61-1.92,3.65-.84,1.03-1.79,1.86-2.86,2.48-1.07.62-2.2.98-3.38,1.12-1.16.12-2.31-.04-3.42-.49-1.11-.45-2.1-1.22-2.98-2.33Z"/>
      <path class="cls-1" d="M726.84,106.21c-.31-.06-.53-.18-.65-.36-.11-.19-.16-.41-.16-.65.01-.25.03-.48.07-.69.21-2.29.31-4.58.31-6.85.01-2.27.1-4.55.25-6.85.01-.22.02-.45.02-.69.01-.23,0-.46-.02-.67-.15-.65-.21-1.16-.18-1.52.03-.37.18-.66.47-.87.3-.22.75-.41,1.37-.56.92-.23,1.85-.34,2.78-.29,1.61.06,3.17.27,4.68.63,1.52.36,2.89.82,4.12,1.37,1.24.55,2.23,1.14,2.98,1.75.9.75,1.34,1.57,1.34,2.46s-.45,1.74-1.34,2.53c-.46.4-.97.73-1.52.96-.54.24-1.17.49-1.9.74.43.45.93.98,1.5,1.59.57.6,1.13,1.2,1.7,1.81.58.6,1.07,1.14,1.48,1.61.4.48.65.83.74,1.05.09.2.19.4.31.63.12.22.18.45.18.67.01.21-.11.43-.36.65-.36.29-.69.33-1.01.13-.3-.21-.58-.43-.83-.65-.63-.64-1.29-1.26-1.97-1.88-.67-.63-1.27-1.3-1.79-2.01-.46-.65-.91-1.15-1.32-1.48-.4-.32-.83-.55-1.28-.67-.44-.13-.95-.2-1.54-.2-.58-.01-1.29-.03-2.13-.04-.82-.01-1.82-.07-3-.18-.51-.03-.86.08-1.05.31-.2.24-.3.6-.31,1.07-.03.73-.08,1.47-.16,2.22-.08.75-.15,1.49-.22,2.24-.02.2-.02.4-.02.6,0,.2-.03.39-.09.58-.06.26-.13.51-.22.76-.09.26-.23.46-.43.6-.18.15-.44.2-.78.16ZM732.99,95.63c1.13.03,2.29.01,3.49-.07,1.19-.09,2.38-.34,3.56-.74.58-.19,1.12-.46,1.61-.81.5-.34.78-.83.83-1.48.01-.48-.22-.91-.69-1.3-.48-.4-1.12-.75-1.92-1.05-.81-.3-1.7-.54-2.66-.74-.96-.19-1.91-.34-2.86-.45-.96-.1-1.83-.15-2.62-.13-.79.03-1.39.06-1.79.07-.39.02-.66.11-.81.27-.13.15-.2.42-.2.81v1.68c0,.44-.04.9-.11,1.39-.08.48-.11.93-.09,1.37.03.44.19.8.49,1.1.23.26.57.38.98.38s.86-.04,1.34-.13c.49-.1.97-.16,1.45-.16Z"/>
      <path class="cls-1" d="M761.33,107.49c-.4-.04-.68-.2-.83-.45-.13-.26-.2-.55-.2-.9.01-1.06.01-2.13,0-3.2,0-1.07.04-2.13.13-3.18.15-1.57.25-3.13.31-4.7.07-1.57.13-3.14.18-4.72,0-.31.01-.63.04-.94.03-.31.11-.61.25-.9.21-.49.52-.83.94-1.01.41-.18.87-.2,1.37-.07s.95.45,1.37.94c.97,1.09,2,2.11,3.11,3.07,1.1.94,2.17,1.94,3.2,2.98.37.37.68.64.94.81.25.17.51.18.78.04s.62-.43,1.05-.87c1.01-1.09,2.08-2.11,3.2-3.09,1.13-.98,2.27-1.98,3.4-2.98.88-.73,1.62-.98,2.22-.76.59.22.97.93,1.14,2.1.13,1.09.26,2.18.38,3.27.12,1.09.18,2.19.2,3.31.04,1.34.1,2.68.16,4.01.07,1.33.2,2.66.38,4.01,0,.03,0,.07.02.11.01.03.02.06.02.09.01.3.01.6,0,.92,0,.3-.06.57-.18.81-.12.22-.35.39-.69.51-.37.1-.69.09-.96-.04s-.49-.35-.65-.63c-.15-.3-.28-.59-.38-.87-.39-1.01-.64-2.06-.76-3.13-.12-1.09-.19-2.2-.2-3.33-.02-1.13-.04-2.28-.07-3.45-.03-1.17-.15-2.36-.34-3.54-.88.85-1.72,1.66-2.51,2.42-.78.76-1.56,1.51-2.33,2.24-1.14,1.06-2.19,1.61-3.18,1.63-.98.02-2.06-.48-3.22-1.5-1-.86-2.01-1.73-3.04-2.6-1.03-.86-2.08-1.77-3.16-2.71-.08.21-.15.67-.2,1.37-.04.69-.09,1.53-.13,2.53-.03,1-.06,2.05-.09,3.16-.03,1.11-.06,2.19-.07,3.25-.02,1.06-.03,1.99-.04,2.78-.02.51-.06,1.02-.11,1.52-.06.49-.2.9-.43,1.23-.21.32-.55.48-1.03.47Z"/>
      <path class="cls-1" d="M789.18,106.1c-.75-.12-1.32-.27-1.72-.45-.4-.19-.68-.48-.83-.87-.15-.4-.23-.97-.25-1.7-.02-1.34.01-2.67.09-4.01.09-1.34.14-2.67.16-4.01.01-.88.07-1.77.16-2.66s.15-1.78.18-2.66c.03-.88-.06-1.76-.25-2.64-.09-.43-.02-.73.2-.9.22-.18.48-.32.78-.43.59-.22,1.21-.36,1.86-.4.64-.04,1.26-.05,1.88-.02.81.04,1.71.09,2.73.13,1.01.04,2.04.1,3.07.16,1.04.04,2,.1,2.89.16.9.04,1.64.09,2.24.13.59.04.95.09,1.07.13.3.08.55.2.76.38.21.18.31.42.31.72-.03.39-.17.67-.4.85-.24.17-.54.26-.9.27-.87.02-1.73.02-2.6.02s-1.73-.05-2.6-.16c-1.25-.15-2.52-.23-3.78-.27-1.25-.04-2.51-.07-3.76-.07-.46,0-.79.1-.98.29-.18.18-.23.5-.16.96.09.6.16,1.19.2,1.77s.07,1.17.09,1.77c.01.51.12.86.34,1.05.22.18.59.24,1.12.18,1.44-.22,2.9-.31,4.36-.27,1.46.03,2.91.12,4.34.27.23.02.5.02.78,0,.3-.03.55.01.76.11.22.11.34.35.34.72,0,.35-.11.58-.34.69-.21.12-.46.19-.76.2-.29.02-.55.06-.78.11-1.31.27-2.64.47-3.98.6-1.33.12-2.66.2-3.98.25-.64.03-1.11.08-1.39.13-.27.06-.44.22-.49.49-.04.26-.08.69-.09,1.3v2.84c-.02.55,0,.96.04,1.21.04.24.18.38.43.43.25.03.68.04,1.28.04.25,0,.7,0,1.37-.02.65-.03,1.4-.04,2.24-.04.85-.01,1.69-.02,2.53-.02s1.57.02,2.22.04c.64.02,1.08.04,1.32.07.31.06.63.13.96.2.32.06.59.19.81.38.22.2.32.49.31.9-.03.39-.17.67-.4.85-.22.18-.5.31-.83.38-.31.08-.63.15-.94.22-.27.04-.71.1-1.32.16-.62.04-1.33.08-2.15.11-.81.03-1.65.04-2.53.04-.87.01-1.71.01-2.53,0-.81,0-1.52-.01-2.13-.04-.62-.03-1.06-.06-1.34-.09Z"/>
      <path class="cls-1" d="M808.65,106.1c-.75-.12-1.32-.27-1.72-.45-.4-.19-.68-.48-.83-.87-.15-.4-.23-.97-.25-1.7-.02-1.34.01-2.67.09-4.01.09-1.34.14-2.67.16-4.01.01-.88.07-1.77.16-2.66s.15-1.78.18-2.66c.03-.88-.06-1.76-.25-2.64-.09-.43-.02-.73.2-.9.22-.18.48-.32.78-.43.59-.22,1.21-.36,1.86-.4.64-.04,1.26-.05,1.88-.02.81.04,1.71.09,2.73.13,1.01.04,2.04.1,3.07.16,1.04.04,2,.1,2.89.16.9.04,1.64.09,2.24.13.59.04.95.09,1.07.13.3.08.55.2.76.38.21.18.31.42.31.72-.03.39-.17.67-.4.85-.24.17-.54.26-.9.27-.87.02-1.73.02-2.6.02s-1.73-.05-2.6-.16c-1.25-.15-2.52-.23-3.78-.27-1.25-.04-2.51-.07-3.76-.07-.46,0-.79.1-.98.29-.18.18-.23.5-.16.96.09.6.16,1.19.2,1.77s.07,1.17.09,1.77c.01.51.12.86.34,1.05.22.18.59.24,1.12.18,1.44-.22,2.9-.31,4.36-.27,1.46.03,2.91.12,4.34.27.23.02.5.02.78,0,.3-.03.55.01.76.11.22.11.34.35.34.72,0,.35-.11.58-.34.69-.21.12-.46.19-.76.2-.29.02-.55.06-.78.11-1.31.27-2.64.47-3.98.6-1.33.12-2.66.2-3.98.25-.64.03-1.11.08-1.39.13-.27.06-.44.22-.49.49-.04.26-.08.69-.09,1.3v2.84c-.02.55,0,.96.04,1.21.04.24.18.38.43.43.25.03.68.04,1.28.04.25,0,.7,0,1.37-.02.65-.03,1.4-.04,2.24-.04.85-.01,1.69-.02,2.53-.02s1.57.02,2.22.04c.64.02,1.08.04,1.32.07.31.06.63.13.96.2.32.06.59.19.81.38.22.2.32.49.31.9-.03.39-.17.67-.4.85-.22.18-.5.31-.83.38-.31.08-.63.15-.94.22-.27.04-.71.1-1.32.16-.62.04-1.33.08-2.15.11-.81.03-1.65.04-2.53.04-.87.01-1.71.01-2.53,0-.81,0-1.52-.01-2.13-.04-.62-.03-1.06-.06-1.34-.09Z"/>
      <path class="cls-1" d="M836.33,107.42c-.27-.02-.46-.11-.58-.27-.12-.17-.2-.36-.25-.58-.03-.22-.06-.41-.09-.58-.4-2.67-.74-5.33-1.01-7.99-.27-2.65-.32-5.33-.16-8.01.03-.45-.04-.77-.2-.96-.15-.21-.46-.32-.94-.34-.58-.03-1.23-.06-1.92-.09-.7-.04-1.4-.1-2.1-.18-.7-.07-1.34-.16-1.9-.27-.57-.1-1-.25-1.28-.43-.44-.28-.63-.68-.58-1.21.06-.55.35-.88.87-.98.34-.09.93-.14,1.77-.16.85-.03,1.85-.01,3,.04,1.16.04,2.37.12,3.63.22,1.25.09,2.45.2,3.6.31,1.16.11,2.18.22,3.04.36.88.12,1.5.25,1.86.38.25.06.46.17.63.34.16.17.22.4.18.69-.02.27-.11.48-.27.63-.17.15-.37.26-.63.34-.62.18-1.23.26-1.86.25-.63-.01-1.26-.02-1.9-.02-.57,0-1.02-.01-1.34-.04-.31-.03-.54.01-.67.11-.13.09-.22.31-.25.65-.02.33-.02.84,0,1.52,0,.26.01.72.04,1.39.04.67.09,1.48.13,2.42s.08,1.92.11,2.95c.04,1.03.07,2.03.09,3,.03.96.04,1.81.04,2.55s-.02,1.27-.07,1.61c-.04.33-.08.68-.09,1.05-.02.36-.09.66-.22.92-.12.27-.35.39-.69.38Z"/>
      <path class="cls-1" d="M846.57,106.24c-.49.01-.82-.15-.98-.49-.17-.34-.27-.72-.31-1.12l-.02-1.16c.04-1.55.09-2.95.13-4.21.04-1.26.11-2.51.2-3.74.1-1.24.23-2.55.38-3.94.15-1.39.34-2.97.58-4.74.15-.31.36-.47.63-.47s.48.13.65.4c.19.3.3.6.31.92.03.3.05.6.07.9.04,1.3.05,2.64.02,4.01-.02,1.38-.11,2.93-.27,4.66v6.58c0,.39-.03.77-.09,1.14-.06.36-.2.66-.4.9-.2.24-.49.37-.9.38Z"/>
      <path class="cls-1" d="M850.83,107.56c-.87.1-1.28-.6-1.23-2.13.04-.83.09-1.66.13-2.48.04-.82.13-1.63.27-2.44.32-1.82.6-3.65.83-5.48.22-1.85.32-3.7.31-5.55v-.45c.01-.16.03-.32.04-.49.21-1.25.79-1.51,1.75-.76.95.72,1.79,1.54,2.51,2.46.72.94,1.53,1.96,2.44,3.04.91,1.09,1.84,2.18,2.8,3.27.97,1.07,1.87,2.06,2.71,2.95.85.88,1.56,1.61,2.13,2.19.58.57.95.87,1.12.92.04-.76.07-1.5.07-2.22.01-.73-.04-1.46-.18-2.19-.15-1.16-.2-2.32-.13-3.47.06-1.15.16-2.29.29-3.42.13-1.15.23-2.29.29-3.45.01-.25.08-.48.2-.69.13-.21.34-.32.6-.34.34-.04.57.06.69.29.13.24.21.5.25.78,0,0,.01.25.04.74.03.48.07,1.13.11,1.95.04.81.09,1.72.13,2.73.06,1.02.11,2.06.16,3.13.06,1.07.1,2.12.13,3.13.04,1,.07,1.9.09,2.71.03.81.03,1.43,0,1.88-.02.6-.08,1.16-.18,1.68-.11.52-.26.95-.47,1.28-.21.34-.49.54-.83.58-.35.04-.76-.13-1.25-.51-.3-.24-.58-.51-.83-.83-.26-.3-.51-.59-.76-.9-.64-.79-1.38-1.69-2.19-2.71-.81-1.01-1.63-2.06-2.48-3.13-.85-1.09-1.69-2.14-2.51-3.16-.82-1.03-1.58-1.95-2.28-2.75-.69-.82-1.28-1.46-1.77-1.92-.48-.46-.82-.68-1.01-.65-.09,1.76-.2,3.54-.31,5.33-.11,1.79-.2,3.58-.29,5.37-.02.49-.02,1.05,0,1.66.03.62.02,1.22-.02,1.81-.03.6-.15,1.1-.36,1.5-.21.41-.55.66-1.01.74Z"/>
      <path class="cls-1" d="M891.83,106.32c-.35.01-.6-.1-.76-.34-.15-.25-.28-.58-.38-.98-.09-.41-.2-.87-.31-1.37-1.27,1.06-2.63,1.81-4.07,2.26-1.45.43-2.9.59-4.36.49-1.45-.11-2.84-.44-4.16-1.01-1.31-.58-2.5-1.35-3.54-2.33-1.03-.97-1.86-2.09-2.48-3.38-.62-1.28-.94-2.69-.98-4.21-.03-1.49.21-2.84.72-4.05.52-1.22,1.26-2.29,2.22-3.2.97-.91,2.08-1.66,3.33-2.26,1.94-.9,3.92-1.26,5.95-1.12,2.03.15,3.98.78,5.86,1.9.57.33,1.09.76,1.57,1.3.48.53.86,1.07,1.16,1.66.3.57.45,1.09.47,1.57.01.46-.16.78-.51.96-.35.18-.6.18-.78,0-.18-.19-.35-.41-.51-.65-1.12-1.68-2.43-2.8-3.92-3.36-1.48-.57-3.3-.63-5.46-.2-1.03.2-2.03.64-2.98,1.34-.94.69-1.74,1.52-2.39,2.51-.66.97-1.1,1.99-1.32,3.07-.22,1.2-.15,2.34.22,3.45.37,1.11.97,2.1,1.81,3,.83.88,1.8,1.61,2.89,2.17,1.1.55,2.27.89,3.49,1.01,1.22.11,2.42-.07,3.58-.54,2.25-.94,3.54-2.58,3.87-4.92.12-.73.08-1.23-.11-1.5-.2-.28-.65-.48-1.37-.6-.37-.07-.77-.14-1.19-.2-.4-.06-.73-.18-.98-.38-.24-.19-.35-.51-.31-.96.03-.43.27-.73.72-.9.46-.16,1.02-.22,1.68-.18.67.03,1.37.13,2.08.31s1.37.4,1.95.67c.34.15.59.38.76.69.18.3.28.65.31,1.05.04.63.05,1.34.02,2.15-.02.79-.08,1.6-.18,2.42-.09.81-.21,1.56-.36,2.26-.15.69-.33,1.25-.54,1.68-.21.44-.44.67-.69.72Z"/>
      <path class="cls-1" d="M911.71,105.72c-.98.49-2.08.82-3.27.98-1.18.18-2.39.23-3.63.16-1.24-.06-2.48-.2-3.72-.43-1.24-.22-2.42-.48-3.54-.76-.91-.25-1.59-.69-2.04-1.32s-.63-1.34-.54-2.15c.04-.23.1-.46.16-.67.06-.22.22-.39.49-.49.25-.09.48-.09.67,0,.21.08.41.2.6.36.85.7,1.77,1.28,2.78,1.72,1.01.45,2.04.78,3.07,1.01,1.04.22,2.05.35,3.02.38.98.03,1.86-.02,2.62-.16s1.37-.34,1.84-.63c.58-.34.97-.77,1.19-1.28.21-.52.21-1.04.02-1.57-.18-.54-.57-.97-1.16-1.32-1.05-.61-2.08-1.06-3.09-1.37-1-.3-2-.54-3-.74-.98-.19-1.97-.41-2.95-.67-.98-.27-1.99-.68-3-1.23-1.06-.59-1.81-1.32-2.24-2.17-.44-.86-.62-1.75-.54-2.64.09-.91.39-1.75.9-2.51.52-.77,1.21-1.38,2.06-1.81,2.97-1.53,6.02-1.7,9.15-.49,1.04.39,1.85,1,2.42,1.81.58.81.98,1.74,1.21,2.8.06.24.07.48.04.72-.02.22-.17.4-.45.54-.24.09-.48.02-.72-.2-.22-.22-.45-.5-.67-.85-.22-.36-.45-.68-.67-.98-.53-.73-1.23-1.28-2.1-1.66-.87-.39-1.79-.59-2.78-.6-.97-.01-1.9.15-2.78.49-.88.35-1.59.87-2.13,1.57-.45.57-.64,1.15-.58,1.75.07.6.4,1.11.98,1.54.16.11.53.27,1.1.49.58.22,1.29.49,2.13.78.83.29,1.72.58,2.66.9.95.31,1.88.64,2.78.96.91.31,1.71.6,2.39.85.7.26,1.21.47,1.54.65.82.45,1.45,1.02,1.9,1.7.46.69.67,1.52.63,2.48-.03.96-.29,1.77-.78,2.44-.48.66-1.14,1.2-1.99,1.61Z"/>
    </g>
  </g>
</svg>