<svg xmlns="http://www.w3.org/2000/svg" xmlns:xlink="http://www.w3.org/1999/xlink" width="973" zoomAndPan="magnify" viewBox="0 0 729.75 98.999996" height="132" preserveAspectRatio="xMidYMid meet" version="1.2"><defs/><g id="cae5e1e4a1"><g style="fill:#ffffff;fill-opacity:1;"><g transform="translate(11.770248, 53.586845)"><path style="stroke:none" d="M 2.578125 -4.765625 C 2.140625 -5.734375 1.921875 -6.742188 1.921875 -7.796875 L 1.921875 -28.3125 C 1.921875 -28.332031 1.925781 -28.347656 1.9375 -28.359375 C 1.945312 -28.367188 1.953125 -28.390625 1.953125 -28.421875 L 1.921875 -28.421875 C 1.921875 -30.671875 2.550781 -32.488281 3.8125 -33.875 C 5.082031 -35.257812 6.726562 -36.003906 8.75 -36.109375 L 24.203125 -36.109375 L 24.203125 -34.0625 C 24.203125 -32.832031 23.925781 -31.71875 23.375 -30.71875 C 22.820312 -29.726562 22.046875 -28.941406 21.046875 -28.359375 C 20.046875 -27.785156 18.867188 -27.5 17.515625 -27.5 L 17.515625 -28.421875 L 12.25 -28.421875 C 11.707031 -28.367188 11.222656 -28.144531 10.796875 -27.75 C 10.378906 -27.351562 10.125 -26.882812 10.03125 -26.34375 C 10 -26.21875 9.984375 -26.101562 9.984375 -26 L 9.984375 -23.5 C 9.984375 -23.394531 10 -23.28125 10.03125 -23.15625 L 10.03125 -9.671875 C 10.125 -9.085938 10.347656 -8.609375 10.703125 -8.234375 C 11.066406 -7.867188 11.554688 -7.6875 12.171875 -7.6875 L 20.390625 -7.6875 L 20.390625 -13.140625 C 20.390625 -13.367188 20.40625 -13.609375 20.4375 -13.859375 C 18.820312 -14.171875 17.53125 -14.894531 16.5625 -16.03125 C 15.601562 -17.175781 15.125 -18.707031 15.125 -20.625 L 22.703125 -20.625 C 23.847656 -20.625 24.765625 -20.414062 25.453125 -20 C 26.148438 -19.59375 26.65625 -19.066406 26.96875 -18.421875 C 27.289062 -17.785156 27.5 -17.097656 27.59375 -16.359375 C 27.6875 -15.617188 27.71875 -14.910156 27.6875 -14.234375 C 27.664062 -13.554688 27.65625 -12.984375 27.65625 -12.515625 L 27.609375 -6.984375 C 27.609375 -5.753906 27.335938 -4.65625 26.796875 -3.6875 C 26.265625 -2.71875 25.546875 -1.910156 24.640625 -1.265625 C 23.734375 -0.628906 22.738281 -0.207031 21.65625 0 L 9.671875 -0.03125 C 8.804688 -0.113281 7.984375 -0.300781 7.203125 -0.59375 C 6.421875 -0.882812 5.707031 -1.273438 5.0625 -1.765625 C 4.53125 -2.148438 4.050781 -2.597656 3.625 -3.109375 C 3.207031 -3.617188 2.859375 -4.171875 2.578125 -4.765625 Z M 2.578125 -4.765625 "/></g></g><g style="fill:#ffffff;fill-opacity:1;"><g transform="translate(41.454143, 53.586845)"><path style="stroke:none" d="M 27.6875 -32.953125 C 28.050781 -32.390625 28.332031 -31.769531 28.53125 -31.09375 C 28.738281 -30.414062 28.84375 -29.703125 28.84375 -28.953125 L 28.84375 -7.375 C 28.84375 -5.9375 28.484375 -4.660156 27.765625 -3.546875 C 27.046875 -2.429688 26.078125 -1.53125 24.859375 -0.84375 C 23.648438 -0.15625 22.316406 0.253906 20.859375 0.390625 C 20.390625 0.429688 19.71875 0.460938 18.84375 0.484375 C 17.976562 0.515625 17.097656 0.535156 16.203125 0.546875 C 15.304688 0.566406 14.601562 0.578125 14.09375 0.578125 C 13.351562 0.578125 12.632812 0.554688 11.9375 0.515625 C 11.25 0.472656 10.585938 0.429688 9.953125 0.390625 C 8.847656 0.304688 7.800781 0.0820312 6.8125 -0.28125 C 5.832031 -0.65625 4.984375 -1.203125 4.265625 -1.921875 C 3.703125 -2.378906 3.316406 -2.863281 3.109375 -3.375 C 2.722656 -3.96875 2.425781 -4.601562 2.21875 -5.28125 C 2.019531 -5.957031 1.921875 -6.65625 1.921875 -7.375 L 1.921875 -28.953125 C 1.921875 -30.390625 2.285156 -31.664062 3.015625 -32.78125 C 3.742188 -33.894531 4.707031 -34.796875 5.90625 -35.484375 C 7.113281 -36.179688 8.460938 -36.59375 9.953125 -36.71875 C 11.359375 -36.875 12.800781 -36.953125 14.28125 -36.953125 C 14.769531 -36.953125 15.445312 -36.9375 16.3125 -36.90625 C 17.1875 -36.882812 18.050781 -36.859375 18.90625 -36.828125 C 19.769531 -36.804688 20.421875 -36.769531 20.859375 -36.71875 C 21.953125 -36.632812 22.992188 -36.40625 23.984375 -36.03125 C 24.972656 -35.664062 25.820312 -35.125 26.53125 -34.40625 C 27.101562 -33.945312 27.488281 -33.460938 27.6875 -32.953125 Z M 20.859375 -9.828125 L 20.859375 -26.6875 C 20.753906 -27.300781 20.515625 -27.796875 20.140625 -28.171875 C 19.773438 -28.546875 19.269531 -28.734375 18.625 -28.734375 L 12.140625 -28.765625 C 11.523438 -28.765625 11.023438 -28.570312 10.640625 -28.1875 C 10.253906 -27.800781 10.023438 -27.316406 9.953125 -26.734375 L 9.953125 -9.828125 C 10.023438 -9.242188 10.253906 -8.757812 10.640625 -8.375 C 11.023438 -7.988281 11.535156 -7.796875 12.171875 -7.796875 L 18.625 -7.796875 C 19.269531 -7.796875 19.773438 -7.988281 20.140625 -8.375 C 20.515625 -8.757812 20.753906 -9.242188 20.859375 -9.828125 Z M 20.859375 -9.828125 "/></g></g><g style="fill:#ffffff;fill-opacity:1;"><g transform="translate(71.176202, 53.586845)"><path style="stroke:none" d="M 27.6875 -32.953125 C 28.050781 -32.390625 28.332031 -31.769531 28.53125 -31.09375 C 28.738281 -30.414062 28.84375 -29.703125 28.84375 -28.953125 L 28.84375 -7.375 C 28.84375 -5.9375 28.484375 -4.660156 27.765625 -3.546875 C 27.046875 -2.429688 26.078125 -1.53125 24.859375 -0.84375 C 23.648438 -0.15625 22.316406 0.253906 20.859375 0.390625 C 20.390625 0.429688 19.71875 0.460938 18.84375 0.484375 C 17.976562 0.515625 17.097656 0.535156 16.203125 0.546875 C 15.304688 0.566406 14.601562 0.578125 14.09375 0.578125 C 13.351562 0.578125 12.632812 0.554688 11.9375 0.515625 C 11.25 0.472656 10.585938 0.429688 9.953125 0.390625 C 8.847656 0.304688 7.800781 0.0820312 6.8125 -0.28125 C 5.832031 -0.65625 4.984375 -1.203125 4.265625 -1.921875 C 3.703125 -2.378906 3.316406 -2.863281 3.109375 -3.375 C 2.722656 -3.96875 2.425781 -4.601562 2.21875 -5.28125 C 2.019531 -5.957031 1.921875 -6.65625 1.921875 -7.375 L 1.921875 -28.953125 C 1.921875 -30.390625 2.285156 -31.664062 3.015625 -32.78125 C 3.742188 -33.894531 4.707031 -34.796875 5.90625 -35.484375 C 7.113281 -36.179688 8.460938 -36.59375 9.953125 -36.71875 C 11.359375 -36.875 12.800781 -36.953125 14.28125 -36.953125 C 14.769531 -36.953125 15.445312 -36.9375 16.3125 -36.90625 C 17.1875 -36.882812 18.050781 -36.859375 18.90625 -36.828125 C 19.769531 -36.804688 20.421875 -36.769531 20.859375 -36.71875 C 21.953125 -36.632812 22.992188 -36.40625 23.984375 -36.03125 C 24.972656 -35.664062 25.820312 -35.125 26.53125 -34.40625 C 27.101562 -33.945312 27.488281 -33.460938 27.6875 -32.953125 Z M 20.859375 -9.828125 L 20.859375 -26.6875 C 20.753906 -27.300781 20.515625 -27.796875 20.140625 -28.171875 C 19.773438 -28.546875 19.269531 -28.734375 18.625 -28.734375 L 12.140625 -28.765625 C 11.523438 -28.765625 11.023438 -28.570312 10.640625 -28.1875 C 10.253906 -27.800781 10.023438 -27.316406 9.953125 -26.734375 L 9.953125 -9.828125 C 10.023438 -9.242188 10.253906 -8.757812 10.640625 -8.375 C 11.023438 -7.988281 11.535156 -7.796875 12.171875 -7.796875 L 18.625 -7.796875 C 19.269531 -7.796875 19.773438 -7.988281 20.140625 -8.375 C 20.515625 -8.757812 20.753906 -9.242188 20.859375 -9.828125 Z M 20.859375 -9.828125 "/></g></g><g style="fill:#ffffff;fill-opacity:1;"><g transform="translate(101.628042, 53.586845)"><path style="stroke:none" d="M 2.578125 -4.84375 C 2.140625 -5.8125 1.921875 -6.832031 1.921875 -7.90625 L 1.921875 -28.421875 C 1.921875 -28.421875 1.925781 -28.429688 1.9375 -28.453125 C 1.945312 -28.484375 1.953125 -28.5 1.953125 -28.5 L 1.921875 -28.5 C 1.921875 -30.78125 2.546875 -32.601562 3.796875 -33.96875 C 5.054688 -35.34375 6.707031 -36.078125 8.75 -36.171875 L 8.75 -36.21875 L 24.15625 -36.21875 L 24.15625 -34.140625 C 24.15625 -32.910156 23.882812 -31.796875 23.34375 -30.796875 C 22.8125 -29.796875 22.046875 -29.007812 21.046875 -28.4375 C 20.046875 -27.863281 18.867188 -27.578125 17.515625 -27.578125 L 17.515625 -28.5 L 12.25 -28.5 C 11.707031 -28.445312 11.222656 -28.226562 10.796875 -27.84375 C 10.378906 -27.457031 10.125 -26.984375 10.03125 -26.421875 C 10 -26.296875 9.984375 -26.179688 9.984375 -26.078125 L 9.984375 -23.625 C 9.984375 -23.488281 10 -23.359375 10.03125 -23.234375 L 10.03125 -9.796875 C 10.125 -9.203125 10.347656 -8.71875 10.703125 -8.34375 C 11.066406 -7.976562 11.554688 -7.796875 12.171875 -7.796875 L 20.359375 -7.796875 L 20.359375 -13.21875 C 20.359375 -13.46875 20.382812 -13.722656 20.4375 -13.984375 C 18.820312 -14.265625 17.53125 -14.972656 16.5625 -16.109375 C 15.601562 -17.253906 15.125 -18.785156 15.125 -20.703125 L 22.65625 -20.703125 C 23.832031 -20.703125 24.757812 -20.503906 25.4375 -20.109375 C 26.125 -19.710938 26.628906 -19.1875 26.953125 -18.53125 C 27.285156 -17.875 27.5 -17.179688 27.59375 -16.453125 C 27.6875 -15.722656 27.71875 -15.007812 27.6875 -14.3125 C 27.664062 -13.625 27.65625 -13.050781 27.65625 -12.59375 L 27.609375 -7.109375 C 27.609375 -5.878906 27.332031 -4.769531 26.78125 -3.78125 C 26.238281 -2.789062 25.519531 -1.976562 24.625 -1.34375 C 23.726562 -0.707031 22.738281 -0.296875 21.65625 -0.109375 L 9.671875 -0.109375 C 8.804688 -0.191406 7.984375 -0.382812 7.203125 -0.6875 C 6.421875 -1 5.707031 -1.382812 5.0625 -1.84375 C 4.53125 -2.25 4.050781 -2.703125 3.625 -3.203125 C 3.207031 -3.703125 2.859375 -4.25 2.578125 -4.84375 Z M 2.578125 -4.84375 "/></g></g><g style="fill:#ffffff;fill-opacity:1;"><g transform="translate(131.350341, 53.586845)"><path style="stroke:none" d="M 10.40625 -36.171875 L 10.40625 -8.5625 L 25.046875 -8.5625 C 25.046875 -7 24.691406 -5.578125 23.984375 -4.296875 C 23.273438 -3.015625 22.332031 -1.992188 21.15625 -1.234375 C 19.976562 -0.484375 18.6875 -0.109375 17.28125 -0.109375 L 1.921875 -0.109375 C 1.921875 -0.109375 1.925781 -0.113281 1.9375 -0.125 C 1.945312 -0.144531 1.953125 -0.164062 1.953125 -0.1875 C 1.953125 -0.1875 1.941406 -0.1875 1.921875 -0.1875 L 1.921875 -28.421875 C 1.921875 -29.859375 2.300781 -31.164062 3.0625 -32.34375 C 3.832031 -33.519531 4.859375 -34.453125 6.140625 -35.140625 C 7.421875 -35.828125 8.84375 -36.171875 10.40625 -36.171875 Z M 10.40625 -36.171875 "/></g></g><g style="fill:#ffffff;fill-opacity:1;"><g transform="translate(156.617746, 53.586845)"><path style="stroke:none" d="M 9.875 -14.359375 L 9.875 -8.640625 L 23.578125 -8.640625 C 23.578125 -7.054688 23.207031 -5.613281 22.46875 -4.3125 C 21.726562 -3.019531 20.726562 -1.992188 19.46875 -1.234375 C 18.21875 -0.484375 16.8125 -0.109375 15.25 -0.109375 L 9.671875 -0.109375 C 8.160156 -0.109375 6.789062 -0.472656 5.5625 -1.203125 C 4.332031 -1.929688 3.347656 -2.910156 2.609375 -4.140625 C 1.867188 -5.367188 1.5 -6.738281 1.5 -8.25 L 1.5 -27.953125 C 1.5 -29.492188 1.875 -30.890625 2.625 -32.140625 C 3.382812 -33.398438 4.390625 -34.40625 5.640625 -35.15625 C 6.898438 -35.914062 8.296875 -36.296875 9.828125 -36.296875 L 25.421875 -36.296875 C 25.421875 -34.734375 25.09375 -33.304688 24.4375 -32.015625 C 23.789062 -30.722656 22.882812 -29.691406 21.71875 -28.921875 C 20.550781 -28.148438 19.1875 -27.765625 17.625 -27.765625 L 9.875 -27.765625 L 9.875 -22.28125 L 20.046875 -22.28125 L 18.203125 -14.359375 Z M 9.875 -14.359375 "/></g></g><g style="fill:#ffffff;fill-opacity:1;"><g transform="translate(183.613578, 53.586845)"><path style="stroke:none" d=""/></g></g><g style="fill:#ffffff;fill-opacity:1;"><g transform="translate(195.133854, 53.586845)"><path style="stroke:none" d="M 2.109375 -4.609375 C 1.671875 -5.578125 1.453125 -6.601562 1.453125 -7.6875 L 1.453125 -28.34375 C 1.453125 -28.363281 1.453125 -28.378906 1.453125 -28.390625 C 1.453125 -28.410156 1.453125 -28.429688 1.453125 -28.453125 C 1.453125 -30.734375 2.085938 -32.566406 3.359375 -33.953125 C 4.628906 -35.335938 6.285156 -36.078125 8.328125 -36.171875 L 8.328125 -36.21875 L 23.890625 -36.21875 L 23.890625 -34.140625 C 23.890625 -32.890625 23.613281 -31.765625 23.0625 -30.765625 C 22.507812 -29.765625 21.726562 -28.96875 20.71875 -28.375 C 19.707031 -27.789062 18.523438 -27.5 17.171875 -27.5 L 17.171875 -28.453125 L 11.875 -28.453125 C 11.332031 -28.378906 10.84375 -28.148438 10.40625 -27.765625 C 9.96875 -27.378906 9.695312 -26.90625 9.59375 -26.34375 C 9.59375 -26.21875 9.59375 -26.101562 9.59375 -26 L 9.59375 -23.5 C 9.59375 -23.394531 9.59375 -23.269531 9.59375 -23.125 L 9.59375 -9.5625 C 9.695312 -8.976562 9.9375 -8.5 10.3125 -8.125 C 10.6875 -7.75 11.179688 -7.5625 11.796875 -7.5625 L 24.078125 -7.5625 C 24.078125 -5.976562 23.71875 -4.609375 23 -3.453125 C 22.289062 -2.304688 21.335938 -1.410156 20.140625 -0.765625 C 18.953125 -0.128906 17.640625 0.1875 16.203125 0.1875 L 9.296875 0.1875 L 9.25 0.15625 C 8.382812 0.0703125 7.550781 -0.113281 6.75 -0.40625 C 5.957031 -0.695312 5.242188 -1.085938 4.609375 -1.578125 C 4.066406 -1.984375 3.582031 -2.441406 3.15625 -2.953125 C 2.738281 -3.460938 2.390625 -4.015625 2.109375 -4.609375 Z M 2.109375 -4.609375 "/></g></g><g style="fill:#ffffff;fill-opacity:1;"><g transform="translate(221.668876, 53.586845)"><path style="stroke:none" d="M 20.203125 -31.1875 L 27.890625 -0.34375 C 26.453125 0.0078125 25.066406 0.0078125 23.734375 -0.34375 C 22.398438 -0.707031 21.253906 -1.34375 20.296875 -2.25 C 19.335938 -3.15625 18.703125 -4.257812 18.390625 -5.5625 L 17.96875 -7.265625 L 17.78125 -8.109375 L 10.328125 -8.109375 L 10.140625 -7.265625 L 9.71875 -5.5625 C 9.40625 -4.257812 8.769531 -3.15625 7.8125 -2.25 C 6.851562 -1.34375 5.707031 -0.707031 4.375 -0.34375 C 3.039062 0.0078125 1.660156 0.0078125 0.234375 -0.34375 L 7.90625 -31.1875 C 8.375 -33.03125 9.4375 -34.4375 11.09375 -35.40625 C 12.019531 -35.914062 13.007812 -36.171875 14.0625 -36.171875 C 15.101562 -36.171875 16.085938 -35.914062 17.015625 -35.40625 C 18.679688 -34.4375 19.742188 -33.03125 20.203125 -31.1875 Z M 11.671875 -14.515625 L 16.46875 -14.515625 L 14.0625 -26.046875 Z M 11.671875 -14.515625 "/></g></g><g style="fill:#ffffff;fill-opacity:1;"><g transform="translate(249.50945, 53.586845)"><path style="stroke:none" d="M 10.40625 -36.171875 L 10.40625 -8.5625 L 25.046875 -8.5625 C 25.046875 -7 24.691406 -5.578125 23.984375 -4.296875 C 23.273438 -3.015625 22.332031 -1.992188 21.15625 -1.234375 C 19.976562 -0.484375 18.6875 -0.109375 17.28125 -0.109375 L 1.921875 -0.109375 C 1.921875 -0.109375 1.925781 -0.113281 1.9375 -0.125 C 1.945312 -0.144531 1.953125 -0.164062 1.953125 -0.1875 C 1.953125 -0.1875 1.941406 -0.1875 1.921875 -0.1875 L 1.921875 -28.421875 C 1.921875 -29.859375 2.300781 -31.164062 3.0625 -32.34375 C 3.832031 -33.519531 4.859375 -34.453125 6.140625 -35.140625 C 7.421875 -35.828125 8.84375 -36.171875 10.40625 -36.171875 Z M 10.40625 -36.171875 "/></g></g><g style="fill:#ffffff;fill-opacity:1;"><g transform="translate(274.776855, 53.586845)"><path style="stroke:none" d="M 9.875 -14.359375 L 9.875 -8.640625 L 23.578125 -8.640625 C 23.578125 -7.054688 23.207031 -5.613281 22.46875 -4.3125 C 21.726562 -3.019531 20.726562 -1.992188 19.46875 -1.234375 C 18.21875 -0.484375 16.8125 -0.109375 15.25 -0.109375 L 9.671875 -0.109375 C 8.160156 -0.109375 6.789062 -0.472656 5.5625 -1.203125 C 4.332031 -1.929688 3.347656 -2.910156 2.609375 -4.140625 C 1.867188 -5.367188 1.5 -6.738281 1.5 -8.25 L 1.5 -27.953125 C 1.5 -29.492188 1.875 -30.890625 2.625 -32.140625 C 3.382812 -33.398438 4.390625 -34.40625 5.640625 -35.15625 C 6.898438 -35.914062 8.296875 -36.296875 9.828125 -36.296875 L 25.421875 -36.296875 C 25.421875 -34.734375 25.09375 -33.304688 24.4375 -32.015625 C 23.789062 -30.722656 22.882812 -29.691406 21.71875 -28.921875 C 20.550781 -28.148438 19.1875 -27.765625 17.625 -27.765625 L 9.875 -27.765625 L 9.875 -22.28125 L 20.046875 -22.28125 L 18.203125 -14.359375 Z M 9.875 -14.359375 "/></g></g><g style="fill:#ffffff;fill-opacity:1;"><g transform="translate(299.46811, 53.586845)"><path style="stroke:none" d="M 24.34375 -28.421875 C 24.34375 -29.859375 24.710938 -31.164062 25.453125 -32.34375 C 26.203125 -33.519531 27.179688 -34.460938 28.390625 -35.171875 C 29.609375 -35.890625 30.9375 -36.25 32.375 -36.25 L 32.375 -7.796875 C 32.375 -6.359375 32.007812 -5.046875 31.28125 -3.859375 C 30.550781 -2.671875 29.578125 -1.71875 28.359375 -1 C 27.140625 -0.28125 25.800781 0.078125 24.34375 0.078125 L 24.34375 -2.765625 L 9.75 -22.3125 L 9.75 -7.765625 C 9.75 -6.328125 9.394531 -5.007812 8.6875 -3.8125 C 7.988281 -2.625 7.050781 -1.675781 5.875 -0.96875 C 4.695312 -0.269531 3.378906 0.078125 1.921875 0.078125 L 1.921875 -28.421875 C 1.921875 -29.859375 2.28125 -31.164062 3 -32.34375 C 3.71875 -33.519531 4.664062 -34.460938 5.84375 -35.171875 C 7.019531 -35.890625 8.320312 -36.25 9.75 -36.25 L 24.34375 -15.203125 Z M 24.34375 -28.421875 "/></g></g><g style="fill:#ffffff;fill-opacity:1;"><g transform="translate(333.491227, 53.586845)"><path style="stroke:none" d="M 14.859375 -36.640625 C 17.367188 -36.640625 19.628906 -36.113281 21.640625 -35.0625 C 23.648438 -34.007812 25.238281 -32.488281 26.40625 -30.5 C 27.570312 -28.519531 28.15625 -26.125 28.15625 -23.3125 L 28.15625 -12.09375 C 28.15625 -10.425781 27.820312 -8.859375 27.15625 -7.390625 C 26.488281 -5.921875 25.550781 -4.625 24.34375 -3.5 C 23.144531 -2.375 21.738281 -1.484375 20.125 -0.828125 C 18.507812 -0.171875 16.753906 0.15625 14.859375 0.15625 L 2 0.15625 C 1.96875 0.15625 1.953125 0.15625 1.953125 0.15625 C 1.953125 0.15625 1.941406 0.15625 1.921875 0.15625 L 1.921875 -28.6875 C 1.921875 -30.070312 2.21875 -31.332031 2.8125 -32.46875 C 3.414062 -33.613281 4.25 -34.550781 5.3125 -35.28125 C 6.375 -36.007812 7.613281 -36.4375 9.03125 -36.5625 L 9.03125 -36.640625 L 9.90625 -36.640625 C 9.90625 -36.640625 9.910156 -36.640625 9.921875 -36.640625 C 9.941406 -36.640625 9.953125 -36.640625 9.953125 -36.640625 Z M 20.390625 -13.359375 L 20.390625 -23.125 C 20.390625 -24.144531 20.140625 -25.082031 19.640625 -25.9375 C 19.140625 -26.800781 18.472656 -27.5 17.640625 -28.03125 C 16.816406 -28.570312 15.890625 -28.84375 14.859375 -28.84375 L 9.953125 -28.84375 L 9.953125 -7.796875 C 9.953125 -7.773438 9.953125 -7.75 9.953125 -7.71875 C 9.953125 -7.695312 9.953125 -7.671875 9.953125 -7.640625 L 14.859375 -7.640625 C 15.890625 -7.640625 16.816406 -7.898438 17.640625 -8.421875 C 18.472656 -8.953125 19.140625 -9.648438 19.640625 -10.515625 C 20.140625 -11.390625 20.390625 -12.335938 20.390625 -13.359375 Z M 20.390625 -13.359375 "/></g></g><g style="fill:#ffffff;fill-opacity:1;"><g transform="translate(361.446615, 53.586845)"><path style="stroke:none" d="M 20.203125 -31.1875 L 27.890625 -0.34375 C 26.453125 0.0078125 25.066406 0.0078125 23.734375 -0.34375 C 22.398438 -0.707031 21.253906 -1.34375 20.296875 -2.25 C 19.335938 -3.15625 18.703125 -4.257812 18.390625 -5.5625 L 17.96875 -7.265625 L 17.78125 -8.109375 L 10.328125 -8.109375 L 10.140625 -7.265625 L 9.71875 -5.5625 C 9.40625 -4.257812 8.769531 -3.15625 7.8125 -2.25 C 6.851562 -1.34375 5.707031 -0.707031 4.375 -0.34375 C 3.039062 0.0078125 1.660156 0.0078125 0.234375 -0.34375 L 7.90625 -31.1875 C 8.375 -33.03125 9.4375 -34.4375 11.09375 -35.40625 C 12.019531 -35.914062 13.007812 -36.171875 14.0625 -36.171875 C 15.101562 -36.171875 16.085938 -35.914062 17.015625 -35.40625 C 18.679688 -34.4375 19.742188 -33.03125 20.203125 -31.1875 Z M 11.671875 -14.515625 L 16.46875 -14.515625 L 14.0625 -26.046875 Z M 11.671875 -14.515625 "/></g></g><g style="fill:#ffffff;fill-opacity:1;"><g transform="translate(389.863316, 53.586845)"><path style="stroke:none" d="M 21.9375 -12.171875 L 29.109375 -1.453125 C 27.910156 -0.660156 26.660156 -0.210938 25.359375 -0.109375 C 24.066406 -0.015625 22.84375 -0.253906 21.6875 -0.828125 C 20.539062 -1.398438 19.5625 -2.289062 18.75 -3.5 L 13.984375 -10.59375 L 10.375 -10.59375 L 10.375 -10.296875 C 10.375 -8.398438 9.972656 -6.679688 9.171875 -5.140625 C 8.378906 -3.609375 7.320312 -2.382812 6 -1.46875 C 4.6875 -0.5625 3.210938 -0.109375 1.578125 -0.109375 L 1.578125 -28.5 C 1.578125 -29.644531 1.816406 -30.71875 2.296875 -31.71875 C 2.785156 -32.71875 3.429688 -33.601562 4.234375 -34.375 C 5.046875 -35.144531 5.941406 -35.742188 6.921875 -36.171875 C 7.910156 -36.609375 8.90625 -36.828125 9.90625 -36.828125 L 15.171875 -36.828125 C 17.171875 -36.828125 18.972656 -36.535156 20.578125 -35.953125 C 22.222656 -35.390625 23.617188 -34.554688 24.765625 -33.453125 C 25.898438 -32.347656 26.785156 -30.988281 27.421875 -29.375 C 28.035156 -27.769531 28.34375 -25.953125 28.34375 -23.921875 L 28.34375 -23.8125 C 28.34375 -21.632812 28 -19.726562 27.3125 -18.09375 C 26.644531 -16.445312 25.707031 -15.0625 24.5 -13.9375 C 23.726562 -13.25 22.875 -12.660156 21.9375 -12.171875 Z M 10.375 -18.546875 L 14.515625 -18.546875 C 16.109375 -18.546875 17.335938 -18.984375 18.203125 -19.859375 C 19.097656 -20.722656 19.546875 -21.882812 19.546875 -23.34375 L 19.546875 -23.46875 C 19.546875 -25.050781 19.097656 -26.253906 18.203125 -27.078125 C 17.335938 -27.898438 16.097656 -28.3125 14.484375 -28.3125 L 10.375 -28.3125 Z M 10.375 -18.546875 "/></g></g><g style="fill:#ffffff;fill-opacity:1;"><g transform="translate(420.276831, 53.586845)"><path style="stroke:none" d=""/></g></g><g style="fill:#ffffff;fill-opacity:1;"><g transform="translate(431.797085, 53.586845)"><path style="stroke:none" d="M 21.046875 -31.421875 L 29.421875 -0.265625 C 27.984375 0.0859375 26.59375 0.0859375 25.25 -0.265625 C 23.90625 -0.628906 22.742188 -1.265625 21.765625 -2.171875 C 20.796875 -3.078125 20.144531 -4.195312 19.8125 -5.53125 L 19.390625 -7.265625 L 19.234375 -8.109375 L 10.484375 -8.109375 L 10.296875 -7.265625 L 9.875 -5.53125 C 9.539062 -4.195312 8.890625 -3.078125 7.921875 -2.171875 C 6.960938 -1.265625 5.8125 -0.628906 4.46875 -0.265625 C 3.125 0.0859375 1.722656 0.0859375 0.265625 -0.265625 L 8.640625 -31.421875 C 9.097656 -33.285156 10.175781 -34.703125 11.875 -35.671875 C 12.8125 -36.210938 13.804688 -36.484375 14.859375 -36.484375 C 15.910156 -36.484375 16.898438 -36.210938 17.828125 -35.671875 C 19.535156 -34.703125 20.609375 -33.285156 21.046875 -31.421875 Z M 17.890625 -14.59375 L 14.859375 -26.234375 L 11.828125 -14.59375 Z M 17.890625 -14.59375 "/></g></g><g style="fill:#ffffff;fill-opacity:1;"><g transform="translate(461.634609, 53.586845)"><path style="stroke:none" d="M 1.921875 -28.453125 C 1.921875 -29.867188 2.296875 -31.15625 3.046875 -32.3125 C 3.804688 -33.476562 4.828125 -34.410156 6.109375 -35.109375 C 7.390625 -35.816406 8.796875 -36.171875 10.328125 -36.171875 L 10.328125 -7.5625 C 10.328125 -6.132812 9.945312 -4.835938 9.1875 -3.671875 C 8.4375 -2.503906 7.425781 -1.570312 6.15625 -0.875 C 4.894531 -0.1875 3.484375 0.15625 1.921875 0.15625 Z M 1.921875 -28.453125 "/></g></g><g style="fill:#ffffff;fill-opacity:1;"><g transform="translate(473.961303, 53.586845)"><path style="stroke:none" d=""/></g></g><g style="fill:#ffffff;fill-opacity:1;"><g transform="translate(485.481602, 53.586845)"><path style="stroke:none" d="M 21.046875 -31.421875 L 29.421875 -0.265625 C 27.984375 0.0859375 26.59375 0.0859375 25.25 -0.265625 C 23.90625 -0.628906 22.742188 -1.265625 21.765625 -2.171875 C 20.796875 -3.078125 20.144531 -4.195312 19.8125 -5.53125 L 19.390625 -7.265625 L 19.234375 -8.109375 L 10.484375 -8.109375 L 10.296875 -7.265625 L 9.875 -5.53125 C 9.539062 -4.195312 8.890625 -3.078125 7.921875 -2.171875 C 6.960938 -1.265625 5.8125 -0.628906 4.46875 -0.265625 C 3.125 0.0859375 1.722656 0.0859375 0.265625 -0.265625 L 8.640625 -31.421875 C 9.097656 -33.285156 10.175781 -34.703125 11.875 -35.671875 C 12.8125 -36.210938 13.804688 -36.484375 14.859375 -36.484375 C 15.910156 -36.484375 16.898438 -36.210938 17.828125 -35.671875 C 19.535156 -34.703125 20.609375 -33.285156 21.046875 -31.421875 Z M 17.890625 -14.59375 L 14.859375 -26.234375 L 11.828125 -14.59375 Z M 17.890625 -14.59375 "/></g></g><g style="fill:#ffffff;fill-opacity:1;"><g transform="translate(515.319081, 53.586845)"><path style="stroke:none" d="M 23.3125 -17.859375 C 24 -16.929688 24.535156 -15.910156 24.921875 -14.796875 C 25.304688 -13.691406 25.5 -12.535156 25.5 -11.328125 L 25.5 -11.015625 C 25.5 -9.503906 25.21875 -8.085938 24.65625 -6.765625 C 24.09375 -5.453125 23.304688 -4.296875 22.296875 -3.296875 C 21.285156 -2.304688 20.117188 -1.523438 18.796875 -0.953125 C 17.484375 -0.390625 16.070312 -0.109375 14.5625 -0.109375 L 2.234375 -0.109375 C 2.234375 -1.648438 2.578125 -3.039062 3.265625 -4.28125 C 3.953125 -5.519531 4.882812 -6.5 6.0625 -7.21875 C 7.238281 -7.9375 8.535156 -8.296875 9.953125 -8.296875 L 14.5625 -8.296875 C 15.300781 -8.296875 15.9375 -8.5625 16.46875 -9.09375 C 17.007812 -9.632812 17.28125 -10.273438 17.28125 -11.015625 L 17.28125 -11.328125 C 17.28125 -12.046875 17.007812 -12.671875 16.46875 -13.203125 C 15.9375 -13.742188 15.300781 -14.015625 14.5625 -14.015625 L 11.984375 -14.015625 C 10.191406 -14.015625 8.53125 -14.410156 7 -15.203125 C 5.476562 -16.003906 4.21875 -17.066406 3.21875 -18.390625 C 2.53125 -19.316406 1.992188 -20.335938 1.609375 -21.453125 C 1.222656 -22.566406 1.03125 -23.722656 1.03125 -24.921875 L 1.03125 -25.234375 C 1.03125 -26.742188 1.316406 -28.15625 1.890625 -29.46875 C 2.472656 -30.789062 3.265625 -31.953125 4.265625 -32.953125 C 5.265625 -33.953125 6.421875 -34.734375 7.734375 -35.296875 C 9.054688 -35.859375 10.472656 -36.140625 11.984375 -36.140625 L 23.390625 -36.140625 C 23.390625 -34.597656 23.039062 -33.207031 22.34375 -31.96875 C 21.65625 -30.726562 20.726562 -29.75 19.5625 -29.03125 C 18.40625 -28.3125 17.109375 -27.953125 15.671875 -27.953125 L 11.984375 -27.953125 C 11.242188 -27.953125 10.601562 -27.679688 10.0625 -27.140625 C 9.519531 -26.609375 9.25 -25.972656 9.25 -25.234375 L 9.25 -24.921875 C 9.25 -24.203125 9.519531 -23.570312 10.0625 -23.03125 C 10.601562 -22.5 11.242188 -22.234375 11.984375 -22.234375 L 14.5625 -22.234375 C 16.351562 -22.234375 18.007812 -21.835938 19.53125 -21.046875 C 21.050781 -20.253906 22.3125 -19.191406 23.3125 -17.859375 Z M 23.3125 -17.859375 "/></g></g><g style="fill:#ffffff;fill-opacity:1;"><g transform="translate(540.010542, 53.586845)"><path style="stroke:none" d="M 23.3125 -17.859375 C 24 -16.929688 24.535156 -15.910156 24.921875 -14.796875 C 25.304688 -13.691406 25.5 -12.535156 25.5 -11.328125 L 25.5 -11.015625 C 25.5 -9.503906 25.21875 -8.085938 24.65625 -6.765625 C 24.09375 -5.453125 23.304688 -4.296875 22.296875 -3.296875 C 21.285156 -2.304688 20.117188 -1.523438 18.796875 -0.953125 C 17.484375 -0.390625 16.070312 -0.109375 14.5625 -0.109375 L 2.234375 -0.109375 C 2.234375 -1.648438 2.578125 -3.039062 3.265625 -4.28125 C 3.953125 -5.519531 4.882812 -6.5 6.0625 -7.21875 C 7.238281 -7.9375 8.535156 -8.296875 9.953125 -8.296875 L 14.5625 -8.296875 C 15.300781 -8.296875 15.9375 -8.5625 16.46875 -9.09375 C 17.007812 -9.632812 17.28125 -10.273438 17.28125 -11.015625 L 17.28125 -11.328125 C 17.28125 -12.046875 17.007812 -12.671875 16.46875 -13.203125 C 15.9375 -13.742188 15.300781 -14.015625 14.5625 -14.015625 L 11.984375 -14.015625 C 10.191406 -14.015625 8.53125 -14.410156 7 -15.203125 C 5.476562 -16.003906 4.21875 -17.066406 3.21875 -18.390625 C 2.53125 -19.316406 1.992188 -20.335938 1.609375 -21.453125 C 1.222656 -22.566406 1.03125 -23.722656 1.03125 -24.921875 L 1.03125 -25.234375 C 1.03125 -26.742188 1.316406 -28.15625 1.890625 -29.46875 C 2.472656 -30.789062 3.265625 -31.953125 4.265625 -32.953125 C 5.265625 -33.953125 6.421875 -34.734375 7.734375 -35.296875 C 9.054688 -35.859375 10.472656 -36.140625 11.984375 -36.140625 L 23.390625 -36.140625 C 23.390625 -34.597656 23.039062 -33.207031 22.34375 -31.96875 C 21.65625 -30.726562 20.726562 -29.75 19.5625 -29.03125 C 18.40625 -28.3125 17.109375 -27.953125 15.671875 -27.953125 L 11.984375 -27.953125 C 11.242188 -27.953125 10.601562 -27.679688 10.0625 -27.140625 C 9.519531 -26.609375 9.25 -25.972656 9.25 -25.234375 L 9.25 -24.921875 C 9.25 -24.203125 9.519531 -23.570312 10.0625 -23.03125 C 10.601562 -22.5 11.242188 -22.234375 11.984375 -22.234375 L 14.5625 -22.234375 C 16.351562 -22.234375 18.007812 -21.835938 19.53125 -21.046875 C 21.050781 -20.253906 22.3125 -19.191406 23.3125 -17.859375 Z M 23.3125 -17.859375 "/></g></g><g style="fill:#ffffff;fill-opacity:1;"><g transform="translate(566.584048, 53.586845)"><path style="stroke:none" d="M 1.921875 -28.53125 C 1.921875 -29.96875 2.296875 -31.269531 3.046875 -32.4375 C 3.804688 -33.601562 4.828125 -34.53125 6.109375 -35.21875 C 7.390625 -35.90625 8.796875 -36.25 10.328125 -36.25 L 10.328125 -7.640625 C 10.328125 -6.234375 9.945312 -4.945312 9.1875 -3.78125 C 8.4375 -2.613281 7.425781 -1.6875 6.15625 -1 C 4.894531 -0.3125 3.484375 0.03125 1.921875 0.03125 Z M 1.921875 -28.53125 "/></g></g><g style="fill:#ffffff;fill-opacity:1;"><g transform="translate(579.064361, 53.586845)"><path style="stroke:none" d="M 23.3125 -17.859375 C 24 -16.929688 24.535156 -15.910156 24.921875 -14.796875 C 25.304688 -13.691406 25.5 -12.535156 25.5 -11.328125 L 25.5 -11.015625 C 25.5 -9.503906 25.21875 -8.085938 24.65625 -6.765625 C 24.09375 -5.453125 23.304688 -4.296875 22.296875 -3.296875 C 21.285156 -2.304688 20.117188 -1.523438 18.796875 -0.953125 C 17.484375 -0.390625 16.070312 -0.109375 14.5625 -0.109375 L 2.234375 -0.109375 C 2.234375 -1.648438 2.578125 -3.039062 3.265625 -4.28125 C 3.953125 -5.519531 4.882812 -6.5 6.0625 -7.21875 C 7.238281 -7.9375 8.535156 -8.296875 9.953125 -8.296875 L 14.5625 -8.296875 C 15.300781 -8.296875 15.9375 -8.5625 16.46875 -9.09375 C 17.007812 -9.632812 17.28125 -10.273438 17.28125 -11.015625 L 17.28125 -11.328125 C 17.28125 -12.046875 17.007812 -12.671875 16.46875 -13.203125 C 15.9375 -13.742188 15.300781 -14.015625 14.5625 -14.015625 L 11.984375 -14.015625 C 10.191406 -14.015625 8.53125 -14.410156 7 -15.203125 C 5.476562 -16.003906 4.21875 -17.066406 3.21875 -18.390625 C 2.53125 -19.316406 1.992188 -20.335938 1.609375 -21.453125 C 1.222656 -22.566406 1.03125 -23.722656 1.03125 -24.921875 L 1.03125 -25.234375 C 1.03125 -26.742188 1.316406 -28.15625 1.890625 -29.46875 C 2.472656 -30.789062 3.265625 -31.953125 4.265625 -32.953125 C 5.265625 -33.953125 6.421875 -34.734375 7.734375 -35.296875 C 9.054688 -35.859375 10.472656 -36.140625 11.984375 -36.140625 L 23.390625 -36.140625 C 23.390625 -34.597656 23.039062 -33.207031 22.34375 -31.96875 C 21.65625 -30.726562 20.726562 -29.75 19.5625 -29.03125 C 18.40625 -28.3125 17.109375 -27.953125 15.671875 -27.953125 L 11.984375 -27.953125 C 11.242188 -27.953125 10.601562 -27.679688 10.0625 -27.140625 C 9.519531 -26.609375 9.25 -25.972656 9.25 -25.234375 L 9.25 -24.921875 C 9.25 -24.203125 9.519531 -23.570312 10.0625 -23.03125 C 10.601562 -22.5 11.242188 -22.234375 11.984375 -22.234375 L 14.5625 -22.234375 C 16.351562 -22.234375 18.007812 -21.835938 19.53125 -21.046875 C 21.050781 -20.253906 22.3125 -19.191406 23.3125 -17.859375 Z M 23.3125 -17.859375 "/></g></g><g style="fill:#ffffff;fill-opacity:1;"><g transform="translate(603.602157, 53.586845)"><path style="stroke:none" d="M 7.5625 -36.03125 L 28.265625 -36.03125 C 28.265625 -34.46875 27.914062 -33.097656 27.21875 -31.921875 C 26.53125 -30.742188 25.597656 -29.828125 24.421875 -29.171875 C 23.242188 -28.515625 21.953125 -28.1875 20.546875 -28.1875 L 18.28125 -28.1875 L 18.28125 -7.828125 C 18.28125 -6.398438 17.894531 -5.101562 17.125 -3.9375 C 16.363281 -2.769531 15.347656 -1.835938 14.078125 -1.140625 C 12.804688 -0.453125 11.390625 -0.109375 9.828125 -0.109375 L 9.828125 -28.1875 L -0.1875 -28.1875 C -0.1875 -29.75 0.160156 -31.113281 0.859375 -32.28125 C 1.566406 -33.445312 2.503906 -34.363281 3.671875 -35.03125 C 4.835938 -35.695312 6.132812 -36.03125 7.5625 -36.03125 Z M 7.5625 -36.03125 "/></g></g><g style="fill:#ffffff;fill-opacity:1;"><g transform="translate(626.52634, 53.586845)"><path style="stroke:none" d="M 20.203125 -31.1875 L 27.890625 -0.34375 C 26.453125 0.0078125 25.066406 0.0078125 23.734375 -0.34375 C 22.398438 -0.707031 21.253906 -1.34375 20.296875 -2.25 C 19.335938 -3.15625 18.703125 -4.257812 18.390625 -5.5625 L 17.96875 -7.265625 L 17.78125 -8.109375 L 10.328125 -8.109375 L 10.140625 -7.265625 L 9.71875 -5.5625 C 9.40625 -4.257812 8.769531 -3.15625 7.8125 -2.25 C 6.851562 -1.34375 5.707031 -0.707031 4.375 -0.34375 C 3.039062 0.0078125 1.660156 0.0078125 0.234375 -0.34375 L 7.90625 -31.1875 C 8.375 -33.03125 9.4375 -34.4375 11.09375 -35.40625 C 12.019531 -35.914062 13.007812 -36.171875 14.0625 -36.171875 C 15.101562 -36.171875 16.085938 -35.914062 17.015625 -35.40625 C 18.679688 -34.4375 19.742188 -33.03125 20.203125 -31.1875 Z M 11.671875 -14.515625 L 16.46875 -14.515625 L 14.0625 -26.046875 Z M 11.671875 -14.515625 "/></g></g><g style="fill:#ffffff;fill-opacity:1;"><g transform="translate(654.520578, 53.586845)"><path style="stroke:none" d="M 24.34375 -28.421875 C 24.34375 -29.859375 24.710938 -31.164062 25.453125 -32.34375 C 26.203125 -33.519531 27.179688 -34.460938 28.390625 -35.171875 C 29.609375 -35.890625 30.9375 -36.25 32.375 -36.25 L 32.375 -7.796875 C 32.375 -6.359375 32.007812 -5.046875 31.28125 -3.859375 C 30.550781 -2.671875 29.578125 -1.71875 28.359375 -1 C 27.140625 -0.28125 25.800781 0.078125 24.34375 0.078125 L 24.34375 -2.765625 L 9.75 -22.3125 L 9.75 -7.765625 C 9.75 -6.328125 9.394531 -5.007812 8.6875 -3.8125 C 7.988281 -2.625 7.050781 -1.675781 5.875 -0.96875 C 4.695312 -0.269531 3.378906 0.078125 1.921875 0.078125 L 1.921875 -28.421875 C 1.921875 -29.859375 2.28125 -31.164062 3 -32.34375 C 3.71875 -33.519531 4.664062 -34.460938 5.84375 -35.171875 C 7.019531 -35.890625 8.320312 -36.25 9.75 -36.25 L 24.34375 -15.203125 Z M 24.34375 -28.421875 "/></g></g><g style="fill:#ffffff;fill-opacity:1;"><g transform="translate(688.927766, 53.586845)"><path style="stroke:none" d="M 7.5625 -36.03125 L 28.265625 -36.03125 C 28.265625 -34.46875 27.914062 -33.097656 27.21875 -31.921875 C 26.53125 -30.742188 25.597656 -29.828125 24.421875 -29.171875 C 23.242188 -28.515625 21.953125 -28.1875 20.546875 -28.1875 L 18.28125 -28.1875 L 18.28125 -7.828125 C 18.28125 -6.398438 17.894531 -5.101562 17.125 -3.9375 C 16.363281 -2.769531 15.347656 -1.835938 14.078125 -1.140625 C 12.804688 -0.453125 11.390625 -0.109375 9.828125 -0.109375 L 9.828125 -28.1875 L -0.1875 -28.1875 C -0.1875 -29.75 0.160156 -31.113281 0.859375 -32.28125 C 1.566406 -33.445312 2.503906 -34.363281 3.671875 -35.03125 C 4.835938 -35.695312 6.132812 -36.03125 7.5625 -36.03125 Z M 7.5625 -36.03125 "/></g></g><g style="fill:#ffffff;fill-opacity:1;"><g transform="translate(229.68896, 84.057903)"><path style="stroke:none" d="M 12.953125 -2.109375 C 12.128906 -1.335938 11.222656 -0.765625 10.234375 -0.390625 C 9.253906 -0.0234375 8.265625 0.144531 7.265625 0.125 C 6.265625 0.101562 5.316406 -0.0976562 4.421875 -0.484375 C 3.535156 -0.867188 2.765625 -1.425781 2.109375 -2.15625 C 1.460938 -2.882812 0.992188 -3.769531 0.703125 -4.8125 C 0.421875 -5.863281 0.394531 -7.066406 0.625 -8.421875 C 0.863281 -9.796875 1.332031 -10.925781 2.03125 -11.8125 C 2.726562 -12.707031 3.617188 -13.347656 4.703125 -13.734375 C 5.796875 -14.128906 7.023438 -14.25 8.390625 -14.09375 C 9.054688 -14.019531 9.710938 -13.910156 10.359375 -13.765625 C 11.003906 -13.628906 11.625 -13.394531 12.21875 -13.0625 C 12.957031 -12.65625 13.566406 -12.148438 14.046875 -11.546875 C 14.523438 -10.953125 14.789062 -10.203125 14.84375 -9.296875 C 14.851562 -9.148438 14.851562 -8.988281 14.84375 -8.8125 C 14.832031 -8.644531 14.71875 -8.53125 14.5 -8.46875 C 14.300781 -8.40625 14.140625 -8.445312 14.015625 -8.59375 C 13.890625 -8.75 13.773438 -8.945312 13.671875 -9.1875 C 13.566406 -9.425781 13.453125 -9.648438 13.328125 -9.859375 C 13.085938 -10.296875 12.789062 -10.6875 12.4375 -11.03125 C 12.09375 -11.382812 11.675781 -11.65625 11.1875 -11.84375 C 10.445312 -12.125 9.695312 -12.3125 8.9375 -12.40625 C 8.175781 -12.5 7.40625 -12.488281 6.625 -12.375 C 5.894531 -12.269531 5.253906 -12.03125 4.703125 -11.65625 C 4.148438 -11.28125 3.679688 -10.773438 3.296875 -10.140625 C 2.796875 -9.316406 2.5 -8.460938 2.40625 -7.578125 C 2.320312 -6.691406 2.394531 -5.785156 2.625 -4.859375 C 2.78125 -4.191406 3.082031 -3.640625 3.53125 -3.203125 C 3.976562 -2.773438 4.507812 -2.4375 5.125 -2.1875 C 6.21875 -1.75 7.300781 -1.585938 8.375 -1.703125 C 9.445312 -1.816406 10.4375 -2.179688 11.34375 -2.796875 C 12.257812 -3.421875 13.003906 -4.257812 13.578125 -5.3125 C 13.648438 -5.457031 13.71875 -5.601562 13.78125 -5.75 C 13.851562 -5.894531 14.003906 -5.921875 14.234375 -5.828125 C 14.390625 -5.773438 14.472656 -5.675781 14.484375 -5.53125 C 14.492188 -5.382812 14.5 -5.242188 14.5 -5.109375 C 14.476562 -4.484375 14.320312 -3.925781 14.03125 -3.4375 C 13.75 -2.957031 13.390625 -2.515625 12.953125 -2.109375 Z M 12.953125 -2.109375 "/></g></g><g style="fill:#ffffff;fill-opacity:1;"><g transform="translate(245.032565, 84.057903)"><path style="stroke:none" d="M 1.25 1.03125 C 0.957031 0.988281 0.796875 0.851562 0.765625 0.625 C 0.742188 0.394531 0.722656 0.175781 0.703125 -0.03125 C 0.640625 -1.164062 0.578125 -2.332031 0.515625 -3.53125 C 0.453125 -4.726562 0.460938 -6.09375 0.546875 -7.625 C 0.546875 -8.0625 0.539062 -8.660156 0.53125 -9.421875 C 0.53125 -10.191406 0.535156 -10.988281 0.546875 -11.8125 C 0.554688 -12.007812 0.566406 -12.21875 0.578125 -12.4375 C 0.597656 -12.664062 0.660156 -12.859375 0.765625 -13.015625 C 0.878906 -13.179688 1.0625 -13.265625 1.3125 -13.265625 C 1.570312 -13.273438 1.75 -13.195312 1.84375 -13.03125 C 1.945312 -12.875 2.003906 -12.679688 2.015625 -12.453125 C 2.035156 -12.234375 2.050781 -12.03125 2.0625 -11.84375 C 2.101562 -11.320312 2.125 -10.796875 2.125 -10.265625 C 2.132812 -9.734375 2.132812 -9.207031 2.125 -8.6875 C 2.125 -8.414062 2.171875 -8.191406 2.265625 -8.015625 C 2.359375 -7.835938 2.582031 -7.753906 2.9375 -7.765625 C 4.40625 -7.804688 5.867188 -7.789062 7.328125 -7.71875 C 8.796875 -7.65625 10.257812 -7.554688 11.71875 -7.421875 C 12.09375 -7.378906 12.335938 -7.453125 12.453125 -7.640625 C 12.578125 -7.828125 12.644531 -8.085938 12.65625 -8.421875 C 12.65625 -9.035156 12.675781 -9.644531 12.71875 -10.25 C 12.757812 -10.851562 12.789062 -11.460938 12.8125 -12.078125 C 12.820312 -12.265625 12.832031 -12.457031 12.84375 -12.65625 C 12.863281 -12.851562 12.929688 -13.03125 13.046875 -13.1875 C 13.191406 -13.414062 13.34375 -13.523438 13.5 -13.515625 C 13.664062 -13.503906 13.8125 -13.394531 13.9375 -13.1875 C 14.082031 -12.976562 14.171875 -12.75 14.203125 -12.5 C 14.234375 -12.25 14.242188 -12 14.234375 -11.75 C 14.171875 -10.3125 14.160156 -8.875 14.203125 -7.4375 C 14.253906 -6 14.320312 -4.5625 14.40625 -3.125 C 14.4375 -2.882812 14.425781 -2.640625 14.375 -2.390625 C 14.320312 -2.148438 14.265625 -1.90625 14.203125 -1.65625 C 14.148438 -1.4375 14.066406 -1.234375 13.953125 -1.046875 C 13.847656 -0.859375 13.660156 -0.769531 13.390625 -0.78125 C 13.109375 -0.800781 12.929688 -0.910156 12.859375 -1.109375 C 12.785156 -1.316406 12.742188 -1.535156 12.734375 -1.765625 C 12.734375 -1.804688 12.726562 -1.9375 12.71875 -2.15625 C 12.71875 -2.382812 12.710938 -2.660156 12.703125 -2.984375 C 12.691406 -3.304688 12.679688 -3.628906 12.671875 -3.953125 C 12.660156 -4.273438 12.648438 -4.539062 12.640625 -4.75 C 12.628906 -5.226562 12.597656 -5.566406 12.546875 -5.765625 C 12.503906 -5.972656 12.382812 -6.097656 12.1875 -6.140625 C 11.988281 -6.179688 11.644531 -6.195312 11.15625 -6.1875 C 9.800781 -6.164062 8.445312 -6.132812 7.09375 -6.09375 C 5.738281 -6.050781 4.382812 -6.023438 3.03125 -6.015625 C 2.65625 -6.003906 2.40625 -5.921875 2.28125 -5.765625 C 2.164062 -5.617188 2.113281 -5.375 2.125 -5.03125 C 2.15625 -4.507812 2.164062 -3.984375 2.15625 -3.453125 C 2.144531 -2.921875 2.132812 -2.394531 2.125 -1.875 C 2.113281 -1.550781 2.09375 -1.21875 2.0625 -0.875 C 2.03125 -0.539062 1.992188 -0.210938 1.953125 0.109375 C 1.929688 0.316406 1.882812 0.53125 1.8125 0.75 C 1.738281 0.96875 1.550781 1.0625 1.25 1.03125 Z M 1.25 1.03125 "/></g></g><g style="fill:#ffffff;fill-opacity:1;"><g transform="translate(259.920427, 84.057903)"><path style="stroke:none" d="M 2.4375 -0.09375 C 1.914062 -0.1875 1.507812 -0.296875 1.21875 -0.421875 C 0.9375 -0.546875 0.742188 -0.742188 0.640625 -1.015625 C 0.546875 -1.296875 0.488281 -1.695312 0.46875 -2.21875 C 0.457031 -3.15625 0.476562 -4.09375 0.53125 -5.03125 C 0.59375 -5.96875 0.628906 -6.90625 0.640625 -7.84375 C 0.660156 -8.457031 0.703125 -9.078125 0.765625 -9.703125 C 0.828125 -10.335938 0.863281 -10.960938 0.875 -11.578125 C 0.894531 -12.203125 0.835938 -12.820312 0.703125 -13.4375 C 0.640625 -13.738281 0.6875 -13.945312 0.84375 -14.0625 C 1 -14.1875 1.1875 -14.289062 1.40625 -14.375 C 1.820312 -14.519531 2.253906 -14.609375 2.703125 -14.640625 C 3.148438 -14.671875 3.59375 -14.675781 4.03125 -14.65625 C 4.59375 -14.632812 5.226562 -14.601562 5.9375 -14.5625 C 6.644531 -14.53125 7.363281 -14.492188 8.09375 -14.453125 C 8.820312 -14.421875 9.5 -14.382812 10.125 -14.34375 C 10.75 -14.3125 11.269531 -14.28125 11.6875 -14.25 C 12.113281 -14.21875 12.367188 -14.1875 12.453125 -14.15625 C 12.648438 -14.113281 12.820312 -14.023438 12.96875 -13.890625 C 13.113281 -13.765625 13.1875 -13.597656 13.1875 -13.390625 C 13.175781 -13.117188 13.082031 -12.921875 12.90625 -12.796875 C 12.738281 -12.679688 12.53125 -12.617188 12.28125 -12.609375 C 11.675781 -12.597656 11.066406 -12.59375 10.453125 -12.59375 C 9.847656 -12.59375 9.242188 -12.628906 8.640625 -12.703125 C 7.765625 -12.804688 6.882812 -12.867188 6 -12.890625 C 5.113281 -12.910156 4.226562 -12.921875 3.34375 -12.921875 C 3.019531 -12.921875 2.789062 -12.859375 2.65625 -12.734375 C 2.53125 -12.609375 2.492188 -12.382812 2.546875 -12.0625 C 2.609375 -11.632812 2.65625 -11.210938 2.6875 -10.796875 C 2.71875 -10.390625 2.738281 -9.976562 2.75 -9.5625 C 2.757812 -9.207031 2.84375 -8.960938 3 -8.828125 C 3.15625 -8.703125 3.414062 -8.664062 3.78125 -8.71875 C 4.789062 -8.863281 5.804688 -8.921875 6.828125 -8.890625 C 7.859375 -8.867188 8.878906 -8.8125 9.890625 -8.71875 C 10.054688 -8.695312 10.238281 -8.691406 10.4375 -8.703125 C 10.644531 -8.722656 10.820312 -8.695312 10.96875 -8.625 C 11.125 -8.5625 11.203125 -8.394531 11.203125 -8.125 C 11.203125 -7.882812 11.125 -7.722656 10.96875 -7.640625 C 10.820312 -7.554688 10.644531 -7.507812 10.4375 -7.5 C 10.238281 -7.488281 10.054688 -7.460938 9.890625 -7.421875 C 8.960938 -7.234375 8.03125 -7.09375 7.09375 -7 C 6.15625 -6.914062 5.222656 -6.851562 4.296875 -6.8125 C 3.835938 -6.800781 3.507812 -6.769531 3.3125 -6.71875 C 3.125 -6.675781 3.007812 -6.5625 2.96875 -6.375 C 2.9375 -6.195312 2.914062 -5.894531 2.90625 -5.46875 L 2.90625 -3.46875 C 2.894531 -3.082031 2.90625 -2.800781 2.9375 -2.625 C 2.96875 -2.457031 3.070312 -2.359375 3.25 -2.328125 C 3.425781 -2.304688 3.722656 -2.296875 4.140625 -2.296875 C 4.316406 -2.296875 4.632812 -2.300781 5.09375 -2.3125 C 5.5625 -2.320312 6.085938 -2.332031 6.671875 -2.34375 C 7.265625 -2.351562 7.851562 -2.359375 8.4375 -2.359375 C 9.03125 -2.359375 9.550781 -2.347656 10 -2.328125 C 10.445312 -2.316406 10.753906 -2.300781 10.921875 -2.28125 C 11.140625 -2.238281 11.363281 -2.191406 11.59375 -2.140625 C 11.820312 -2.085938 12.007812 -1.992188 12.15625 -1.859375 C 12.3125 -1.734375 12.382812 -1.523438 12.375 -1.234375 C 12.363281 -0.960938 12.273438 -0.765625 12.109375 -0.640625 C 11.941406 -0.515625 11.742188 -0.425781 11.515625 -0.375 C 11.296875 -0.320312 11.078125 -0.273438 10.859375 -0.234375 C 10.671875 -0.191406 10.359375 -0.148438 9.921875 -0.109375 C 9.492188 -0.078125 8.992188 -0.0507812 8.421875 -0.03125 C 7.859375 -0.0078125 7.269531 0 6.65625 0 C 6.039062 0.0078125 5.445312 0.0078125 4.875 0 C 4.3125 0 3.8125 -0.0078125 3.375 -0.03125 C 2.945312 -0.0507812 2.632812 -0.0703125 2.4375 -0.09375 Z M 2.4375 -0.09375 "/></g></g><g style="fill:#ffffff;fill-opacity:1;"><g transform="translate(273.592954, 84.057903)"><path style="stroke:none" d="M 12.953125 -2.109375 C 12.128906 -1.335938 11.222656 -0.765625 10.234375 -0.390625 C 9.253906 -0.0234375 8.265625 0.144531 7.265625 0.125 C 6.265625 0.101562 5.316406 -0.0976562 4.421875 -0.484375 C 3.535156 -0.867188 2.765625 -1.425781 2.109375 -2.15625 C 1.460938 -2.882812 0.992188 -3.769531 0.703125 -4.8125 C 0.421875 -5.863281 0.394531 -7.066406 0.625 -8.421875 C 0.863281 -9.796875 1.332031 -10.925781 2.03125 -11.8125 C 2.726562 -12.707031 3.617188 -13.347656 4.703125 -13.734375 C 5.796875 -14.128906 7.023438 -14.25 8.390625 -14.09375 C 9.054688 -14.019531 9.710938 -13.910156 10.359375 -13.765625 C 11.003906 -13.628906 11.625 -13.394531 12.21875 -13.0625 C 12.957031 -12.65625 13.566406 -12.148438 14.046875 -11.546875 C 14.523438 -10.953125 14.789062 -10.203125 14.84375 -9.296875 C 14.851562 -9.148438 14.851562 -8.988281 14.84375 -8.8125 C 14.832031 -8.644531 14.71875 -8.53125 14.5 -8.46875 C 14.300781 -8.40625 14.140625 -8.445312 14.015625 -8.59375 C 13.890625 -8.75 13.773438 -8.945312 13.671875 -9.1875 C 13.566406 -9.425781 13.453125 -9.648438 13.328125 -9.859375 C 13.085938 -10.296875 12.789062 -10.6875 12.4375 -11.03125 C 12.09375 -11.382812 11.675781 -11.65625 11.1875 -11.84375 C 10.445312 -12.125 9.695312 -12.3125 8.9375 -12.40625 C 8.175781 -12.5 7.40625 -12.488281 6.625 -12.375 C 5.894531 -12.269531 5.253906 -12.03125 4.703125 -11.65625 C 4.148438 -11.28125 3.679688 -10.773438 3.296875 -10.140625 C 2.796875 -9.316406 2.5 -8.460938 2.40625 -7.578125 C 2.320312 -6.691406 2.394531 -5.785156 2.625 -4.859375 C 2.78125 -4.191406 3.082031 -3.640625 3.53125 -3.203125 C 3.976562 -2.773438 4.507812 -2.4375 5.125 -2.1875 C 6.21875 -1.75 7.300781 -1.585938 8.375 -1.703125 C 9.445312 -1.816406 10.4375 -2.179688 11.34375 -2.796875 C 12.257812 -3.421875 13.003906 -4.257812 13.578125 -5.3125 C 13.648438 -5.457031 13.71875 -5.601562 13.78125 -5.75 C 13.851562 -5.894531 14.003906 -5.921875 14.234375 -5.828125 C 14.390625 -5.773438 14.472656 -5.675781 14.484375 -5.53125 C 14.492188 -5.382812 14.5 -5.242188 14.5 -5.109375 C 14.476562 -4.484375 14.320312 -3.925781 14.03125 -3.4375 C 13.75 -2.957031 13.390625 -2.515625 12.953125 -2.109375 Z M 12.953125 -2.109375 "/></g></g><g style="fill:#ffffff;fill-opacity:1;"><g transform="translate(288.936559, 84.057903)"><path style="stroke:none" d="M 2.484375 0.734375 C 2.296875 0.722656 2.144531 0.65625 2.03125 0.53125 C 1.925781 0.40625 1.859375 0.257812 1.828125 0.09375 C 1.734375 -0.382812 1.679688 -0.953125 1.671875 -1.609375 C 1.671875 -2.265625 1.675781 -2.960938 1.6875 -3.703125 C 1.6875 -3.984375 1.664062 -4.226562 1.625 -4.4375 C 1.582031 -4.65625 1.394531 -4.859375 1.0625 -5.046875 C 0.65625 -5.273438 0.460938 -5.550781 0.484375 -5.875 C 0.503906 -6.207031 0.726562 -6.46875 1.15625 -6.65625 C 1.570312 -6.832031 1.816406 -7.046875 1.890625 -7.296875 C 1.972656 -7.554688 2.015625 -7.859375 2.015625 -8.203125 C 2.035156 -8.804688 2.054688 -9.410156 2.078125 -10.015625 C 2.109375 -10.628906 2.140625 -11.238281 2.171875 -11.84375 C 2.179688 -12.082031 2.238281 -12.296875 2.34375 -12.484375 C 2.445312 -12.679688 2.632812 -12.769531 2.90625 -12.75 C 3.132812 -12.75 3.296875 -12.664062 3.390625 -12.5 C 3.492188 -12.332031 3.550781 -12.144531 3.5625 -11.9375 C 3.644531 -11.445312 3.691406 -10.972656 3.703125 -10.515625 C 3.722656 -10.054688 3.726562 -9.582031 3.71875 -9.09375 C 3.71875 -8.601562 3.71875 -8.039062 3.71875 -7.40625 C 4.84375 -7.769531 5.867188 -8.1875 6.796875 -8.65625 C 7.734375 -9.125 8.664062 -9.5625 9.59375 -9.96875 C 9.882812 -10.101562 10.203125 -10.265625 10.546875 -10.453125 C 10.890625 -10.648438 11.226562 -10.820312 11.5625 -10.96875 C 11.90625 -11.113281 12.207031 -11.203125 12.46875 -11.234375 C 12.726562 -11.265625 12.921875 -11.179688 13.046875 -10.984375 C 13.171875 -10.785156 13.140625 -10.539062 12.953125 -10.25 C 12.773438 -9.96875 12.507812 -9.671875 12.15625 -9.359375 C 11.800781 -9.046875 11.414062 -8.742188 11 -8.453125 C 10.59375 -8.171875 10.21875 -7.929688 9.875 -7.734375 C 9.289062 -7.367188 8.691406 -7.019531 8.078125 -6.6875 C 7.472656 -6.363281 6.867188 -6.03125 6.265625 -5.6875 C 6.285156 -5.601562 6.476562 -5.46875 6.84375 -5.28125 C 7.207031 -5.101562 7.660156 -4.898438 8.203125 -4.671875 C 8.753906 -4.441406 9.335938 -4.207031 9.953125 -3.96875 C 10.578125 -3.738281 11.171875 -3.515625 11.734375 -3.296875 C 12.304688 -3.085938 12.78125 -2.910156 13.15625 -2.765625 C 13.53125 -2.617188 13.742188 -2.523438 13.796875 -2.484375 C 14.054688 -2.347656 14.285156 -2.179688 14.484375 -1.984375 C 14.679688 -1.796875 14.734375 -1.539062 14.640625 -1.21875 C 14.523438 -0.820312 14.316406 -0.609375 14.015625 -0.578125 C 13.710938 -0.554688 13.414062 -0.59375 13.125 -0.6875 C 12.675781 -0.820312 12.234375 -0.972656 11.796875 -1.140625 C 11.359375 -1.316406 10.921875 -1.5 10.484375 -1.6875 C 9.515625 -2.113281 8.550781 -2.53125 7.59375 -2.9375 C 6.644531 -3.351562 5.664062 -3.722656 4.65625 -4.046875 C 4.488281 -4.097656 4.328125 -4.144531 4.171875 -4.1875 C 4.015625 -4.238281 3.804688 -4.226562 3.546875 -4.15625 C 3.441406 -3.894531 3.382812 -3.582031 3.375 -3.21875 C 3.363281 -2.851562 3.363281 -2.472656 3.375 -2.078125 C 3.382812 -1.679688 3.378906 -1.289062 3.359375 -0.90625 C 3.347656 -0.519531 3.285156 -0.171875 3.171875 0.140625 C 3.117188 0.296875 3.039062 0.429688 2.9375 0.546875 C 2.84375 0.671875 2.691406 0.734375 2.484375 0.734375 Z M 2.484375 0.734375 "/></g></g><g style="fill:#ffffff;fill-opacity:1;"><g transform="translate(304.090268, 84.057903)"><path style="stroke:none" d=""/></g></g><g style="fill:#ffffff;fill-opacity:1;"><g transform="translate(313.585073, 84.057903)"><path style="stroke:none" d="M 12.21875 -0.359375 C 11.53125 -0.015625 10.769531 0.210938 9.9375 0.328125 C 9.101562 0.453125 8.25 0.488281 7.375 0.4375 C 6.507812 0.394531 5.640625 0.296875 4.765625 0.140625 C 3.898438 -0.015625 3.078125 -0.195312 2.296875 -0.40625 C 1.648438 -0.582031 1.171875 -0.882812 0.859375 -1.3125 C 0.554688 -1.75 0.4375 -2.253906 0.5 -2.828125 C 0.519531 -2.992188 0.550781 -3.148438 0.59375 -3.296875 C 0.644531 -3.453125 0.765625 -3.566406 0.953125 -3.640625 C 1.128906 -3.703125 1.285156 -3.703125 1.421875 -3.640625 C 1.554688 -3.585938 1.695312 -3.503906 1.84375 -3.390625 C 2.4375 -2.898438 3.085938 -2.492188 3.796875 -2.171875 C 4.503906 -1.859375 5.222656 -1.625 5.953125 -1.46875 C 6.679688 -1.3125 7.382812 -1.222656 8.0625 -1.203125 C 8.75 -1.179688 9.359375 -1.21875 9.890625 -1.3125 C 10.429688 -1.414062 10.863281 -1.566406 11.1875 -1.765625 C 11.601562 -2.003906 11.882812 -2.300781 12.03125 -2.65625 C 12.175781 -3.019531 12.179688 -3.390625 12.046875 -3.765625 C 11.910156 -4.140625 11.632812 -4.445312 11.21875 -4.6875 C 10.488281 -5.113281 9.769531 -5.429688 9.0625 -5.640625 C 8.351562 -5.859375 7.648438 -6.03125 6.953125 -6.15625 C 6.253906 -6.289062 5.554688 -6.445312 4.859375 -6.625 C 4.171875 -6.8125 3.472656 -7.101562 2.765625 -7.5 C 2.023438 -7.914062 1.5 -8.421875 1.1875 -9.015625 C 0.882812 -9.617188 0.757812 -10.238281 0.8125 -10.875 C 0.875 -11.507812 1.085938 -12.097656 1.453125 -12.640625 C 1.816406 -13.179688 2.296875 -13.609375 2.890625 -13.921875 C 4.972656 -14.992188 7.117188 -15.101562 9.328125 -14.25 C 10.054688 -13.976562 10.625 -13.554688 11.03125 -12.984375 C 11.4375 -12.410156 11.710938 -11.753906 11.859375 -11.015625 C 11.898438 -10.847656 11.914062 -10.679688 11.90625 -10.515625 C 11.894531 -10.347656 11.785156 -10.222656 11.578125 -10.140625 C 11.410156 -10.078125 11.242188 -10.125 11.078125 -10.28125 C 10.921875 -10.4375 10.757812 -10.632812 10.59375 -10.875 C 10.4375 -11.125 10.285156 -11.351562 10.140625 -11.5625 C 9.773438 -12.082031 9.285156 -12.472656 8.671875 -12.734375 C 8.054688 -13.003906 7.40625 -13.144531 6.71875 -13.15625 C 6.03125 -13.164062 5.375 -13.050781 4.75 -12.8125 C 4.132812 -12.570312 3.640625 -12.207031 3.265625 -11.71875 C 2.953125 -11.3125 2.816406 -10.898438 2.859375 -10.484375 C 2.910156 -10.066406 3.140625 -9.703125 3.546875 -9.390625 C 3.660156 -9.316406 3.921875 -9.203125 4.328125 -9.046875 C 4.734375 -8.890625 5.226562 -8.707031 5.8125 -8.5 C 6.40625 -8.300781 7.03125 -8.085938 7.6875 -7.859375 C 8.351562 -7.640625 9.003906 -7.421875 9.640625 -7.203125 C 10.273438 -6.984375 10.835938 -6.785156 11.328125 -6.609375 C 11.816406 -6.429688 12.171875 -6.28125 12.390625 -6.15625 C 12.972656 -5.832031 13.421875 -5.429688 13.734375 -4.953125 C 14.054688 -4.472656 14.207031 -3.890625 14.1875 -3.203125 C 14.15625 -2.535156 13.96875 -1.96875 13.625 -1.5 C 13.289062 -1.03125 12.820312 -0.648438 12.21875 -0.359375 Z M 12.21875 -0.359375 "/></g></g><g style="fill:#ffffff;fill-opacity:1;"><g transform="translate(328.245059, 84.057903)"><path style="stroke:none" d="M 12.953125 -2.109375 C 12.128906 -1.335938 11.222656 -0.765625 10.234375 -0.390625 C 9.253906 -0.0234375 8.265625 0.144531 7.265625 0.125 C 6.265625 0.101562 5.316406 -0.0976562 4.421875 -0.484375 C 3.535156 -0.867188 2.765625 -1.425781 2.109375 -2.15625 C 1.460938 -2.882812 0.992188 -3.769531 0.703125 -4.8125 C 0.421875 -5.863281 0.394531 -7.066406 0.625 -8.421875 C 0.863281 -9.796875 1.332031 -10.925781 2.03125 -11.8125 C 2.726562 -12.707031 3.617188 -13.347656 4.703125 -13.734375 C 5.796875 -14.128906 7.023438 -14.25 8.390625 -14.09375 C 9.054688 -14.019531 9.710938 -13.910156 10.359375 -13.765625 C 11.003906 -13.628906 11.625 -13.394531 12.21875 -13.0625 C 12.957031 -12.65625 13.566406 -12.148438 14.046875 -11.546875 C 14.523438 -10.953125 14.789062 -10.203125 14.84375 -9.296875 C 14.851562 -9.148438 14.851562 -8.988281 14.84375 -8.8125 C 14.832031 -8.644531 14.71875 -8.53125 14.5 -8.46875 C 14.300781 -8.40625 14.140625 -8.445312 14.015625 -8.59375 C 13.890625 -8.75 13.773438 -8.945312 13.671875 -9.1875 C 13.566406 -9.425781 13.453125 -9.648438 13.328125 -9.859375 C 13.085938 -10.296875 12.789062 -10.6875 12.4375 -11.03125 C 12.09375 -11.382812 11.675781 -11.65625 11.1875 -11.84375 C 10.445312 -12.125 9.695312 -12.3125 8.9375 -12.40625 C 8.175781 -12.5 7.40625 -12.488281 6.625 -12.375 C 5.894531 -12.269531 5.253906 -12.03125 4.703125 -11.65625 C 4.148438 -11.28125 3.679688 -10.773438 3.296875 -10.140625 C 2.796875 -9.316406 2.5 -8.460938 2.40625 -7.578125 C 2.320312 -6.691406 2.394531 -5.785156 2.625 -4.859375 C 2.78125 -4.191406 3.082031 -3.640625 3.53125 -3.203125 C 3.976562 -2.773438 4.507812 -2.4375 5.125 -2.1875 C 6.21875 -1.75 7.300781 -1.585938 8.375 -1.703125 C 9.445312 -1.816406 10.4375 -2.179688 11.34375 -2.796875 C 12.257812 -3.421875 13.003906 -4.257812 13.578125 -5.3125 C 13.648438 -5.457031 13.71875 -5.601562 13.78125 -5.75 C 13.851562 -5.894531 14.003906 -5.921875 14.234375 -5.828125 C 14.390625 -5.773438 14.472656 -5.675781 14.484375 -5.53125 C 14.492188 -5.382812 14.5 -5.242188 14.5 -5.109375 C 14.476562 -4.484375 14.320312 -3.925781 14.03125 -3.4375 C 13.75 -2.957031 13.390625 -2.515625 12.953125 -2.109375 Z M 12.953125 -2.109375 "/></g></g><g style="fill:#ffffff;fill-opacity:1;"><g transform="translate(343.588664, 84.057903)"><path style="stroke:none" d="M 1.25 1.03125 C 0.957031 0.988281 0.796875 0.851562 0.765625 0.625 C 0.742188 0.394531 0.722656 0.175781 0.703125 -0.03125 C 0.640625 -1.164062 0.578125 -2.332031 0.515625 -3.53125 C 0.453125 -4.726562 0.460938 -6.09375 0.546875 -7.625 C 0.546875 -8.0625 0.539062 -8.660156 0.53125 -9.421875 C 0.53125 -10.191406 0.535156 -10.988281 0.546875 -11.8125 C 0.554688 -12.007812 0.566406 -12.21875 0.578125 -12.4375 C 0.597656 -12.664062 0.660156 -12.859375 0.765625 -13.015625 C 0.878906 -13.179688 1.0625 -13.265625 1.3125 -13.265625 C 1.570312 -13.273438 1.75 -13.195312 1.84375 -13.03125 C 1.945312 -12.875 2.003906 -12.679688 2.015625 -12.453125 C 2.035156 -12.234375 2.050781 -12.03125 2.0625 -11.84375 C 2.101562 -11.320312 2.125 -10.796875 2.125 -10.265625 C 2.132812 -9.734375 2.132812 -9.207031 2.125 -8.6875 C 2.125 -8.414062 2.171875 -8.191406 2.265625 -8.015625 C 2.359375 -7.835938 2.582031 -7.753906 2.9375 -7.765625 C 4.40625 -7.804688 5.867188 -7.789062 7.328125 -7.71875 C 8.796875 -7.65625 10.257812 -7.554688 11.71875 -7.421875 C 12.09375 -7.378906 12.335938 -7.453125 12.453125 -7.640625 C 12.578125 -7.828125 12.644531 -8.085938 12.65625 -8.421875 C 12.65625 -9.035156 12.675781 -9.644531 12.71875 -10.25 C 12.757812 -10.851562 12.789062 -11.460938 12.8125 -12.078125 C 12.820312 -12.265625 12.832031 -12.457031 12.84375 -12.65625 C 12.863281 -12.851562 12.929688 -13.03125 13.046875 -13.1875 C 13.191406 -13.414062 13.34375 -13.523438 13.5 -13.515625 C 13.664062 -13.503906 13.8125 -13.394531 13.9375 -13.1875 C 14.082031 -12.976562 14.171875 -12.75 14.203125 -12.5 C 14.234375 -12.25 14.242188 -12 14.234375 -11.75 C 14.171875 -10.3125 14.160156 -8.875 14.203125 -7.4375 C 14.253906 -6 14.320312 -4.5625 14.40625 -3.125 C 14.4375 -2.882812 14.425781 -2.640625 14.375 -2.390625 C 14.320312 -2.148438 14.265625 -1.90625 14.203125 -1.65625 C 14.148438 -1.4375 14.066406 -1.234375 13.953125 -1.046875 C 13.847656 -0.859375 13.660156 -0.769531 13.390625 -0.78125 C 13.109375 -0.800781 12.929688 -0.910156 12.859375 -1.109375 C 12.785156 -1.316406 12.742188 -1.535156 12.734375 -1.765625 C 12.734375 -1.804688 12.726562 -1.9375 12.71875 -2.15625 C 12.71875 -2.382812 12.710938 -2.660156 12.703125 -2.984375 C 12.691406 -3.304688 12.679688 -3.628906 12.671875 -3.953125 C 12.660156 -4.273438 12.648438 -4.539062 12.640625 -4.75 C 12.628906 -5.226562 12.597656 -5.566406 12.546875 -5.765625 C 12.503906 -5.972656 12.382812 -6.097656 12.1875 -6.140625 C 11.988281 -6.179688 11.644531 -6.195312 11.15625 -6.1875 C 9.800781 -6.164062 8.445312 -6.132812 7.09375 -6.09375 C 5.738281 -6.050781 4.382812 -6.023438 3.03125 -6.015625 C 2.65625 -6.003906 2.40625 -5.921875 2.28125 -5.765625 C 2.164062 -5.617188 2.113281 -5.375 2.125 -5.03125 C 2.15625 -4.507812 2.164062 -3.984375 2.15625 -3.453125 C 2.144531 -2.921875 2.132812 -2.394531 2.125 -1.875 C 2.113281 -1.550781 2.09375 -1.21875 2.0625 -0.875 C 2.03125 -0.539062 1.992188 -0.210938 1.953125 0.109375 C 1.929688 0.316406 1.882812 0.53125 1.8125 0.75 C 1.738281 0.96875 1.550781 1.0625 1.25 1.03125 Z M 1.25 1.03125 "/></g></g><g style="fill:#ffffff;fill-opacity:1;"><g transform="translate(358.476527, 84.057903)"><path style="stroke:none" d="M 2.4375 -0.09375 C 1.914062 -0.1875 1.507812 -0.296875 1.21875 -0.421875 C 0.9375 -0.546875 0.742188 -0.742188 0.640625 -1.015625 C 0.546875 -1.296875 0.488281 -1.695312 0.46875 -2.21875 C 0.457031 -3.15625 0.476562 -4.09375 0.53125 -5.03125 C 0.59375 -5.96875 0.628906 -6.90625 0.640625 -7.84375 C 0.660156 -8.457031 0.703125 -9.078125 0.765625 -9.703125 C 0.828125 -10.335938 0.863281 -10.960938 0.875 -11.578125 C 0.894531 -12.203125 0.835938 -12.820312 0.703125 -13.4375 C 0.640625 -13.738281 0.6875 -13.945312 0.84375 -14.0625 C 1 -14.1875 1.1875 -14.289062 1.40625 -14.375 C 1.820312 -14.519531 2.253906 -14.609375 2.703125 -14.640625 C 3.148438 -14.671875 3.59375 -14.675781 4.03125 -14.65625 C 4.59375 -14.632812 5.226562 -14.601562 5.9375 -14.5625 C 6.644531 -14.53125 7.363281 -14.492188 8.09375 -14.453125 C 8.820312 -14.421875 9.5 -14.382812 10.125 -14.34375 C 10.75 -14.3125 11.269531 -14.28125 11.6875 -14.25 C 12.113281 -14.21875 12.367188 -14.1875 12.453125 -14.15625 C 12.648438 -14.113281 12.820312 -14.023438 12.96875 -13.890625 C 13.113281 -13.765625 13.1875 -13.597656 13.1875 -13.390625 C 13.175781 -13.117188 13.082031 -12.921875 12.90625 -12.796875 C 12.738281 -12.679688 12.53125 -12.617188 12.28125 -12.609375 C 11.675781 -12.597656 11.066406 -12.59375 10.453125 -12.59375 C 9.847656 -12.59375 9.242188 -12.628906 8.640625 -12.703125 C 7.765625 -12.804688 6.882812 -12.867188 6 -12.890625 C 5.113281 -12.910156 4.226562 -12.921875 3.34375 -12.921875 C 3.019531 -12.921875 2.789062 -12.859375 2.65625 -12.734375 C 2.53125 -12.609375 2.492188 -12.382812 2.546875 -12.0625 C 2.609375 -11.632812 2.65625 -11.210938 2.6875 -10.796875 C 2.71875 -10.390625 2.738281 -9.976562 2.75 -9.5625 C 2.757812 -9.207031 2.84375 -8.960938 3 -8.828125 C 3.15625 -8.703125 3.414062 -8.664062 3.78125 -8.71875 C 4.789062 -8.863281 5.804688 -8.921875 6.828125 -8.890625 C 7.859375 -8.867188 8.878906 -8.8125 9.890625 -8.71875 C 10.054688 -8.695312 10.238281 -8.691406 10.4375 -8.703125 C 10.644531 -8.722656 10.820312 -8.695312 10.96875 -8.625 C 11.125 -8.5625 11.203125 -8.394531 11.203125 -8.125 C 11.203125 -7.882812 11.125 -7.722656 10.96875 -7.640625 C 10.820312 -7.554688 10.644531 -7.507812 10.4375 -7.5 C 10.238281 -7.488281 10.054688 -7.460938 9.890625 -7.421875 C 8.960938 -7.234375 8.03125 -7.09375 7.09375 -7 C 6.15625 -6.914062 5.222656 -6.851562 4.296875 -6.8125 C 3.835938 -6.800781 3.507812 -6.769531 3.3125 -6.71875 C 3.125 -6.675781 3.007812 -6.5625 2.96875 -6.375 C 2.9375 -6.195312 2.914062 -5.894531 2.90625 -5.46875 L 2.90625 -3.46875 C 2.894531 -3.082031 2.90625 -2.800781 2.9375 -2.625 C 2.96875 -2.457031 3.070312 -2.359375 3.25 -2.328125 C 3.425781 -2.304688 3.722656 -2.296875 4.140625 -2.296875 C 4.316406 -2.296875 4.632812 -2.300781 5.09375 -2.3125 C 5.5625 -2.320312 6.085938 -2.332031 6.671875 -2.34375 C 7.265625 -2.351562 7.851562 -2.359375 8.4375 -2.359375 C 9.03125 -2.359375 9.550781 -2.347656 10 -2.328125 C 10.445312 -2.316406 10.753906 -2.300781 10.921875 -2.28125 C 11.140625 -2.238281 11.363281 -2.191406 11.59375 -2.140625 C 11.820312 -2.085938 12.007812 -1.992188 12.15625 -1.859375 C 12.3125 -1.734375 12.382812 -1.523438 12.375 -1.234375 C 12.363281 -0.960938 12.273438 -0.765625 12.109375 -0.640625 C 11.941406 -0.515625 11.742188 -0.425781 11.515625 -0.375 C 11.296875 -0.320312 11.078125 -0.273438 10.859375 -0.234375 C 10.671875 -0.191406 10.359375 -0.148438 9.921875 -0.109375 C 9.492188 -0.078125 8.992188 -0.0507812 8.421875 -0.03125 C 7.859375 -0.0078125 7.269531 0 6.65625 0 C 6.039062 0.0078125 5.445312 0.0078125 4.875 0 C 4.3125 0 3.8125 -0.0078125 3.375 -0.03125 C 2.945312 -0.0507812 2.632812 -0.0703125 2.4375 -0.09375 Z M 2.4375 -0.09375 "/></g></g><g style="fill:#ffffff;fill-opacity:1;"><g transform="translate(372.149054, 84.057903)"><path style="stroke:none" d="M 2.015625 -0.09375 C 1.566406 -0.132812 1.238281 -0.265625 1.03125 -0.484375 C 0.832031 -0.703125 0.710938 -1.019531 0.671875 -1.4375 C 0.597656 -1.988281 0.550781 -2.65625 0.53125 -3.4375 C 0.507812 -4.226562 0.492188 -5.066406 0.484375 -5.953125 C 0.472656 -6.847656 0.472656 -7.726562 0.484375 -8.59375 C 0.492188 -9.457031 0.5 -10.25 0.5 -10.96875 C 0.5 -11.695312 0.488281 -12.28125 0.46875 -12.71875 C 0.457031 -13.082031 0.523438 -13.378906 0.671875 -13.609375 C 0.816406 -13.835938 1.066406 -13.976562 1.421875 -14.03125 C 2.816406 -14.175781 4.175781 -14.222656 5.5 -14.171875 C 6.820312 -14.128906 8.050781 -13.953125 9.1875 -13.640625 C 10.320312 -13.328125 11.304688 -12.859375 12.140625 -12.234375 C 12.972656 -11.609375 13.597656 -10.796875 14.015625 -9.796875 C 14.429688 -8.804688 14.578125 -7.597656 14.453125 -6.171875 C 14.273438 -5.097656 13.882812 -4.164062 13.28125 -3.375 C 12.6875 -2.582031 11.941406 -1.9375 11.046875 -1.4375 C 10.160156 -0.945312 9.179688 -0.601562 8.109375 -0.40625 C 7.109375 -0.207031 6.097656 -0.078125 5.078125 -0.015625 C 4.054688 0.0351562 3.035156 0.0078125 2.015625 -0.09375 Z M 2.90625 -1.765625 C 3.15625 -1.785156 3.53125 -1.800781 4.03125 -1.8125 C 4.539062 -1.832031 5.113281 -1.875 5.75 -1.9375 C 6.394531 -2 7.050781 -2.097656 7.71875 -2.234375 C 8.394531 -2.367188 9.019531 -2.5625 9.59375 -2.8125 C 10.414062 -3.175781 11.066406 -3.664062 11.546875 -4.28125 C 12.023438 -4.90625 12.328125 -5.59375 12.453125 -6.34375 C 12.578125 -7.101562 12.507812 -7.851562 12.25 -8.59375 C 11.988281 -9.332031 11.523438 -9.992188 10.859375 -10.578125 C 9.785156 -11.523438 8.609375 -12.164062 7.328125 -12.5 C 6.046875 -12.832031 4.703125 -12.953125 3.296875 -12.859375 C 2.859375 -12.828125 2.550781 -12.71875 2.375 -12.53125 C 2.207031 -12.34375 2.128906 -12.015625 2.140625 -11.546875 C 2.179688 -10.046875 2.242188 -8.550781 2.328125 -7.0625 C 2.410156 -5.570312 2.363281 -4.078125 2.1875 -2.578125 C 2.15625 -2.316406 2.191406 -2.109375 2.296875 -1.953125 C 2.398438 -1.804688 2.601562 -1.742188 2.90625 -1.765625 Z M 2.90625 -1.765625 "/></g></g><g style="fill:#ffffff;fill-opacity:1;"><g transform="translate(387.112868, 84.057903)"><path style="stroke:none" d="M 2.5625 -2.09375 C 1.863281 -2.988281 1.367188 -3.945312 1.078125 -4.96875 C 0.785156 -5.988281 0.601562 -7.039062 0.53125 -8.125 C 0.46875 -9.0625 0.457031 -10 0.5 -10.9375 C 0.539062 -11.882812 0.628906 -12.820312 0.765625 -13.75 C 0.796875 -13.945312 0.832031 -14.148438 0.875 -14.359375 C 0.925781 -14.566406 1 -14.738281 1.09375 -14.875 C 1.195312 -15.019531 1.332031 -15.085938 1.5 -15.078125 C 1.664062 -15.078125 1.796875 -15.023438 1.890625 -14.921875 C 1.984375 -14.816406 2.035156 -14.703125 2.046875 -14.578125 C 2.085938 -14.222656 2.109375 -13.863281 2.109375 -13.5 C 2.117188 -13.144531 2.128906 -12.785156 2.140625 -12.421875 C 2.140625 -11.378906 2.140625 -10.410156 2.140625 -9.515625 C 2.140625 -8.628906 2.1875 -7.800781 2.28125 -7.03125 C 2.382812 -6.269531 2.570312 -5.550781 2.84375 -4.875 C 3.289062 -3.851562 3.851562 -3.109375 4.53125 -2.640625 C 5.21875 -2.171875 5.972656 -1.992188 6.796875 -2.109375 C 7.628906 -2.222656 8.472656 -2.640625 9.328125 -3.359375 C 10.015625 -3.953125 10.539062 -4.625 10.90625 -5.375 C 11.28125 -6.132812 11.566406 -6.9375 11.765625 -7.78125 C 11.941406 -8.5 12.050781 -9.234375 12.09375 -9.984375 C 12.132812 -10.734375 12.125 -11.476562 12.0625 -12.21875 C 12.019531 -12.550781 12 -12.914062 12 -13.3125 C 12 -13.71875 12.050781 -14.070312 12.15625 -14.375 C 12.269531 -14.6875 12.460938 -14.847656 12.734375 -14.859375 C 12.910156 -14.859375 13.054688 -14.789062 13.171875 -14.65625 C 13.285156 -14.519531 13.367188 -14.363281 13.421875 -14.1875 C 13.484375 -14.007812 13.515625 -13.863281 13.515625 -13.75 C 13.546875 -12.800781 13.5625 -11.847656 13.5625 -10.890625 C 13.570312 -9.929688 13.519531 -8.976562 13.40625 -8.03125 C 13.300781 -7.082031 13.097656 -6.140625 12.796875 -5.203125 C 12.492188 -4.222656 12.046875 -3.367188 11.453125 -2.640625 C 10.859375 -1.921875 10.179688 -1.34375 9.421875 -0.90625 C 8.671875 -0.46875 7.882812 -0.203125 7.0625 -0.109375 C 6.238281 -0.0234375 5.4375 -0.140625 4.65625 -0.453125 C 3.882812 -0.773438 3.1875 -1.320312 2.5625 -2.09375 Z M 2.5625 -2.09375 "/></g></g><g style="fill:#ffffff;fill-opacity:1;"><g transform="translate(401.450046, 84.057903)"><path style="stroke:none" d="M 3 0.625 C 2.46875 0.664062 2.054688 0.644531 1.765625 0.5625 C 1.472656 0.476562 1.253906 0.300781 1.109375 0.03125 C 0.972656 -0.238281 0.867188 -0.628906 0.796875 -1.140625 C 0.671875 -2.078125 0.582031 -3.0625 0.53125 -4.09375 C 0.476562 -5.132812 0.457031 -6.148438 0.46875 -7.140625 C 0.488281 -8.140625 0.519531 -9.054688 0.5625 -9.890625 C 0.613281 -10.722656 0.664062 -11.421875 0.71875 -11.984375 C 0.78125 -12.546875 0.832031 -12.90625 0.875 -13.0625 C 0.9375 -13.3125 1.035156 -13.535156 1.171875 -13.734375 C 1.316406 -13.929688 1.546875 -14.003906 1.859375 -13.953125 C 2.140625 -13.929688 2.316406 -13.816406 2.390625 -13.609375 C 2.460938 -13.410156 2.507812 -13.191406 2.53125 -12.953125 C 2.59375 -12.035156 2.597656 -11.117188 2.546875 -10.203125 C 2.503906 -9.296875 2.453125 -8.390625 2.390625 -7.484375 C 2.316406 -6.398438 2.285156 -5.320312 2.296875 -4.25 C 2.304688 -3.175781 2.316406 -2.078125 2.328125 -0.953125 C 3.441406 -1.085938 4.523438 -1.175781 5.578125 -1.21875 C 6.640625 -1.269531 7.691406 -1.265625 8.734375 -1.203125 C 8.921875 -1.179688 9.132812 -1.179688 9.375 -1.203125 C 9.613281 -1.222656 9.828125 -1.207031 10.015625 -1.15625 C 10.203125 -1.101562 10.300781 -0.960938 10.3125 -0.734375 C 10.332031 -0.441406 10.253906 -0.242188 10.078125 -0.140625 C 9.898438 -0.046875 9.6875 0.00390625 9.4375 0.015625 C 9.1875 0.0234375 8.960938 0.046875 8.765625 0.078125 C 7.804688 0.203125 6.84375 0.304688 5.875 0.390625 C 4.914062 0.472656 3.957031 0.550781 3 0.625 Z M 3 0.625 "/></g></g><g style="fill:#ffffff;fill-opacity:1;"><g transform="translate(412.236149, 84.057903)"><path style="stroke:none" d="M 2.4375 -0.09375 C 1.914062 -0.1875 1.507812 -0.296875 1.21875 -0.421875 C 0.9375 -0.546875 0.742188 -0.742188 0.640625 -1.015625 C 0.546875 -1.296875 0.488281 -1.695312 0.46875 -2.21875 C 0.457031 -3.15625 0.476562 -4.09375 0.53125 -5.03125 C 0.59375 -5.96875 0.628906 -6.90625 0.640625 -7.84375 C 0.660156 -8.457031 0.703125 -9.078125 0.765625 -9.703125 C 0.828125 -10.335938 0.863281 -10.960938 0.875 -11.578125 C 0.894531 -12.203125 0.835938 -12.820312 0.703125 -13.4375 C 0.640625 -13.738281 0.6875 -13.945312 0.84375 -14.0625 C 1 -14.1875 1.1875 -14.289062 1.40625 -14.375 C 1.820312 -14.519531 2.253906 -14.609375 2.703125 -14.640625 C 3.148438 -14.671875 3.59375 -14.675781 4.03125 -14.65625 C 4.59375 -14.632812 5.226562 -14.601562 5.9375 -14.5625 C 6.644531 -14.53125 7.363281 -14.492188 8.09375 -14.453125 C 8.820312 -14.421875 9.5 -14.382812 10.125 -14.34375 C 10.75 -14.3125 11.269531 -14.28125 11.6875 -14.25 C 12.113281 -14.21875 12.367188 -14.1875 12.453125 -14.15625 C 12.648438 -14.113281 12.820312 -14.023438 12.96875 -13.890625 C 13.113281 -13.765625 13.1875 -13.597656 13.1875 -13.390625 C 13.175781 -13.117188 13.082031 -12.921875 12.90625 -12.796875 C 12.738281 -12.679688 12.53125 -12.617188 12.28125 -12.609375 C 11.675781 -12.597656 11.066406 -12.59375 10.453125 -12.59375 C 9.847656 -12.59375 9.242188 -12.628906 8.640625 -12.703125 C 7.765625 -12.804688 6.882812 -12.867188 6 -12.890625 C 5.113281 -12.910156 4.226562 -12.921875 3.34375 -12.921875 C 3.019531 -12.921875 2.789062 -12.859375 2.65625 -12.734375 C 2.53125 -12.609375 2.492188 -12.382812 2.546875 -12.0625 C 2.609375 -11.632812 2.65625 -11.210938 2.6875 -10.796875 C 2.71875 -10.390625 2.738281 -9.976562 2.75 -9.5625 C 2.757812 -9.207031 2.84375 -8.960938 3 -8.828125 C 3.15625 -8.703125 3.414062 -8.664062 3.78125 -8.71875 C 4.789062 -8.863281 5.804688 -8.921875 6.828125 -8.890625 C 7.859375 -8.867188 8.878906 -8.8125 9.890625 -8.71875 C 10.054688 -8.695312 10.238281 -8.691406 10.4375 -8.703125 C 10.644531 -8.722656 10.820312 -8.695312 10.96875 -8.625 C 11.125 -8.5625 11.203125 -8.394531 11.203125 -8.125 C 11.203125 -7.882812 11.125 -7.722656 10.96875 -7.640625 C 10.820312 -7.554688 10.644531 -7.507812 10.4375 -7.5 C 10.238281 -7.488281 10.054688 -7.460938 9.890625 -7.421875 C 8.960938 -7.234375 8.03125 -7.09375 7.09375 -7 C 6.15625 -6.914062 5.222656 -6.851562 4.296875 -6.8125 C 3.835938 -6.800781 3.507812 -6.769531 3.3125 -6.71875 C 3.125 -6.675781 3.007812 -6.5625 2.96875 -6.375 C 2.9375 -6.195312 2.914062 -5.894531 2.90625 -5.46875 L 2.90625 -3.46875 C 2.894531 -3.082031 2.90625 -2.800781 2.9375 -2.625 C 2.96875 -2.457031 3.070312 -2.359375 3.25 -2.328125 C 3.425781 -2.304688 3.722656 -2.296875 4.140625 -2.296875 C 4.316406 -2.296875 4.632812 -2.300781 5.09375 -2.3125 C 5.5625 -2.320312 6.085938 -2.332031 6.671875 -2.34375 C 7.265625 -2.351562 7.851562 -2.359375 8.4375 -2.359375 C 9.03125 -2.359375 9.550781 -2.347656 10 -2.328125 C 10.445312 -2.316406 10.753906 -2.300781 10.921875 -2.28125 C 11.140625 -2.238281 11.363281 -2.191406 11.59375 -2.140625 C 11.820312 -2.085938 12.007812 -1.992188 12.15625 -1.859375 C 12.3125 -1.734375 12.382812 -1.523438 12.375 -1.234375 C 12.363281 -0.960938 12.273438 -0.765625 12.109375 -0.640625 C 11.941406 -0.515625 11.742188 -0.425781 11.515625 -0.375 C 11.296875 -0.320312 11.078125 -0.273438 10.859375 -0.234375 C 10.671875 -0.191406 10.359375 -0.148438 9.921875 -0.109375 C 9.492188 -0.078125 8.992188 -0.0507812 8.421875 -0.03125 C 7.859375 -0.0078125 7.269531 0 6.65625 0 C 6.039062 0.0078125 5.445312 0.0078125 4.875 0 C 4.3125 0 3.8125 -0.0078125 3.375 -0.03125 C 2.945312 -0.0507812 2.632812 -0.0703125 2.4375 -0.09375 Z M 2.4375 -0.09375 "/></g></g><g style="fill:#ffffff;fill-opacity:1;"><g transform="translate(425.908688, 84.057903)"><path style="stroke:none" d=""/></g></g><g style="fill:#ffffff;fill-opacity:1;"><g transform="translate(435.403481, 84.057903)"><path style="stroke:none" d="M 12.953125 -2.109375 C 12.128906 -1.335938 11.222656 -0.765625 10.234375 -0.390625 C 9.253906 -0.0234375 8.265625 0.144531 7.265625 0.125 C 6.265625 0.101562 5.316406 -0.0976562 4.421875 -0.484375 C 3.535156 -0.867188 2.765625 -1.425781 2.109375 -2.15625 C 1.460938 -2.882812 0.992188 -3.769531 0.703125 -4.8125 C 0.421875 -5.863281 0.394531 -7.066406 0.625 -8.421875 C 0.863281 -9.796875 1.332031 -10.925781 2.03125 -11.8125 C 2.726562 -12.707031 3.617188 -13.347656 4.703125 -13.734375 C 5.796875 -14.128906 7.023438 -14.25 8.390625 -14.09375 C 9.054688 -14.019531 9.710938 -13.910156 10.359375 -13.765625 C 11.003906 -13.628906 11.625 -13.394531 12.21875 -13.0625 C 12.957031 -12.65625 13.566406 -12.148438 14.046875 -11.546875 C 14.523438 -10.953125 14.789062 -10.203125 14.84375 -9.296875 C 14.851562 -9.148438 14.851562 -8.988281 14.84375 -8.8125 C 14.832031 -8.644531 14.71875 -8.53125 14.5 -8.46875 C 14.300781 -8.40625 14.140625 -8.445312 14.015625 -8.59375 C 13.890625 -8.75 13.773438 -8.945312 13.671875 -9.1875 C 13.566406 -9.425781 13.453125 -9.648438 13.328125 -9.859375 C 13.085938 -10.296875 12.789062 -10.6875 12.4375 -11.03125 C 12.09375 -11.382812 11.675781 -11.65625 11.1875 -11.84375 C 10.445312 -12.125 9.695312 -12.3125 8.9375 -12.40625 C 8.175781 -12.5 7.40625 -12.488281 6.625 -12.375 C 5.894531 -12.269531 5.253906 -12.03125 4.703125 -11.65625 C 4.148438 -11.28125 3.679688 -10.773438 3.296875 -10.140625 C 2.796875 -9.316406 2.5 -8.460938 2.40625 -7.578125 C 2.320312 -6.691406 2.394531 -5.785156 2.625 -4.859375 C 2.78125 -4.191406 3.082031 -3.640625 3.53125 -3.203125 C 3.976562 -2.773438 4.507812 -2.4375 5.125 -2.1875 C 6.21875 -1.75 7.300781 -1.585938 8.375 -1.703125 C 9.445312 -1.816406 10.4375 -2.179688 11.34375 -2.796875 C 12.257812 -3.421875 13.003906 -4.257812 13.578125 -5.3125 C 13.648438 -5.457031 13.71875 -5.601562 13.78125 -5.75 C 13.851562 -5.894531 14.003906 -5.921875 14.234375 -5.828125 C 14.390625 -5.773438 14.472656 -5.675781 14.484375 -5.53125 C 14.492188 -5.382812 14.5 -5.242188 14.5 -5.109375 C 14.476562 -4.484375 14.320312 -3.925781 14.03125 -3.4375 C 13.75 -2.957031 13.390625 -2.515625 12.953125 -2.109375 Z M 12.953125 -2.109375 "/></g></g><g style="fill:#ffffff;fill-opacity:1;"><g transform="translate(450.747086, 84.057903)"><path style="stroke:none" d="M 0.90625 0.5 C 0.664062 0.4375 0.53125 0.304688 0.5 0.109375 C 0.476562 -0.078125 0.476562 -0.269531 0.5 -0.46875 C 0.570312 -1.050781 0.691406 -1.617188 0.859375 -2.171875 C 1.035156 -2.734375 1.269531 -3.265625 1.5625 -3.765625 C 2.332031 -5.078125 3.023438 -6.425781 3.640625 -7.8125 C 4.265625 -9.207031 4.914062 -10.582031 5.59375 -11.9375 C 5.875 -12.507812 6.171875 -12.816406 6.484375 -12.859375 C 6.796875 -12.898438 7.144531 -12.695312 7.53125 -12.25 C 7.5625 -12.207031 7.671875 -11.992188 7.859375 -11.609375 C 8.054688 -11.234375 8.300781 -10.738281 8.59375 -10.125 C 8.882812 -9.507812 9.207031 -8.828125 9.5625 -8.078125 C 9.914062 -7.328125 10.265625 -6.554688 10.609375 -5.765625 C 10.953125 -4.972656 11.269531 -4.207031 11.5625 -3.46875 C 11.863281 -2.738281 12.101562 -2.082031 12.28125 -1.5 C 12.332031 -1.363281 12.375 -1.191406 12.40625 -0.984375 C 12.4375 -0.785156 12.429688 -0.59375 12.390625 -0.40625 C 12.347656 -0.226562 12.238281 -0.09375 12.0625 0 C 11.851562 0.101562 11.628906 0.0976562 11.390625 -0.015625 C 11.160156 -0.140625 10.925781 -0.335938 10.6875 -0.609375 C 10.457031 -0.890625 10.25 -1.195312 10.0625 -1.53125 C 9.882812 -1.863281 9.75 -2.203125 9.65625 -2.546875 C 9.53125 -3.046875 9.316406 -3.378906 9.015625 -3.546875 C 8.710938 -3.710938 8.320312 -3.785156 7.84375 -3.765625 C 7.257812 -3.734375 6.675781 -3.71875 6.09375 -3.71875 C 5.507812 -3.726562 4.929688 -3.785156 4.359375 -3.890625 C 3.867188 -3.984375 3.53125 -3.785156 3.34375 -3.296875 C 3.195312 -2.921875 3.039062 -2.5 2.875 -2.03125 C 2.707031 -1.570312 2.523438 -1.132812 2.328125 -0.71875 C 2.128906 -0.300781 1.910156 0.0234375 1.671875 0.265625 C 1.429688 0.503906 1.175781 0.582031 0.90625 0.5 Z M 4.59375 -5.921875 L 8.03125 -5.921875 L 6.34375 -9.765625 C 6.019531 -9.046875 5.722656 -8.390625 5.453125 -7.796875 C 5.179688 -7.203125 4.894531 -6.578125 4.59375 -5.921875 Z M 4.59375 -5.921875 "/></g></g><g style="fill:#ffffff;fill-opacity:1;"><g transform="translate(463.641029, 84.057903)"><path style="stroke:none" d="M 1.328125 0.9375 C 0.722656 1.007812 0.4375 0.507812 0.46875 -0.5625 C 0.5 -1.144531 0.53125 -1.722656 0.5625 -2.296875 C 0.59375 -2.878906 0.660156 -3.457031 0.765625 -4.03125 C 0.984375 -5.300781 1.171875 -6.582031 1.328125 -7.875 C 1.492188 -9.164062 1.570312 -10.460938 1.5625 -11.765625 C 1.5625 -11.867188 1.5625 -11.976562 1.5625 -12.09375 C 1.570312 -12.207031 1.582031 -12.320312 1.59375 -12.4375 C 1.726562 -13.3125 2.132812 -13.488281 2.8125 -12.96875 C 3.476562 -12.457031 4.066406 -11.878906 4.578125 -11.234375 C 5.078125 -10.578125 5.644531 -9.863281 6.28125 -9.09375 C 6.925781 -8.332031 7.582031 -7.570312 8.25 -6.8125 C 8.925781 -6.050781 9.5625 -5.359375 10.15625 -4.734375 C 10.75 -4.109375 11.25 -3.59375 11.65625 -3.1875 C 12.0625 -2.789062 12.320312 -2.578125 12.4375 -2.546875 C 12.457031 -3.078125 12.46875 -3.597656 12.46875 -4.109375 C 12.476562 -4.617188 12.441406 -5.128906 12.359375 -5.640625 C 12.242188 -6.460938 12.207031 -7.273438 12.25 -8.078125 C 12.300781 -8.878906 12.375 -9.679688 12.46875 -10.484375 C 12.5625 -11.285156 12.625 -12.09375 12.65625 -12.90625 C 12.675781 -13.082031 12.726562 -13.242188 12.8125 -13.390625 C 12.90625 -13.535156 13.046875 -13.613281 13.234375 -13.625 C 13.472656 -13.65625 13.632812 -13.585938 13.71875 -13.421875 C 13.8125 -13.253906 13.867188 -13.070312 13.890625 -12.875 C 13.890625 -12.875 13.898438 -12.703125 13.921875 -12.359375 C 13.941406 -12.015625 13.96875 -11.554688 14 -10.984375 C 14.03125 -10.421875 14.0625 -9.78125 14.09375 -9.0625 C 14.132812 -8.351562 14.175781 -7.617188 14.21875 -6.859375 C 14.257812 -6.109375 14.289062 -5.378906 14.3125 -4.671875 C 14.34375 -3.960938 14.363281 -3.328125 14.375 -2.765625 C 14.382812 -2.203125 14.382812 -1.757812 14.375 -1.4375 C 14.363281 -1.019531 14.316406 -0.628906 14.234375 -0.265625 C 14.160156 0.0976562 14.050781 0.394531 13.90625 0.625 C 13.757812 0.863281 13.566406 1 13.328125 1.03125 C 13.085938 1.0625 12.796875 0.945312 12.453125 0.6875 C 12.234375 0.507812 12.035156 0.3125 11.859375 0.09375 C 11.679688 -0.125 11.503906 -0.332031 11.328125 -0.53125 C 10.878906 -1.082031 10.367188 -1.71875 9.796875 -2.4375 C 9.222656 -3.15625 8.640625 -3.894531 8.046875 -4.65625 C 7.453125 -5.414062 6.863281 -6.148438 6.28125 -6.859375 C 5.707031 -7.578125 5.175781 -8.21875 4.6875 -8.78125 C 4.207031 -9.351562 3.796875 -9.800781 3.453125 -10.125 C 3.109375 -10.457031 2.867188 -10.613281 2.734375 -10.59375 C 2.671875 -9.351562 2.597656 -8.101562 2.515625 -6.84375 C 2.441406 -5.59375 2.375 -4.335938 2.3125 -3.078125 C 2.300781 -2.734375 2.300781 -2.34375 2.3125 -1.90625 C 2.320312 -1.476562 2.316406 -1.054688 2.296875 -0.640625 C 2.273438 -0.222656 2.191406 0.128906 2.046875 0.421875 C 1.898438 0.710938 1.660156 0.882812 1.328125 0.9375 Z M 1.328125 0.9375 "/></g></g><g style="fill:#ffffff;fill-opacity:1;"><g transform="translate(478.509913, 84.057903)"><path style="stroke:none" d="M 12.953125 -2.109375 C 12.128906 -1.335938 11.222656 -0.765625 10.234375 -0.390625 C 9.253906 -0.0234375 8.265625 0.144531 7.265625 0.125 C 6.265625 0.101562 5.316406 -0.0976562 4.421875 -0.484375 C 3.535156 -0.867188 2.765625 -1.425781 2.109375 -2.15625 C 1.460938 -2.882812 0.992188 -3.769531 0.703125 -4.8125 C 0.421875 -5.863281 0.394531 -7.066406 0.625 -8.421875 C 0.863281 -9.796875 1.332031 -10.925781 2.03125 -11.8125 C 2.726562 -12.707031 3.617188 -13.347656 4.703125 -13.734375 C 5.796875 -14.128906 7.023438 -14.25 8.390625 -14.09375 C 9.054688 -14.019531 9.710938 -13.910156 10.359375 -13.765625 C 11.003906 -13.628906 11.625 -13.394531 12.21875 -13.0625 C 12.957031 -12.65625 13.566406 -12.148438 14.046875 -11.546875 C 14.523438 -10.953125 14.789062 -10.203125 14.84375 -9.296875 C 14.851562 -9.148438 14.851562 -8.988281 14.84375 -8.8125 C 14.832031 -8.644531 14.71875 -8.53125 14.5 -8.46875 C 14.300781 -8.40625 14.140625 -8.445312 14.015625 -8.59375 C 13.890625 -8.75 13.773438 -8.945312 13.671875 -9.1875 C 13.566406 -9.425781 13.453125 -9.648438 13.328125 -9.859375 C 13.085938 -10.296875 12.789062 -10.6875 12.4375 -11.03125 C 12.09375 -11.382812 11.675781 -11.65625 11.1875 -11.84375 C 10.445312 -12.125 9.695312 -12.3125 8.9375 -12.40625 C 8.175781 -12.5 7.40625 -12.488281 6.625 -12.375 C 5.894531 -12.269531 5.253906 -12.03125 4.703125 -11.65625 C 4.148438 -11.28125 3.679688 -10.773438 3.296875 -10.140625 C 2.796875 -9.316406 2.5 -8.460938 2.40625 -7.578125 C 2.320312 -6.691406 2.394531 -5.785156 2.625 -4.859375 C 2.78125 -4.191406 3.082031 -3.640625 3.53125 -3.203125 C 3.976562 -2.773438 4.507812 -2.4375 5.125 -2.1875 C 6.21875 -1.75 7.300781 -1.585938 8.375 -1.703125 C 9.445312 -1.816406 10.4375 -2.179688 11.34375 -2.796875 C 12.257812 -3.421875 13.003906 -4.257812 13.578125 -5.3125 C 13.648438 -5.457031 13.71875 -5.601562 13.78125 -5.75 C 13.851562 -5.894531 14.003906 -5.921875 14.234375 -5.828125 C 14.390625 -5.773438 14.472656 -5.675781 14.484375 -5.53125 C 14.492188 -5.382812 14.5 -5.242188 14.5 -5.109375 C 14.476562 -4.484375 14.320312 -3.925781 14.03125 -3.4375 C 13.75 -2.957031 13.390625 -2.515625 12.953125 -2.109375 Z M 12.953125 -2.109375 "/></g></g><g style="fill:#ffffff;fill-opacity:1;"><g transform="translate(493.853517, 84.057903)"><path style="stroke:none" d="M 2.4375 -0.09375 C 1.914062 -0.1875 1.507812 -0.296875 1.21875 -0.421875 C 0.9375 -0.546875 0.742188 -0.742188 0.640625 -1.015625 C 0.546875 -1.296875 0.488281 -1.695312 0.46875 -2.21875 C 0.457031 -3.15625 0.476562 -4.09375 0.53125 -5.03125 C 0.59375 -5.96875 0.628906 -6.90625 0.640625 -7.84375 C 0.660156 -8.457031 0.703125 -9.078125 0.765625 -9.703125 C 0.828125 -10.335938 0.863281 -10.960938 0.875 -11.578125 C 0.894531 -12.203125 0.835938 -12.820312 0.703125 -13.4375 C 0.640625 -13.738281 0.6875 -13.945312 0.84375 -14.0625 C 1 -14.1875 1.1875 -14.289062 1.40625 -14.375 C 1.820312 -14.519531 2.253906 -14.609375 2.703125 -14.640625 C 3.148438 -14.671875 3.59375 -14.675781 4.03125 -14.65625 C 4.59375 -14.632812 5.226562 -14.601562 5.9375 -14.5625 C 6.644531 -14.53125 7.363281 -14.492188 8.09375 -14.453125 C 8.820312 -14.421875 9.5 -14.382812 10.125 -14.34375 C 10.75 -14.3125 11.269531 -14.28125 11.6875 -14.25 C 12.113281 -14.21875 12.367188 -14.1875 12.453125 -14.15625 C 12.648438 -14.113281 12.820312 -14.023438 12.96875 -13.890625 C 13.113281 -13.765625 13.1875 -13.597656 13.1875 -13.390625 C 13.175781 -13.117188 13.082031 -12.921875 12.90625 -12.796875 C 12.738281 -12.679688 12.53125 -12.617188 12.28125 -12.609375 C 11.675781 -12.597656 11.066406 -12.59375 10.453125 -12.59375 C 9.847656 -12.59375 9.242188 -12.628906 8.640625 -12.703125 C 7.765625 -12.804688 6.882812 -12.867188 6 -12.890625 C 5.113281 -12.910156 4.226562 -12.921875 3.34375 -12.921875 C 3.019531 -12.921875 2.789062 -12.859375 2.65625 -12.734375 C 2.53125 -12.609375 2.492188 -12.382812 2.546875 -12.0625 C 2.609375 -11.632812 2.65625 -11.210938 2.6875 -10.796875 C 2.71875 -10.390625 2.738281 -9.976562 2.75 -9.5625 C 2.757812 -9.207031 2.84375 -8.960938 3 -8.828125 C 3.15625 -8.703125 3.414062 -8.664062 3.78125 -8.71875 C 4.789062 -8.863281 5.804688 -8.921875 6.828125 -8.890625 C 7.859375 -8.867188 8.878906 -8.8125 9.890625 -8.71875 C 10.054688 -8.695312 10.238281 -8.691406 10.4375 -8.703125 C 10.644531 -8.722656 10.820312 -8.695312 10.96875 -8.625 C 11.125 -8.5625 11.203125 -8.394531 11.203125 -8.125 C 11.203125 -7.882812 11.125 -7.722656 10.96875 -7.640625 C 10.820312 -7.554688 10.644531 -7.507812 10.4375 -7.5 C 10.238281 -7.488281 10.054688 -7.460938 9.890625 -7.421875 C 8.960938 -7.234375 8.03125 -7.09375 7.09375 -7 C 6.15625 -6.914062 5.222656 -6.851562 4.296875 -6.8125 C 3.835938 -6.800781 3.507812 -6.769531 3.3125 -6.71875 C 3.125 -6.675781 3.007812 -6.5625 2.96875 -6.375 C 2.9375 -6.195312 2.914062 -5.894531 2.90625 -5.46875 L 2.90625 -3.46875 C 2.894531 -3.082031 2.90625 -2.800781 2.9375 -2.625 C 2.96875 -2.457031 3.070312 -2.359375 3.25 -2.328125 C 3.425781 -2.304688 3.722656 -2.296875 4.140625 -2.296875 C 4.316406 -2.296875 4.632812 -2.300781 5.09375 -2.3125 C 5.5625 -2.320312 6.085938 -2.332031 6.671875 -2.34375 C 7.265625 -2.351562 7.851562 -2.359375 8.4375 -2.359375 C 9.03125 -2.359375 9.550781 -2.347656 10 -2.328125 C 10.445312 -2.316406 10.753906 -2.300781 10.921875 -2.28125 C 11.140625 -2.238281 11.363281 -2.191406 11.59375 -2.140625 C 11.820312 -2.085938 12.007812 -1.992188 12.15625 -1.859375 C 12.3125 -1.734375 12.382812 -1.523438 12.375 -1.234375 C 12.363281 -0.960938 12.273438 -0.765625 12.109375 -0.640625 C 11.941406 -0.515625 11.742188 -0.425781 11.515625 -0.375 C 11.296875 -0.320312 11.078125 -0.273438 10.859375 -0.234375 C 10.671875 -0.191406 10.359375 -0.148438 9.921875 -0.109375 C 9.492188 -0.078125 8.992188 -0.0507812 8.421875 -0.03125 C 7.859375 -0.0078125 7.269531 0 6.65625 0 C 6.039062 0.0078125 5.445312 0.0078125 4.875 0 C 4.3125 0 3.8125 -0.0078125 3.375 -0.03125 C 2.945312 -0.0507812 2.632812 -0.0703125 2.4375 -0.09375 Z M 2.4375 -0.09375 "/></g></g><g style="fill:#ffffff;fill-opacity:1;"><g transform="translate(507.526033, 84.057903)"><path style="stroke:none" d="M 3 0.625 C 2.46875 0.664062 2.054688 0.644531 1.765625 0.5625 C 1.472656 0.476562 1.253906 0.300781 1.109375 0.03125 C 0.972656 -0.238281 0.867188 -0.628906 0.796875 -1.140625 C 0.671875 -2.078125 0.582031 -3.0625 0.53125 -4.09375 C 0.476562 -5.132812 0.457031 -6.148438 0.46875 -7.140625 C 0.488281 -8.140625 0.519531 -9.054688 0.5625 -9.890625 C 0.613281 -10.722656 0.664062 -11.421875 0.71875 -11.984375 C 0.78125 -12.546875 0.832031 -12.90625 0.875 -13.0625 C 0.9375 -13.3125 1.035156 -13.535156 1.171875 -13.734375 C 1.316406 -13.929688 1.546875 -14.003906 1.859375 -13.953125 C 2.140625 -13.929688 2.316406 -13.816406 2.390625 -13.609375 C 2.460938 -13.410156 2.507812 -13.191406 2.53125 -12.953125 C 2.59375 -12.035156 2.597656 -11.117188 2.546875 -10.203125 C 2.503906 -9.296875 2.453125 -8.390625 2.390625 -7.484375 C 2.316406 -6.398438 2.285156 -5.320312 2.296875 -4.25 C 2.304688 -3.175781 2.316406 -2.078125 2.328125 -0.953125 C 3.441406 -1.085938 4.523438 -1.175781 5.578125 -1.21875 C 6.640625 -1.269531 7.691406 -1.265625 8.734375 -1.203125 C 8.921875 -1.179688 9.132812 -1.179688 9.375 -1.203125 C 9.613281 -1.222656 9.828125 -1.207031 10.015625 -1.15625 C 10.203125 -1.101562 10.300781 -0.960938 10.3125 -0.734375 C 10.332031 -0.441406 10.253906 -0.242188 10.078125 -0.140625 C 9.898438 -0.046875 9.6875 0.00390625 9.4375 0.015625 C 9.1875 0.0234375 8.960938 0.046875 8.765625 0.078125 C 7.804688 0.203125 6.84375 0.304688 5.875 0.390625 C 4.914062 0.472656 3.957031 0.550781 3 0.625 Z M 3 0.625 "/></g></g></g></svg>