<svg xmlns="http://www.w3.org/2000/svg" xmlns:xlink="http://www.w3.org/1999/xlink" width="1563" zoomAndPan="magnify" viewBox="0 0 1172.25 561.000005" height="748" preserveAspectRatio="xMidYMid meet" version="1.2"><defs/><g id="6900277dfb"><g style="fill:#ffffff;fill-opacity:1;"><g transform="translate(96.908817, 340.399442)"><path style="stroke:none" d="M 133.734375 -214.21875 L 133.734375 -162.796875 L 94.5625 -162.796875 L 94.5625 0 L 41.3125 0 L 41.3125 -162.796875 L 2.140625 -162.796875 L 2.140625 -214.21875 Z M 133.734375 -214.21875 "/></g></g><g style="fill:#ffffff;fill-opacity:1;"><g transform="translate(215.946305, 340.399442)"><path style="stroke:none" d="M 83.234375 -54.171875 L 64.5625 -83.546875 L 104.65625 -109.859375 C 101.1875 -111.898438 97.921875 -113.273438 94.859375 -113.984375 C 91.804688 -114.703125 88.75 -115.0625 85.6875 -115.0625 C 80.988281 -115.0625 76.753906 -113.988281 72.984375 -111.84375 C 69.210938 -109.707031 65.945312 -106.851562 63.1875 -103.28125 C 60.4375 -99.707031 58.296875 -95.625 56.765625 -91.03125 C 55.234375 -86.445312 54.46875 -81.707031 54.46875 -76.8125 C 54.46875 -71.507812 55.382812 -66.613281 57.21875 -62.125 C 59.0625 -57.632812 61.507812 -53.65625 64.5625 -50.1875 C 67.625 -46.71875 71.144531 -44.015625 75.125 -42.078125 C 79.101562 -40.140625 83.234375 -39.171875 87.515625 -39.171875 C 96.085938 -39.171875 104.453125 -42.28125 112.609375 -48.5 C 120.773438 -54.726562 127 -62.738281 131.28125 -72.53125 L 166.46875 -54.46875 C 162.800781 -45.695312 158.109375 -37.738281 152.390625 -30.59375 C 146.679688 -23.457031 140.253906 -17.335938 133.109375 -12.234375 C 125.972656 -7.140625 118.273438 -3.210938 110.015625 -0.453125 C 101.753906 2.296875 93.132812 3.671875 84.15625 3.671875 C 73.75 3.671875 63.90625 1.582031 54.625 -2.59375 C 45.34375 -6.78125 37.179688 -12.492188 30.140625 -19.734375 C 23.097656 -26.984375 17.535156 -35.296875 13.453125 -44.671875 C 9.378906 -54.054688 7.34375 -63.953125 7.34375 -74.359375 C 7.34375 -84.765625 9.378906 -94.660156 13.453125 -104.046875 C 17.535156 -113.429688 23.097656 -121.691406 30.140625 -128.828125 C 37.179688 -135.972656 45.34375 -141.6875 54.625 -145.96875 C 63.90625 -150.25 73.75 -152.390625 84.15625 -152.390625 C 101.289062 -152.390625 115.722656 -148.101562 127.453125 -139.53125 C 139.179688 -130.96875 149.023438 -119.445312 156.984375 -104.96875 Z M 83.234375 -54.171875 "/></g></g><g style="fill:#ffffff;fill-opacity:1;"><g transform="translate(386.08729, 340.399442)"><path style="stroke:none" d="M 6.734375 -148.71875 L 12.859375 -148.71875 C 21.015625 -148.71875 28 -148.257812 33.8125 -147.34375 C 39.625 -146.425781 44.570312 -144.945312 48.65625 -142.90625 C 52.738281 -140.863281 56.257812 -138.257812 59.21875 -135.09375 C 62.175781 -131.9375 65.082031 -128.21875 67.9375 -123.9375 C 70.382812 -128.21875 73.132812 -131.9375 76.1875 -135.09375 C 79.25 -138.257812 82.867188 -140.8125 87.046875 -142.75 C 91.234375 -144.6875 96.082031 -146.164062 101.59375 -147.1875 C 107.101562 -148.207031 113.734375 -148.71875 121.484375 -148.71875 L 129.140625 -148.71875 L 129.140625 -105.875 C 115.472656 -105.875 105.78125 -103.375 100.0625 -98.375 C 94.351562 -93.382812 91.5 -85.378906 91.5 -74.359375 C 91.5 -63.347656 94.351562 -55.34375 100.0625 -50.34375 C 105.78125 -45.34375 115.472656 -42.84375 129.140625 -42.84375 L 129.140625 0 L 120.265625 0 C 112.515625 0 105.882812 -0.507812 100.375 -1.53125 C 94.863281 -2.550781 90.171875 -4.128906 86.296875 -6.265625 C 82.421875 -8.410156 79.050781 -11.015625 76.1875 -14.078125 C 73.332031 -17.140625 70.582031 -20.707031 67.9375 -24.78125 C 65.082031 -20.5 62.175781 -16.773438 59.21875 -13.609375 C 56.257812 -10.453125 52.789062 -7.90625 48.8125 -5.96875 C 44.832031 -4.03125 40.140625 -2.550781 34.734375 -1.53125 C 29.328125 -0.507812 22.75 0 15 0 L 6.734375 0 L 6.734375 -42.84375 C 20.398438 -42.84375 30.085938 -45.34375 35.796875 -50.34375 C 41.515625 -55.34375 44.375 -63.347656 44.375 -74.359375 C 44.375 -85.378906 41.515625 -93.382812 35.796875 -98.375 C 30.085938 -103.375 20.398438 -105.875 6.734375 -105.875 Z M 6.734375 -148.71875 "/></g></g><g style="fill:#ffffff;fill-opacity:1;"><g transform="translate(521.955314, 340.399442)"><path style="stroke:none" d="M 59.0625 -185.453125 L 59.0625 -149.953125 L 93.640625 -149.953125 L 93.640625 -105.265625 L 58.75 -105.265625 L 58.75 -65.484375 C 58.75 -57.734375 60.429688 -52.328125 63.796875 -49.265625 C 67.171875 -46.203125 73.851562 -44.671875 83.84375 -44.671875 C 85.476562 -44.671875 87.109375 -44.722656 88.734375 -44.828125 C 90.367188 -44.929688 92.207031 -45.085938 94.25 -45.296875 L 94.25 0 L 65.484375 0 C 57.117188 0 49.617188 -1.273438 42.984375 -3.828125 C 36.359375 -6.378906 30.75 -10 26.15625 -14.6875 C 21.570312 -19.382812 18.003906 -24.992188 15.453125 -31.515625 C 12.898438 -38.046875 11.625 -45.289062 11.625 -53.25 L 11.625 -185.453125 Z M 59.0625 -185.453125 "/></g></g><g style="fill:#ffffff;fill-opacity:1;"><g transform="translate(623.856341, 340.399442)"><path style="stroke:none" d="M 70.390625 -190.03125 C 70.390625 -182.070312 67.6875 -175.441406 62.28125 -170.140625 C 56.875 -164.835938 50.289062 -162.1875 42.53125 -162.1875 C 34.78125 -162.1875 28.203125 -164.835938 22.796875 -170.140625 C 17.390625 -175.441406 14.6875 -182.070312 14.6875 -190.03125 C 14.6875 -197.988281 17.390625 -204.617188 22.796875 -209.921875 C 28.203125 -215.234375 34.78125 -217.890625 42.53125 -217.890625 C 50.289062 -217.890625 56.875 -215.234375 62.28125 -209.921875 C 67.6875 -204.617188 70.390625 -197.988281 70.390625 -190.03125 Z M 67.015625 -148.71875 L 67.015625 0 L 18.0625 0 L 18.0625 -148.71875 Z M 67.015625 -148.71875 "/></g></g><g style="fill:#ffffff;fill-opacity:1;"><g transform="translate(708.926835, 340.399442)"><path style="stroke:none" d="M 99.765625 -214.21875 L 99.765625 -169.53125 L 76.5 -169.53125 C 71.40625 -169.53125 67.679688 -168.050781 65.328125 -165.09375 C 62.984375 -162.132812 61.8125 -157.085938 61.8125 -149.953125 L 99.765625 -149.953125 L 99.765625 -105.265625 L 61.8125 -105.265625 L 61.8125 0 L 12.859375 0 L 12.859375 -161.265625 C 12.859375 -168.816406 14.335938 -175.851562 17.296875 -182.375 C 20.253906 -188.90625 24.332031 -194.515625 29.53125 -199.203125 C 34.726562 -203.898438 40.945312 -207.578125 48.1875 -210.234375 C 55.4375 -212.890625 63.242188 -214.21875 71.609375 -214.21875 Z M 99.765625 -214.21875 "/></g></g><g style="fill:#ffffff;fill-opacity:1;"><g transform="translate(810.827862, 340.399442)"><path style="stroke:none" d="M 59.359375 -148.71875 L 59.359375 -61.8125 C 59.359375 -56.101562 60.6875 -51.3125 63.34375 -47.4375 C 66 -43.5625 70.585938 -41.625 77.109375 -41.625 C 80.785156 -41.625 83.691406 -42.234375 85.828125 -43.453125 C 87.972656 -44.679688 89.609375 -46.363281 90.734375 -48.5 C 91.859375 -50.644531 92.625 -52.988281 93.03125 -55.53125 C 93.4375 -58.082031 93.640625 -60.789062 93.640625 -63.65625 L 93.640625 -148.71875 L 140.765625 -148.71875 L 140.765625 -52.015625 C 140.765625 -38.960938 137.445312 -27.894531 130.8125 -18.8125 C 124.1875 -9.738281 114.445312 -3.0625 101.59375 1.21875 L 101.59375 64.265625 L 52.640625 64.265625 L 52.640625 1.21875 C 25.703125 -6.9375 12.234375 -24.679688 12.234375 -52.015625 L 12.234375 -148.71875 Z M 59.359375 -148.71875 "/></g></g><g style="fill:#ffffff;fill-opacity:1;"><g transform="translate(963.832344, 340.399442)"><path style="stroke:none" d="M 79.5625 -214.21875 L 75.28125 -67.625 L 26.3125 -67.625 L 22.03125 -214.21875 Z M 82.015625 -27.546875 C 82.015625 -23.460938 81.25 -19.582031 79.71875 -15.90625 C 78.1875 -12.238281 76.039062 -8.925781 73.28125 -5.96875 C 70.53125 -3.007812 67.269531 -0.664062 63.5 1.0625 C 59.726562 2.800781 55.492188 3.671875 50.796875 3.671875 C 46.304688 3.671875 42.125 2.800781 38.25 1.0625 C 34.375 -0.664062 31.054688 -2.957031 28.296875 -5.8125 C 25.546875 -8.664062 23.40625 -11.976562 21.875 -15.75 C 20.34375 -19.53125 19.578125 -23.460938 19.578125 -27.546875 C 19.578125 -31.828125 20.394531 -35.851562 22.03125 -39.625 C 23.664062 -43.40625 25.859375 -46.722656 28.609375 -49.578125 C 31.367188 -52.429688 34.632812 -54.671875 38.40625 -56.296875 C 42.175781 -57.929688 46.304688 -58.75 50.796875 -58.75 C 55.285156 -58.75 59.46875 -57.878906 63.34375 -56.140625 C 67.21875 -54.410156 70.53125 -52.117188 73.28125 -49.265625 C 76.039062 -46.410156 78.1875 -43.09375 79.71875 -39.3125 C 81.25 -35.539062 82.015625 -31.617188 82.015625 -27.546875 Z M 82.015625 -27.546875 "/></g></g><g style="fill:#ffffff;fill-opacity:1;"><g transform="translate(137.633688, 391.853537)"><path style="stroke:none" d="M 21.03125 -26.859375 L 21.03125 -24.828125 L 9.015625 -24.828125 C 8.484375 -24.828125 7.953125 -24.726562 7.421875 -24.53125 C 6.890625 -24.34375 6.40625 -24.066406 5.96875 -23.703125 C 5.539062 -23.347656 5.1875 -22.890625 4.90625 -22.328125 C 4.625 -21.765625 4.484375 -21.125 4.484375 -20.40625 C 4.484375 -19.5 4.695312 -18.75 5.125 -18.15625 C 5.5625 -17.570312 6.140625 -17.082031 6.859375 -16.6875 C 7.578125 -16.289062 8.40625 -15.957031 9.34375 -15.6875 C 10.289062 -15.425781 11.273438 -15.1875 12.296875 -14.96875 C 13.578125 -14.664062 14.859375 -14.351562 16.140625 -14.03125 C 17.429688 -13.707031 18.585938 -13.257812 19.609375 -12.6875 C 20.628906 -12.125 21.457031 -11.390625 22.09375 -10.484375 C 22.738281 -9.578125 23.0625 -8.382812 23.0625 -6.90625 C 23.0625 -4.488281 22.226562 -2.734375 20.5625 -1.640625 C 18.90625 -0.546875 16.695312 0 13.9375 0 L 2.15625 0 L 2.15625 -2.046875 L 14.390625 -2.046875 C 16.585938 -2.046875 18.1875 -2.453125 19.1875 -3.265625 C 20.1875 -4.078125 20.6875 -5.179688 20.6875 -6.578125 C 20.6875 -7.816406 20.351562 -8.816406 19.6875 -9.578125 C 19.03125 -10.335938 18.171875 -10.953125 17.109375 -11.421875 C 16.054688 -11.890625 14.867188 -12.265625 13.546875 -12.546875 C 12.222656 -12.835938 10.921875 -13.148438 9.640625 -13.484375 C 8.617188 -13.753906 7.65625 -14.046875 6.75 -14.359375 C 5.84375 -14.679688 5.046875 -15.109375 4.359375 -15.640625 C 3.679688 -16.171875 3.132812 -16.8125 2.71875 -17.5625 C 2.300781 -18.320312 2.09375 -19.25 2.09375 -20.34375 C 2.09375 -21.289062 2.269531 -22.171875 2.625 -22.984375 C 2.988281 -23.796875 3.472656 -24.484375 4.078125 -25.046875 C 4.679688 -25.617188 5.390625 -26.0625 6.203125 -26.375 C 7.015625 -26.695312 7.875 -26.859375 8.78125 -26.859375 Z M 21.03125 -26.859375 "/></g></g><g style="fill:#ffffff;fill-opacity:1;"><g transform="translate(166.420147, 391.853537)"><path style="stroke:none" d="M 3.40625 -26.859375 L 5.546875 -26.859375 L 5.546875 -10.59375 C 5.546875 -9.3125 5.765625 -8.113281 6.203125 -7 C 6.640625 -5.882812 7.234375 -4.921875 7.984375 -4.109375 C 8.742188 -3.296875 9.648438 -2.648438 10.703125 -2.171875 C 11.765625 -1.703125 12.921875 -1.46875 14.171875 -1.46875 C 15.378906 -1.46875 16.507812 -1.691406 17.5625 -2.140625 C 18.625 -2.597656 19.539062 -3.242188 20.3125 -4.078125 C 21.09375 -4.910156 21.695312 -5.875 22.125 -6.96875 C 22.5625 -8.0625 22.78125 -9.269531 22.78125 -10.59375 L 22.78125 -26.859375 L 24.9375 -26.859375 L 24.9375 -10.25 C 24.9375 -8.738281 24.671875 -7.320312 24.140625 -6 C 23.609375 -4.6875 22.859375 -3.546875 21.890625 -2.578125 C 20.929688 -1.617188 19.789062 -0.851562 18.46875 -0.28125 C 17.144531 0.28125 15.710938 0.5625 14.171875 0.5625 C 12.617188 0.5625 11.179688 0.28125 9.859375 -0.28125 C 8.535156 -0.851562 7.390625 -1.617188 6.421875 -2.578125 C 5.460938 -3.546875 4.71875 -4.6875 4.1875 -6 C 3.664062 -7.320312 3.40625 -8.738281 3.40625 -10.25 Z M 3.40625 -26.859375 "/></g></g><g style="fill:#ffffff;fill-opacity:1;"><g transform="translate(198.37982, 391.853537)"><path style="stroke:none" d="M 20.515625 -22.15625 C 21.078125 -23.851562 22.007812 -25.15625 23.3125 -26.0625 C 24.625 -26.96875 26.351562 -27.421875 28.5 -27.421875 C 29.863281 -27.421875 31.101562 -27.1875 32.21875 -26.71875 C 33.332031 -26.25 34.296875 -25.597656 35.109375 -24.765625 C 35.921875 -23.929688 36.539062 -22.9375 36.96875 -21.78125 C 37.40625 -20.632812 37.625 -19.378906 37.625 -18.015625 L 37.625 0 L 35.484375 0 L 35.484375 -17.96875 C 35.484375 -19.0625 35.300781 -20.0625 34.9375 -20.96875 C 34.582031 -21.875 34.09375 -22.65625 33.46875 -23.3125 C 32.84375 -23.976562 32.101562 -24.488281 31.25 -24.84375 C 30.40625 -25.207031 29.488281 -25.390625 28.5 -25.390625 C 27.476562 -25.390625 26.539062 -25.207031 25.6875 -24.84375 C 24.84375 -24.488281 24.109375 -23.976562 23.484375 -23.3125 C 22.867188 -22.65625 22.390625 -21.875 22.046875 -20.96875 C 21.703125 -20.0625 21.53125 -19.0625 21.53125 -17.96875 L 21.53125 0 L 19.375 0 L 19.375 -17.96875 C 19.375 -19.0625 19.195312 -20.0625 18.84375 -20.96875 C 18.488281 -21.875 18 -22.65625 17.375 -23.3125 C 16.75 -23.976562 16.007812 -24.488281 15.15625 -24.84375 C 14.3125 -25.207031 13.394531 -25.390625 12.40625 -25.390625 C 11.425781 -25.390625 10.507812 -25.207031 9.65625 -24.84375 C 8.8125 -24.488281 8.078125 -23.976562 7.453125 -23.3125 C 6.828125 -22.65625 6.332031 -21.875 5.96875 -20.96875 C 5.613281 -20.0625 5.4375 -19.0625 5.4375 -17.96875 L 5.4375 0 L 3.28125 0 L 3.28125 -18.015625 C 3.28125 -19.378906 3.5 -20.632812 3.9375 -21.78125 C 4.375 -22.9375 5 -23.929688 5.8125 -24.765625 C 6.625 -25.597656 7.585938 -26.25 8.703125 -26.71875 C 9.816406 -27.1875 11.050781 -27.421875 12.40625 -27.421875 C 14.5625 -27.421875 16.289062 -26.96875 17.59375 -26.0625 C 18.894531 -25.15625 19.832031 -23.851562 20.40625 -22.15625 Z M 20.515625 -22.15625 "/></g></g><g style="fill:#ffffff;fill-opacity:1;"><g transform="translate(242.919028, 391.853537)"><path style="stroke:none" d="M 20.515625 -22.15625 C 21.078125 -23.851562 22.007812 -25.15625 23.3125 -26.0625 C 24.625 -26.96875 26.351562 -27.421875 28.5 -27.421875 C 29.863281 -27.421875 31.101562 -27.1875 32.21875 -26.71875 C 33.332031 -26.25 34.296875 -25.597656 35.109375 -24.765625 C 35.921875 -23.929688 36.539062 -22.9375 36.96875 -21.78125 C 37.40625 -20.632812 37.625 -19.378906 37.625 -18.015625 L 37.625 0 L 35.484375 0 L 35.484375 -17.96875 C 35.484375 -19.0625 35.300781 -20.0625 34.9375 -20.96875 C 34.582031 -21.875 34.09375 -22.65625 33.46875 -23.3125 C 32.84375 -23.976562 32.101562 -24.488281 31.25 -24.84375 C 30.40625 -25.207031 29.488281 -25.390625 28.5 -25.390625 C 27.476562 -25.390625 26.539062 -25.207031 25.6875 -24.84375 C 24.84375 -24.488281 24.109375 -23.976562 23.484375 -23.3125 C 22.867188 -22.65625 22.390625 -21.875 22.046875 -20.96875 C 21.703125 -20.0625 21.53125 -19.0625 21.53125 -17.96875 L 21.53125 0 L 19.375 0 L 19.375 -17.96875 C 19.375 -19.0625 19.195312 -20.0625 18.84375 -20.96875 C 18.488281 -21.875 18 -22.65625 17.375 -23.3125 C 16.75 -23.976562 16.007812 -24.488281 15.15625 -24.84375 C 14.3125 -25.207031 13.394531 -25.390625 12.40625 -25.390625 C 11.425781 -25.390625 10.507812 -25.207031 9.65625 -24.84375 C 8.8125 -24.488281 8.078125 -23.976562 7.453125 -23.3125 C 6.828125 -22.65625 6.332031 -21.875 5.96875 -20.96875 C 5.613281 -20.0625 5.4375 -19.0625 5.4375 -17.96875 L 5.4375 0 L 3.28125 0 L 3.28125 -18.015625 C 3.28125 -19.378906 3.5 -20.632812 3.9375 -21.78125 C 4.375 -22.9375 5 -23.929688 5.8125 -24.765625 C 6.625 -25.597656 7.585938 -26.25 8.703125 -26.71875 C 9.816406 -27.1875 11.050781 -27.421875 12.40625 -27.421875 C 14.5625 -27.421875 16.289062 -26.96875 17.59375 -26.0625 C 18.894531 -25.15625 19.832031 -23.851562 20.40625 -22.15625 Z M 20.515625 -22.15625 "/></g></g><g style="fill:#ffffff;fill-opacity:1;"><g transform="translate(287.458237, 391.853537)"><path style="stroke:none" d="M 28.109375 0 L 25.953125 0 L 25.953125 -13.59375 C 25.953125 -15.113281 25.675781 -16.582031 25.125 -18 C 24.582031 -19.414062 23.828125 -20.671875 22.859375 -21.765625 C 21.898438 -22.859375 20.75 -23.734375 19.40625 -24.390625 C 18.0625 -25.054688 16.597656 -25.390625 15.015625 -25.390625 C 13.546875 -25.390625 12.15625 -25.066406 10.84375 -24.421875 C 9.539062 -23.785156 8.398438 -22.925781 7.421875 -21.84375 C 6.441406 -20.769531 5.65625 -19.503906 5.0625 -18.046875 C 4.476562 -16.597656 4.1875 -15.0625 4.1875 -13.4375 C 4.1875 -11.769531 4.476562 -10.21875 5.0625 -8.78125 C 5.65625 -7.34375 6.453125 -6.078125 7.453125 -4.984375 C 8.453125 -3.890625 9.601562 -3.03125 10.90625 -2.40625 C 12.207031 -1.78125 13.578125 -1.46875 15.015625 -1.46875 C 16.828125 -1.46875 18.363281 -1.796875 19.625 -2.453125 C 20.894531 -3.117188 22.15625 -4.097656 23.40625 -5.390625 L 23.40625 -2.828125 C 21.96875 -1.617188 20.566406 -0.75 19.203125 -0.21875 C 17.847656 0.300781 16.453125 0.5625 15.015625 0.5625 C 13.160156 0.5625 11.429688 0.203125 9.828125 -0.515625 C 8.222656 -1.234375 6.832031 -2.210938 5.65625 -3.453125 C 4.488281 -4.703125 3.570312 -6.175781 2.90625 -7.875 C 2.25 -9.570312 1.921875 -11.425781 1.921875 -13.4375 C 1.921875 -15.394531 2.25 -17.234375 2.90625 -18.953125 C 3.570312 -20.671875 4.488281 -22.15625 5.65625 -23.40625 C 6.832031 -24.65625 8.210938 -25.632812 9.796875 -26.34375 C 11.390625 -27.0625 13.128906 -27.421875 15.015625 -27.421875 C 16.910156 -27.421875 18.660156 -27.050781 20.265625 -26.3125 C 21.867188 -25.582031 23.242188 -24.59375 24.390625 -23.34375 C 25.546875 -22.101562 26.453125 -20.640625 27.109375 -18.953125 C 27.773438 -17.273438 28.109375 -15.507812 28.109375 -13.65625 Z M 28.109375 0 "/></g></g><g style="fill:#ffffff;fill-opacity:1;"><g transform="translate(322.591125, 391.853537)"><path style="stroke:none" d="M 3.40625 -26.859375 L 5.546875 -26.859375 L 5.546875 -21.703125 L 5.671875 -21.703125 C 6.160156 -22.722656 6.753906 -23.5625 7.453125 -24.21875 C 8.148438 -24.882812 8.859375 -25.414062 9.578125 -25.8125 C 10.296875 -26.207031 10.984375 -26.476562 11.640625 -26.625 C 12.304688 -26.78125 12.847656 -26.859375 13.265625 -26.859375 L 16.09375 -26.859375 L 16.09375 -24.828125 L 13.484375 -24.828125 C 13.066406 -24.828125 12.582031 -24.738281 12.03125 -24.5625 C 11.488281 -24.394531 10.992188 -24.179688 10.546875 -23.921875 C 9.972656 -23.578125 9.382812 -23.113281 8.78125 -22.53125 C 8.175781 -21.945312 7.632812 -21.238281 7.15625 -20.40625 C 6.6875 -19.570312 6.300781 -18.644531 6 -17.625 C 5.695312 -16.601562 5.546875 -15.488281 5.546875 -14.28125 L 5.546875 0 L 3.40625 0 Z M 3.40625 -26.859375 "/></g></g><g style="fill:#ffffff;fill-opacity:1;"><g transform="translate(341.971286, 391.853537)"><path style="stroke:none" d="M 7.984375 -34.453125 C 7.984375 -33.960938 7.820312 -33.554688 7.5 -33.234375 C 7.1875 -32.910156 6.785156 -32.75 6.296875 -32.75 C 5.796875 -32.75 5.382812 -32.910156 5.0625 -33.234375 C 4.75 -33.554688 4.59375 -33.960938 4.59375 -34.453125 C 4.59375 -34.941406 4.75 -35.347656 5.0625 -35.671875 C 5.382812 -35.992188 5.796875 -36.15625 6.296875 -36.15625 C 6.785156 -36.15625 7.1875 -35.992188 7.5 -35.671875 C 7.820312 -35.347656 7.984375 -34.941406 7.984375 -34.453125 Z M 5.21875 -26.859375 L 7.375 -26.859375 L 7.375 0 L 5.21875 0 Z M 5.21875 -26.859375 "/></g></g><g style="fill:#ffffff;fill-opacity:1;"><g transform="translate(358.17822, 391.853537)"><path style="stroke:none" d="M 17.796875 -26.859375 C 18.742188 -26.859375 19.375 -26.625 19.6875 -26.15625 C 20.007812 -25.6875 20.171875 -25.203125 20.171875 -24.703125 C 20.171875 -24.066406 20.078125 -23.5 19.890625 -23 C 19.703125 -22.507812 19.191406 -21.773438 18.359375 -20.796875 L 5.4375 -5.15625 C 5.0625 -4.707031 4.757812 -4.347656 4.53125 -4.078125 C 4.300781 -3.816406 4.128906 -3.597656 4.015625 -3.421875 C 3.910156 -3.253906 3.835938 -3.125 3.796875 -3.03125 C 3.753906 -2.9375 3.734375 -2.832031 3.734375 -2.71875 C 3.734375 -2.53125 3.835938 -2.390625 4.046875 -2.296875 C 4.253906 -2.203125 4.453125 -2.15625 4.640625 -2.15625 L 20.859375 -2.15625 L 20.859375 0 L 3.515625 0 C 2.003906 0 1.25 -0.8125 1.25 -2.4375 C 1.25 -2.625 1.253906 -2.820312 1.265625 -3.03125 C 1.285156 -3.238281 1.351562 -3.472656 1.46875 -3.734375 C 1.582031 -4.003906 1.757812 -4.328125 2 -4.703125 C 2.25 -5.078125 2.601562 -5.53125 3.0625 -6.0625 L 15.984375 -21.703125 C 16.398438 -22.191406 16.785156 -22.644531 17.140625 -23.0625 C 17.503906 -23.476562 17.6875 -23.835938 17.6875 -24.140625 C 17.6875 -24.328125 17.582031 -24.46875 17.375 -24.5625 C 17.164062 -24.65625 16.96875 -24.703125 16.78125 -24.703125 L 2.375 -24.703125 L 2.375 -26.859375 Z M 17.796875 -26.859375 "/></g></g><g style="fill:#ffffff;fill-opacity:1;"><g transform="translate(383.848115, 391.853537)"><path style="stroke:none" d="M 8.84375 -7.828125 L 7.484375 -9.640625 L 24.765625 -21.3125 C 23.785156 -22.550781 22.546875 -23.539062 21.046875 -24.28125 C 19.554688 -25.019531 17.90625 -25.390625 16.09375 -25.390625 C 14.425781 -25.390625 12.882812 -25.078125 11.46875 -24.453125 C 10.050781 -23.828125 8.820312 -22.96875 7.78125 -21.875 C 6.75 -20.78125 5.929688 -19.492188 5.328125 -18.015625 C 4.722656 -16.546875 4.421875 -14.960938 4.421875 -13.265625 C 4.421875 -11.640625 4.722656 -10.109375 5.328125 -8.671875 C 5.929688 -7.234375 6.757812 -5.984375 7.8125 -4.921875 C 8.875 -3.867188 10.113281 -3.03125 11.53125 -2.40625 C 12.945312 -1.78125 14.46875 -1.46875 16.09375 -1.46875 C 17.675781 -1.46875 19.164062 -1.769531 20.5625 -2.375 C 21.96875 -2.976562 23.207031 -3.789062 24.28125 -4.8125 C 25.363281 -5.832031 26.210938 -7.03125 26.828125 -8.40625 C 27.453125 -9.789062 27.800781 -11.273438 27.875 -12.859375 L 30.15625 -12.859375 C 30.070312 -10.929688 29.648438 -9.144531 28.890625 -7.5 C 28.140625 -5.863281 27.140625 -4.445312 25.890625 -3.25 C 24.648438 -2.0625 23.226562 -1.128906 21.625 -0.453125 C 20.019531 0.222656 18.328125 0.5625 16.546875 0.5625 C 14.429688 0.5625 12.492188 0.203125 10.734375 -0.515625 C 8.984375 -1.234375 7.460938 -2.210938 6.171875 -3.453125 C 4.890625 -4.703125 3.898438 -6.175781 3.203125 -7.875 C 2.503906 -9.570312 2.15625 -11.40625 2.15625 -13.375 C 2.15625 -15.300781 2.503906 -17.125 3.203125 -18.84375 C 3.898438 -20.5625 4.867188 -22.050781 6.109375 -23.3125 C 7.359375 -24.582031 8.832031 -25.582031 10.53125 -26.3125 C 12.238281 -27.050781 14.09375 -27.421875 16.09375 -27.421875 C 18.695312 -27.421875 21.035156 -26.816406 23.109375 -25.609375 C 25.191406 -24.398438 26.835938 -22.816406 28.046875 -20.859375 Z M 8.84375 -7.828125 "/></g></g><g style="fill:#ffffff;fill-opacity:1;"><g transform="translate(418.981014, 391.853537)"><path style="stroke:none" d=""/></g></g><g style="fill:#ffffff;fill-opacity:1;"><g transform="translate(438.36114, 391.853537)"><path style="stroke:none" d="M 24.078125 -19.828125 C 24.078125 -18.515625 23.820312 -17.25 23.3125 -16.03125 C 22.8125 -14.820312 22.125 -13.765625 21.25 -12.859375 C 20.382812 -11.953125 19.335938 -11.234375 18.109375 -10.703125 C 16.878906 -10.179688 15.566406 -9.921875 14.171875 -9.921875 C 12.773438 -9.921875 11.46875 -10.179688 10.25 -10.703125 C 9.039062 -11.234375 7.992188 -11.941406 7.109375 -12.828125 C 6.222656 -13.722656 5.523438 -14.773438 5.015625 -15.984375 C 4.503906 -17.191406 4.25 -18.472656 4.25 -19.828125 C 4.25 -21.191406 4.503906 -22.476562 5.015625 -23.6875 C 5.523438 -24.894531 6.222656 -25.953125 7.109375 -26.859375 C 7.992188 -27.765625 9.039062 -28.472656 10.25 -28.984375 C 11.46875 -29.492188 12.773438 -29.75 14.171875 -29.75 C 15.566406 -29.75 16.867188 -29.484375 18.078125 -28.953125 C 19.285156 -28.429688 20.332031 -27.71875 21.21875 -26.8125 C 22.113281 -25.90625 22.8125 -24.851562 23.3125 -23.65625 C 23.820312 -22.46875 24.078125 -21.191406 24.078125 -19.828125 Z M 24.078125 -19.828125 "/></g></g><g style="fill:#ffffff;fill-opacity:1;"><g transform="translate(470.320825, 391.853537)"><path style="stroke:none" d=""/></g></g><g style="fill:#ffffff;fill-opacity:1;"><g transform="translate(489.700974, 391.853537)"><path style="stroke:none" d="M 19.890625 -27.421875 L 19.890625 -25.15625 L 15.75 -25.15625 C 14.164062 -25.15625 12.679688 -24.878906 11.296875 -24.328125 C 9.921875 -23.785156 8.722656 -23.015625 7.703125 -22.015625 C 6.679688 -21.015625 5.878906 -19.804688 5.296875 -18.390625 C 4.710938 -16.972656 4.421875 -15.414062 4.421875 -13.71875 C 4.421875 -12.050781 4.703125 -10.519531 5.265625 -9.125 C 5.835938 -7.726562 6.625 -6.519531 7.625 -5.5 C 8.625 -4.476562 9.820312 -3.679688 11.21875 -3.109375 C 12.613281 -2.546875 14.144531 -2.265625 15.8125 -2.265625 L 19.890625 -2.265625 L 19.890625 0 L 15.703125 0 C 13.773438 0 11.988281 -0.335938 10.34375 -1.015625 C 8.695312 -1.703125 7.257812 -2.648438 6.03125 -3.859375 C 4.800781 -5.066406 3.847656 -6.507812 3.171875 -8.1875 C 2.492188 -9.875 2.15625 -11.71875 2.15625 -13.71875 C 2.15625 -15.757812 2.503906 -17.617188 3.203125 -19.296875 C 3.898438 -20.972656 4.851562 -22.414062 6.0625 -23.625 C 7.269531 -24.84375 8.703125 -25.78125 10.359375 -26.4375 C 12.023438 -27.09375 13.820312 -27.421875 15.75 -27.421875 Z M 19.890625 -27.421875 "/></g></g><g style="fill:#ffffff;fill-opacity:1;"><g transform="translate(515.370869, 391.853537)"><path style="stroke:none" d="M 5.21875 -39.671875 L 7.375 -39.671875 L 7.375 0 L 5.21875 0 Z M 5.21875 -39.671875 "/></g></g><g style="fill:#ffffff;fill-opacity:1;"><g transform="translate(531.577803, 391.853537)"><path style="stroke:none" d="M 28.109375 0 L 25.953125 0 L 25.953125 -13.59375 C 25.953125 -15.113281 25.675781 -16.582031 25.125 -18 C 24.582031 -19.414062 23.828125 -20.671875 22.859375 -21.765625 C 21.898438 -22.859375 20.75 -23.734375 19.40625 -24.390625 C 18.0625 -25.054688 16.597656 -25.390625 15.015625 -25.390625 C 13.546875 -25.390625 12.15625 -25.066406 10.84375 -24.421875 C 9.539062 -23.785156 8.398438 -22.925781 7.421875 -21.84375 C 6.441406 -20.769531 5.65625 -19.503906 5.0625 -18.046875 C 4.476562 -16.597656 4.1875 -15.0625 4.1875 -13.4375 C 4.1875 -11.769531 4.476562 -10.21875 5.0625 -8.78125 C 5.65625 -7.34375 6.453125 -6.078125 7.453125 -4.984375 C 8.453125 -3.890625 9.601562 -3.03125 10.90625 -2.40625 C 12.207031 -1.78125 13.578125 -1.46875 15.015625 -1.46875 C 16.828125 -1.46875 18.363281 -1.796875 19.625 -2.453125 C 20.894531 -3.117188 22.15625 -4.097656 23.40625 -5.390625 L 23.40625 -2.828125 C 21.96875 -1.617188 20.566406 -0.75 19.203125 -0.21875 C 17.847656 0.300781 16.453125 0.5625 15.015625 0.5625 C 13.160156 0.5625 11.429688 0.203125 9.828125 -0.515625 C 8.222656 -1.234375 6.832031 -2.210938 5.65625 -3.453125 C 4.488281 -4.703125 3.570312 -6.175781 2.90625 -7.875 C 2.25 -9.570312 1.921875 -11.425781 1.921875 -13.4375 C 1.921875 -15.394531 2.25 -17.234375 2.90625 -18.953125 C 3.570312 -20.671875 4.488281 -22.15625 5.65625 -23.40625 C 6.832031 -24.65625 8.210938 -25.632812 9.796875 -26.34375 C 11.390625 -27.0625 13.128906 -27.421875 15.015625 -27.421875 C 16.910156 -27.421875 18.660156 -27.050781 20.265625 -26.3125 C 21.867188 -25.582031 23.242188 -24.59375 24.390625 -23.34375 C 25.546875 -22.101562 26.453125 -20.640625 27.109375 -18.953125 C 27.773438 -17.273438 28.109375 -15.507812 28.109375 -13.65625 Z M 28.109375 0 "/></g></g><g style="fill:#ffffff;fill-opacity:1;"><g transform="translate(566.710703, 391.853537)"><path style="stroke:none" d="M 3.40625 -26.859375 L 5.546875 -26.859375 L 5.546875 -21.703125 L 5.671875 -21.703125 C 6.160156 -22.722656 6.753906 -23.5625 7.453125 -24.21875 C 8.148438 -24.882812 8.859375 -25.414062 9.578125 -25.8125 C 10.296875 -26.207031 10.984375 -26.476562 11.640625 -26.625 C 12.304688 -26.78125 12.847656 -26.859375 13.265625 -26.859375 L 16.09375 -26.859375 L 16.09375 -24.828125 L 13.484375 -24.828125 C 13.066406 -24.828125 12.582031 -24.738281 12.03125 -24.5625 C 11.488281 -24.394531 10.992188 -24.179688 10.546875 -23.921875 C 9.972656 -23.578125 9.382812 -23.113281 8.78125 -22.53125 C 8.175781 -21.945312 7.632812 -21.238281 7.15625 -20.40625 C 6.6875 -19.570312 6.300781 -18.644531 6 -17.625 C 5.695312 -16.601562 5.546875 -15.488281 5.546875 -14.28125 L 5.546875 0 L 3.40625 0 Z M 3.40625 -26.859375 "/></g></g><g style="fill:#ffffff;fill-opacity:1;"><g transform="translate(586.090875, 391.853537)"><path style="stroke:none" d="M 7.984375 -34.453125 C 7.984375 -33.960938 7.820312 -33.554688 7.5 -33.234375 C 7.1875 -32.910156 6.785156 -32.75 6.296875 -32.75 C 5.796875 -32.75 5.382812 -32.910156 5.0625 -33.234375 C 4.75 -33.554688 4.59375 -33.960938 4.59375 -34.453125 C 4.59375 -34.941406 4.75 -35.347656 5.0625 -35.671875 C 5.382812 -35.992188 5.796875 -36.15625 6.296875 -36.15625 C 6.785156 -36.15625 7.1875 -35.992188 7.5 -35.671875 C 7.820312 -35.347656 7.984375 -34.941406 7.984375 -34.453125 Z M 5.21875 -26.859375 L 7.375 -26.859375 L 7.375 0 L 5.21875 0 Z M 5.21875 -26.859375 "/></g></g><g style="fill:#ffffff;fill-opacity:1;"><g transform="translate(602.297764, 391.853537)"><path style="stroke:none" d="M 16.65625 -39.671875 L 16.65625 -37.625 L 12.234375 -37.625 C 11.328125 -37.625 10.476562 -37.460938 9.6875 -37.140625 C 8.894531 -36.828125 8.1875 -36.382812 7.5625 -35.8125 C 6.9375 -35.25 6.441406 -34.550781 6.078125 -33.71875 C 5.722656 -32.882812 5.546875 -31.957031 5.546875 -30.9375 L 5.546875 -26.859375 L 16.65625 -26.859375 L 16.65625 -24.828125 L 5.546875 -24.828125 L 5.546875 0 L 3.40625 0 L 3.40625 -31.515625 C 3.40625 -32.722656 3.648438 -33.828125 4.140625 -34.828125 C 4.628906 -35.828125 5.28125 -36.6875 6.09375 -37.40625 C 6.90625 -38.125 7.847656 -38.679688 8.921875 -39.078125 C 10.003906 -39.472656 11.128906 -39.671875 12.296875 -39.671875 Z M 16.65625 -39.671875 "/></g></g><g style="fill:#ffffff;fill-opacity:1;"><g transform="translate(621.677937, 391.853537)"><path style="stroke:none" d="M 3.40625 -26.859375 L 5.546875 -26.859375 L 5.546875 -10.59375 C 5.546875 -9.3125 5.765625 -8.113281 6.203125 -7 C 6.640625 -5.882812 7.234375 -4.921875 7.984375 -4.109375 C 8.742188 -3.296875 9.648438 -2.648438 10.703125 -2.171875 C 11.765625 -1.703125 12.921875 -1.46875 14.171875 -1.46875 C 15.378906 -1.46875 16.507812 -1.691406 17.5625 -2.140625 C 18.625 -2.597656 19.539062 -3.242188 20.3125 -4.078125 C 21.09375 -4.910156 21.695312 -5.875 22.125 -6.96875 C 22.5625 -8.0625 22.78125 -9.269531 22.78125 -10.59375 L 22.78125 -26.859375 L 24.9375 -26.859375 L 24.9375 -10.25 C 24.9375 -8.9375 24.71875 -7.664062 24.28125 -6.4375 C 23.84375 -5.207031 23.207031 -4.097656 22.375 -3.109375 C 21.550781 -2.128906 20.550781 -1.328125 19.375 -0.703125 C 18.207031 -0.078125 16.867188 0.304688 15.359375 0.453125 L 15.359375 12.234375 L 12.984375 12.234375 L 12.984375 0.453125 C 11.472656 0.304688 10.117188 -0.078125 8.921875 -0.703125 C 7.734375 -1.328125 6.734375 -2.128906 5.921875 -3.109375 C 5.109375 -4.097656 4.484375 -5.207031 4.046875 -6.4375 C 3.617188 -7.664062 3.40625 -8.9375 3.40625 -10.25 Z M 3.40625 -26.859375 "/></g></g><g style="fill:#ffffff;fill-opacity:1;"><g transform="translate(653.637599, 391.853537)"><path style="stroke:none" d=""/></g></g><g style="fill:#ffffff;fill-opacity:1;"><g transform="translate(673.017772, 391.853537)"><path style="stroke:none" d="M 24.078125 -19.828125 C 24.078125 -18.515625 23.820312 -17.25 23.3125 -16.03125 C 22.8125 -14.820312 22.125 -13.765625 21.25 -12.859375 C 20.382812 -11.953125 19.335938 -11.234375 18.109375 -10.703125 C 16.878906 -10.179688 15.566406 -9.921875 14.171875 -9.921875 C 12.773438 -9.921875 11.46875 -10.179688 10.25 -10.703125 C 9.039062 -11.234375 7.992188 -11.941406 7.109375 -12.828125 C 6.222656 -13.722656 5.523438 -14.773438 5.015625 -15.984375 C 4.503906 -17.191406 4.25 -18.472656 4.25 -19.828125 C 4.25 -21.191406 4.503906 -22.476562 5.015625 -23.6875 C 5.523438 -24.894531 6.222656 -25.953125 7.109375 -26.859375 C 7.992188 -27.765625 9.039062 -28.472656 10.25 -28.984375 C 11.46875 -29.492188 12.773438 -29.75 14.171875 -29.75 C 15.566406 -29.75 16.867188 -29.484375 18.078125 -28.953125 C 19.285156 -28.429688 20.332031 -27.71875 21.21875 -26.8125 C 22.113281 -25.90625 22.8125 -24.851562 23.3125 -23.65625 C 23.820312 -22.46875 24.078125 -21.191406 24.078125 -19.828125 Z M 24.078125 -19.828125 "/></g></g><g style="fill:#ffffff;fill-opacity:1;"><g transform="translate(704.977434, 391.853537)"><path style="stroke:none" d=""/></g></g><g style="fill:#ffffff;fill-opacity:1;"><g transform="translate(724.35756, 391.853537)"><path style="stroke:none" d="M 28.109375 12.8125 L 25.953125 12.8125 L 25.953125 -13.59375 C 25.953125 -15.113281 25.675781 -16.582031 25.125 -18 C 24.582031 -19.414062 23.828125 -20.671875 22.859375 -21.765625 C 21.898438 -22.859375 20.75 -23.734375 19.40625 -24.390625 C 18.0625 -25.054688 16.597656 -25.390625 15.015625 -25.390625 C 13.578125 -25.390625 12.195312 -25.066406 10.875 -24.421875 C 9.550781 -23.785156 8.398438 -22.925781 7.421875 -21.84375 C 6.441406 -20.769531 5.65625 -19.503906 5.0625 -18.046875 C 4.476562 -16.597656 4.1875 -15.0625 4.1875 -13.4375 C 4.1875 -11.769531 4.476562 -10.21875 5.0625 -8.78125 C 5.65625 -7.34375 6.441406 -6.078125 7.421875 -4.984375 C 8.398438 -3.890625 9.550781 -3.03125 10.875 -2.40625 C 12.195312 -1.78125 13.578125 -1.46875 15.015625 -1.46875 C 16.828125 -1.46875 18.363281 -1.796875 19.625 -2.453125 C 20.894531 -3.117188 22.15625 -4.097656 23.40625 -5.390625 L 23.40625 -2.828125 C 21.96875 -1.617188 20.566406 -0.75 19.203125 -0.21875 C 17.847656 0.300781 16.453125 0.5625 15.015625 0.5625 C 13.128906 0.5625 11.390625 0.203125 9.796875 -0.515625 C 8.210938 -1.234375 6.832031 -2.210938 5.65625 -3.453125 C 4.488281 -4.703125 3.570312 -6.175781 2.90625 -7.875 C 2.25 -9.570312 1.921875 -11.425781 1.921875 -13.4375 C 1.921875 -15.394531 2.25 -17.234375 2.90625 -18.953125 C 3.570312 -20.671875 4.488281 -22.15625 5.65625 -23.40625 C 6.832031 -24.65625 8.210938 -25.632812 9.796875 -26.34375 C 11.390625 -27.0625 13.128906 -27.421875 15.015625 -27.421875 C 16.910156 -27.421875 18.660156 -27.050781 20.265625 -26.3125 C 21.867188 -25.582031 23.242188 -24.59375 24.390625 -23.34375 C 25.546875 -22.101562 26.453125 -20.640625 27.109375 -18.953125 C 27.773438 -17.273438 28.109375 -15.507812 28.109375 -13.65625 Z M 28.109375 12.8125 "/></g></g><g style="fill:#ffffff;fill-opacity:1;"><g transform="translate(759.490459, 391.853537)"><path style="stroke:none" d="M 3.40625 -26.859375 L 5.546875 -26.859375 L 5.546875 -10.59375 C 5.546875 -9.3125 5.765625 -8.113281 6.203125 -7 C 6.640625 -5.882812 7.234375 -4.921875 7.984375 -4.109375 C 8.742188 -3.296875 9.648438 -2.648438 10.703125 -2.171875 C 11.765625 -1.703125 12.921875 -1.46875 14.171875 -1.46875 C 15.378906 -1.46875 16.507812 -1.691406 17.5625 -2.140625 C 18.625 -2.597656 19.539062 -3.242188 20.3125 -4.078125 C 21.09375 -4.910156 21.695312 -5.875 22.125 -6.96875 C 22.5625 -8.0625 22.78125 -9.269531 22.78125 -10.59375 L 22.78125 -26.859375 L 24.9375 -26.859375 L 24.9375 -10.25 C 24.9375 -8.738281 24.671875 -7.320312 24.140625 -6 C 23.609375 -4.6875 22.859375 -3.546875 21.890625 -2.578125 C 20.929688 -1.617188 19.789062 -0.851562 18.46875 -0.28125 C 17.144531 0.28125 15.710938 0.5625 14.171875 0.5625 C 12.617188 0.5625 11.179688 0.28125 9.859375 -0.28125 C 8.535156 -0.851562 7.390625 -1.617188 6.421875 -2.578125 C 5.460938 -3.546875 4.71875 -4.6875 4.1875 -6 C 3.664062 -7.320312 3.40625 -8.738281 3.40625 -10.25 Z M 3.40625 -26.859375 "/></g></g><g style="fill:#ffffff;fill-opacity:1;"><g transform="translate(791.450121, 391.853537)"><path style="stroke:none" d="M 7.984375 -34.453125 C 7.984375 -33.960938 7.820312 -33.554688 7.5 -33.234375 C 7.1875 -32.910156 6.785156 -32.75 6.296875 -32.75 C 5.796875 -32.75 5.382812 -32.910156 5.0625 -33.234375 C 4.75 -33.554688 4.59375 -33.960938 4.59375 -34.453125 C 4.59375 -34.941406 4.75 -35.347656 5.0625 -35.671875 C 5.382812 -35.992188 5.796875 -36.15625 6.296875 -36.15625 C 6.785156 -36.15625 7.1875 -35.992188 7.5 -35.671875 C 7.820312 -35.347656 7.984375 -34.941406 7.984375 -34.453125 Z M 5.21875 -26.859375 L 7.375 -26.859375 L 7.375 0 L 5.21875 0 Z M 5.21875 -26.859375 "/></g></g><g style="fill:#ffffff;fill-opacity:1;"><g transform="translate(807.657102, 391.853537)"><path style="stroke:none" d="M 17.796875 -26.859375 C 18.742188 -26.859375 19.375 -26.625 19.6875 -26.15625 C 20.007812 -25.6875 20.171875 -25.203125 20.171875 -24.703125 C 20.171875 -24.066406 20.078125 -23.5 19.890625 -23 C 19.703125 -22.507812 19.191406 -21.773438 18.359375 -20.796875 L 5.4375 -5.15625 C 5.0625 -4.707031 4.757812 -4.347656 4.53125 -4.078125 C 4.300781 -3.816406 4.128906 -3.597656 4.015625 -3.421875 C 3.910156 -3.253906 3.835938 -3.125 3.796875 -3.03125 C 3.753906 -2.9375 3.734375 -2.832031 3.734375 -2.71875 C 3.734375 -2.53125 3.835938 -2.390625 4.046875 -2.296875 C 4.253906 -2.203125 4.453125 -2.15625 4.640625 -2.15625 L 20.859375 -2.15625 L 20.859375 0 L 3.515625 0 C 2.003906 0 1.25 -0.8125 1.25 -2.4375 C 1.25 -2.625 1.253906 -2.820312 1.265625 -3.03125 C 1.285156 -3.238281 1.351562 -3.472656 1.46875 -3.734375 C 1.582031 -4.003906 1.757812 -4.328125 2 -4.703125 C 2.25 -5.078125 2.601562 -5.53125 3.0625 -6.0625 L 15.984375 -21.703125 C 16.398438 -22.191406 16.785156 -22.644531 17.140625 -23.0625 C 17.503906 -23.476562 17.6875 -23.835938 17.6875 -24.140625 C 17.6875 -24.328125 17.582031 -24.46875 17.375 -24.5625 C 17.164062 -24.65625 16.96875 -24.703125 16.78125 -24.703125 L 2.375 -24.703125 L 2.375 -26.859375 Z M 17.796875 -26.859375 "/></g></g></g></svg>