<?xml version="1.0" encoding="UTF-8"?>
<svg id="Layer_2" xmlns="http://www.w3.org/2000/svg" width="1563" height="465.79" viewBox="0 0 1563 465.79">
  <defs>
    <style>
      .cls-1 {
        fill: #fff;
      }
    </style>
  </defs>
  <g id="Layer_1-2" data-name="Layer_1">
    <g id="_x36_900277dfb">
      <path class="cls-1" d="M217.24,6.06v84.89h-64.67v268.75h-87.91V90.95H0V6.06h217.24Z"/>
      <path class="cls-1" d="M330.38,270.27l-30.82-48.49,66.19-43.44c-5.73-3.37-11.12-5.64-16.17-6.81-5.04-1.19-10.09-1.78-15.14-1.78-7.76,0-14.75,1.77-20.97,5.31-6.23,3.53-11.62,8.24-16.17,14.14-4.54,5.9-8.07,12.64-10.6,20.22-2.53,7.57-3.79,15.39-3.79,23.47,0,8.76,1.51,16.84,4.54,24.25,3.04,7.42,7.08,13.98,12.12,19.71,5.06,5.73,10.87,10.19,17.44,13.39,6.56,3.2,13.39,4.8,20.45,4.8,14.15,0,27.96-5.13,41.43-15.4,13.48-10.28,23.76-23.5,30.82-39.67l58.09,29.82c-6.06,14.48-13.8,27.62-23.24,39.41-9.43,11.78-20.04,21.89-31.83,30.31-11.78,8.41-24.49,14.9-38.12,19.45-13.64,4.54-27.87,6.81-42.69,6.81-17.18,0-33.43-3.45-48.75-10.34-15.32-6.91-28.8-16.34-40.42-28.3-11.63-11.97-20.81-25.69-27.55-41.17-6.73-15.49-10.09-31.83-10.09-49.01s3.36-33.51,10.09-49.01c6.74-15.49,15.92-29.13,27.55-40.91,11.62-11.79,25.1-21.23,40.42-28.3,15.32-7.07,31.57-10.6,48.75-10.6,28.28,0,52.11,7.08,71.48,21.23,19.36,14.14,35.61,33.16,48.75,57.06l-121.75,83.86Z"/>
      <path class="cls-1" d="M484.97,114.19h10.11c13.46,0,24.99.76,34.59,2.27,9.6,1.52,17.76,3.96,24.5,7.33,6.74,3.37,12.55,7.67,17.44,12.9,4.88,5.21,9.68,11.35,14.39,18.42,4.04-7.07,8.58-13.21,13.62-18.42,5.06-5.22,11.03-9.44,17.93-12.64,6.91-3.2,14.92-5.64,24.01-7.33,9.09-1.68,20.04-2.53,32.84-2.53h12.64v70.73c-22.56,0-38.56,4.13-48,12.38-9.43,8.24-14.14,21.45-14.14,39.65s4.71,31.39,14.14,39.65c9.44,8.25,25.44,12.38,48,12.38v70.73h-14.65c-12.79,0-23.74-.84-32.84-2.53-9.1-1.68-16.84-4.29-23.24-7.82-6.4-3.54-11.96-7.84-16.69-12.9-4.71-5.06-9.25-10.94-13.62-17.67-4.71,7.07-9.51,13.22-14.39,18.44-4.89,5.21-10.61,9.41-17.18,12.61-6.57,3.2-14.32,5.64-23.24,7.33-8.92,1.69-19.78,2.53-32.58,2.53h-13.65v-70.73c22.56,0,38.55-4.13,47.98-12.38,9.44-8.25,14.16-21.47,14.16-39.65s-4.72-31.4-14.16-39.65c-9.43-8.25-25.42-12.38-47.98-12.38v-70.73Z"/>
      <path class="cls-1" d="M795.65,53.55v58.6h57.08v73.77h-57.6v65.67c0,12.79,2.77,21.72,8.33,26.77,5.57,5.06,16.6,7.58,33.09,7.58,2.7,0,5.39-.08,8.07-.26,2.7-.17,5.73-.43,9.11-.77v74.78h-47.49c-13.81,0-26.19-2.1-37.14-6.32-10.94-4.21-20.2-10.19-27.78-17.93-7.57-7.75-13.46-17.01-17.67-27.78-4.22-10.78-6.32-22.74-6.32-35.88V53.55h78.31Z"/>
      <path class="cls-1" d="M982.57,45.99c0,13.14-4.46,24.09-13.39,32.84-8.92,8.76-19.8,13.13-32.6,13.13s-23.65-4.37-32.58-13.13c-8.92-8.75-13.39-19.69-13.39-32.84s4.46-24.08,13.39-32.84c8.92-8.77,19.78-13.16,32.58-13.16s23.68,4.39,32.6,13.16c8.92,8.76,13.39,19.7,13.39,32.84ZM977,114.19v245.51h-80.81V114.19h80.81Z"/>
      <path class="cls-1" d="M1171.5,6.06v73.77h-38.41c-8.41,0-14.56,2.44-18.44,7.33-3.87,4.89-5.8,13.22-5.8,24.99h62.65v73.77h-62.65v173.78h-80.81V93.48c0-12.47,2.44-24.08,7.33-34.85,4.88-10.78,11.61-20.04,20.2-27.78,8.58-7.75,18.84-13.83,30.8-18.21,11.97-4.39,24.85-6.58,38.67-6.58h46.48Z"/>
      <path class="cls-1" d="M1273.01,114.19v143.47c0,9.43,2.19,17.33,6.58,23.73s11.96,9.6,22.72,9.6c6.07,0,10.87-1.01,14.39-3.02,3.54-2.02,6.24-4.8,8.1-8.33,1.86-3.54,3.12-7.41,3.79-11.61.67-4.21,1.01-8.68,1.01-13.41V114.19h77.8v159.64c0,21.55-5.48,39.82-16.43,54.81-10.94,14.98-27.02,26-48.24,33.07v104.08h-80.81v-104.08c-44.47-13.46-66.7-42.75-66.7-87.88V114.19h77.8Z"/>
      <path class="cls-1" d="M1558.95,6.06l-7.07,242h-80.84l-7.07-242h94.97ZM1563,314.22c0,6.75-1.26,13.15-3.79,19.22-2.53,6.06-6.07,11.52-10.63,16.41-4.54,4.89-9.92,8.76-16.15,11.61-6.23,2.87-13.22,4.31-20.97,4.31s-14.32-1.44-20.71-4.31c-6.4-2.85-11.88-6.64-16.43-11.35-4.54-4.71-8.07-10.18-10.6-16.41-2.53-6.24-3.79-12.73-3.79-19.47s1.35-13.71,4.05-19.94c2.7-6.24,6.32-11.72,10.86-16.43,4.55-4.71,9.94-8.41,16.17-11.09,6.22-2.7,13.04-4.05,20.45-4.05s14.32,1.44,20.71,4.31c6.4,2.86,11.87,6.64,16.41,11.35,4.55,4.71,8.1,10.19,10.63,16.43,2.53,6.23,3.79,12.7,3.79,19.42Z"/>
      <path class="cls-1" d="M98.41,400.3v3.35h-19.84c-.88,0-1.75.17-2.63.49-.88.31-1.68.77-2.4,1.37-.71.59-1.29,1.34-1.75,2.27s-.7,1.99-.7,3.17c0,1.5.35,2.73,1.06,3.71.72.97,1.68,1.77,2.86,2.42,1.19.66,2.55,1.21,4.1,1.65,1.56.43,3.19.83,4.88,1.19,2.12.5,4.23,1.02,6.35,1.55,2.13.54,4.04,1.28,5.73,2.22,1.68.93,3.05,2.14,4.1,3.64,1.06,1.5,1.6,3.47,1.6,5.91,0,3.99-1.38,6.89-4.13,8.69-2.73,1.81-6.38,2.71-10.94,2.71h-19.45v-3.38h20.2c3.62,0,6.27-.67,7.92-2.01s2.48-3.16,2.48-5.47c0-2.04-.55-3.7-1.65-4.95-1.08-1.25-2.5-2.27-4.26-3.04-1.74-.77-3.7-1.39-5.88-1.86-2.19-.48-4.33-.99-6.45-1.55-1.69-.44-3.28-.93-4.77-1.44-1.5-.53-2.81-1.24-3.95-2.12-1.12-.88-2.02-1.93-2.71-3.17-.69-1.25-1.03-2.79-1.03-4.59,0-1.56.29-3.02.88-4.36.6-1.34,1.4-2.48,2.4-3.4.99-.94,2.17-1.68,3.51-2.19,1.34-.53,2.76-.8,4.26-.8h20.22Z"/>
      <path class="cls-1" d="M116.84,400.3h3.53v26.85c0,2.12.36,4.09,1.08,5.93.72,1.84,1.7,3.43,2.94,4.77,1.25,1.34,2.75,2.41,4.49,3.2,1.75.77,3.66,1.16,5.73,1.16s3.86-.37,5.6-1.11c1.75-.75,3.26-1.82,4.54-3.2,1.29-1.37,2.28-2.97,2.99-4.77.72-1.81,1.08-3.8,1.08-5.98v-26.85h3.56v27.42c0,2.5-.44,4.84-1.32,7.02-.88,2.17-2.12,4.05-3.71,5.65-1.59,1.59-3.47,2.85-5.65,3.79-2.19.93-4.55,1.39-7.09,1.39s-4.94-.46-7.12-1.39c-2.19-.94-4.08-2.21-5.67-3.79-1.59-1.6-2.81-3.48-3.69-5.65-.86-2.18-1.29-4.52-1.29-7.02v-27.42Z"/>
      <path class="cls-1" d="M197.84,408.07c.93-2.8,2.46-4.95,4.62-6.45,2.17-1.5,5.02-2.24,8.56-2.24,2.25,0,4.29.39,6.14,1.16,1.84.77,3.43,1.85,4.77,3.22,1.34,1.38,2.36,3.02,3.07,4.93.72,1.9,1.08,3.97,1.08,6.22v29.74h-3.53v-29.66c0-1.81-.3-3.46-.9-4.95-.59-1.5-1.39-2.79-2.42-3.87-1.03-1.1-2.26-1.94-3.66-2.53-1.39-.6-2.91-.9-4.54-.9s-3.24.3-4.64.9c-1.39.59-2.61,1.43-3.64,2.53-1.02,1.08-1.81,2.37-2.37,3.87s-.85,3.15-.85,4.95v29.66h-3.56v-29.66c0-1.81-.3-3.46-.88-4.95-.59-1.5-1.39-2.79-2.42-3.87-1.03-1.1-2.26-1.94-3.66-2.53-1.39-.6-2.91-.9-4.54-.9s-3.13.3-4.54.9c-1.39.59-2.61,1.43-3.64,2.53-1.03,1.08-1.85,2.37-2.45,3.87-.59,1.5-.88,3.15-.88,4.95v29.66h-3.56v-29.74c0-2.25.36-4.32,1.08-6.22.72-1.91,1.75-3.55,3.1-4.93,1.34-1.37,2.93-2.45,4.77-3.22,1.84-.77,3.88-1.16,6.11-1.16,3.56,0,6.41.75,8.56,2.24,2.15,1.5,3.7,3.65,4.64,6.45h.18Z"/>
      <path class="cls-1" d="M271.37,408.07c.93-2.8,2.46-4.95,4.62-6.45,2.17-1.5,5.02-2.24,8.56-2.24,2.25,0,4.29.39,6.14,1.16,1.84.77,3.43,1.85,4.77,3.22,1.34,1.38,2.36,3.02,3.07,4.93.72,1.9,1.08,3.97,1.08,6.22v29.74h-3.53v-29.66c0-1.81-.3-3.46-.9-4.95-.59-1.5-1.39-2.79-2.42-3.87-1.03-1.1-2.26-1.94-3.66-2.53-1.39-.6-2.91-.9-4.54-.9s-3.24.3-4.64.9c-1.39.59-2.61,1.43-3.64,2.53-1.02,1.08-1.81,2.37-2.37,3.87s-.85,3.15-.85,4.95v29.66h-3.56v-29.66c0-1.81-.3-3.46-.88-4.95-.59-1.5-1.39-2.79-2.42-3.87-1.03-1.1-2.26-1.94-3.66-2.53-1.39-.6-2.91-.9-4.54-.9s-3.13.3-4.54.9c-1.39.59-2.61,1.43-3.64,2.53-1.03,1.08-1.85,2.37-2.45,3.87-.59,1.5-.88,3.15-.88,4.95v29.66h-3.56v-29.74c0-2.25.36-4.32,1.08-6.22.72-1.91,1.75-3.55,3.1-4.93,1.34-1.37,2.93-2.45,4.77-3.22,1.84-.77,3.88-1.16,6.11-1.16,3.56,0,6.41.75,8.56,2.24,2.15,1.5,3.7,3.65,4.64,6.45h.18Z"/>
      <path class="cls-1" d="M357.43,444.64h-3.56v-22.44c0-2.51-.46-4.93-1.37-7.27-.9-2.33-2.14-4.41-3.74-6.22-1.59-1.81-3.48-3.25-5.7-4.33-2.22-1.1-4.64-1.65-7.25-1.65-2.42,0-4.72.54-6.89,1.6-2.15,1.05-4.04,2.47-5.65,4.26-1.62,1.77-2.91,3.86-3.89,6.27-.97,2.39-1.44,4.93-1.44,7.61s.48,5.31,1.44,7.69c.98,2.37,2.3,4.46,3.95,6.27s3.55,3.22,5.7,4.26c2.15,1.03,4.41,1.55,6.78,1.55,2.99,0,5.53-.54,7.61-1.63,2.1-1.1,4.18-2.71,6.24-4.85v4.23c-2.37,2-4.69,3.43-6.94,4.31-2.24.86-4.54,1.29-6.91,1.29-3.06,0-5.92-.59-8.56-1.78-2.65-1.19-4.95-2.8-6.89-4.85-1.93-2.06-3.44-4.49-4.54-7.3-1.08-2.8-1.63-5.86-1.63-9.18s.54-6.27,1.63-9.11c1.1-2.84,2.61-5.29,4.54-7.35,1.94-2.06,4.22-3.68,6.84-4.85,2.63-1.19,5.5-1.78,8.62-1.78s6.02.61,8.67,1.83c2.64,1.21,4.91,2.84,6.81,4.9,1.91,2.05,3.4,4.46,4.49,7.25,1.1,2.77,1.65,5.69,1.65,8.74v22.54Z"/>
      <path class="cls-1" d="M374.65,400.3h3.53v8.51h.21c.81-1.68,1.79-3.07,2.94-4.15,1.15-1.1,2.32-1.97,3.51-2.63,1.19-.65,2.32-1.1,3.4-1.34,1.1-.26,1.99-.39,2.68-.39h4.67v3.35h-4.31c-.69,0-1.49.15-2.4.44-.9.28-1.72.63-2.45,1.06-.95.57-1.92,1.33-2.91,2.3-1,.97-1.9,2.13-2.68,3.51-.77,1.38-1.41,2.91-1.91,4.59-.5,1.69-.75,3.53-.75,5.52v23.58h-3.53v-44.34Z"/>
      <path class="cls-1" d="M414.2,387.77c0,.81-.27,1.48-.8,2.01-.52.54-1.18.8-1.99.8s-1.51-.26-2.04-.8c-.52-.53-.77-1.2-.77-2.01s.26-1.48.77-2.01c.53-.53,1.21-.8,2.04-.8s1.47.27,1.99.8c.53.54.8,1.21.8,2.01ZM409.64,400.3h3.56v44.34h-3.56v-44.34Z"/>
      <path class="cls-1" d="M457.16,400.3c1.56,0,2.61.39,3.12,1.16.53.77.8,1.57.8,2.4,0,1.05-.15,1.99-.46,2.81-.31.81-1.15,2.02-2.53,3.64l-21.33,25.82c-.62.74-1.12,1.33-1.5,1.78-.38.43-.66.79-.85,1.08-.17.28-.3.49-.36.64-.07.15-.1.33-.1.52,0,.31.17.54.52.7.34.15.67.23.98.23h26.77v3.56h-28.63c-2.5,0-3.74-1.34-3.74-4.02,0-.31,0-.63.03-.98.03-.34.14-.73.34-1.16.19-.44.48-.98.88-1.6.41-.62.99-1.37,1.75-2.24l21.33-25.82c.68-.81,1.32-1.55,1.91-2.24.6-.68.9-1.28.9-1.78,0-.31-.17-.54-.52-.7-.35-.15-.67-.23-.98-.23h-23.78v-3.56h25.46Z"/>
      <path class="cls-1" d="M484.75,431.72l-2.24-2.99,28.53-19.27c-1.62-2.04-3.66-3.68-6.14-4.9-2.46-1.22-5.18-1.83-8.18-1.83-2.75,0-5.3.52-7.64,1.55-2.34,1.03-4.37,2.45-6.09,4.26-1.7,1.81-3.06,3.93-4.05,6.37-1,2.42-1.5,5.04-1.5,7.84s.5,5.21,1.5,7.58c.99,2.37,2.36,4.44,4.1,6.19,1.75,1.74,3.8,3.12,6.14,4.15,2.33,1.03,4.85,1.55,7.53,1.55s5.07-.5,7.38-1.5c2.32-.99,4.37-2.33,6.14-4.02,1.79-1.68,3.19-3.66,4.2-5.93,1.03-2.28,1.61-4.73,1.73-7.35h3.77c-.14,3.19-.84,6.13-2.09,8.85-1.24,2.7-2.89,5.04-4.95,7.02-2.05,1.96-4.4,3.5-7.04,4.62-2.65,1.12-5.44,1.68-8.38,1.68-3.5,0-6.69-.59-9.6-1.78-2.89-1.19-5.4-2.8-7.53-4.85-2.12-2.06-3.75-4.49-4.9-7.3-1.15-2.8-1.73-5.83-1.73-9.08s.57-6.19,1.73-9.03c1.15-2.84,2.75-5.29,4.8-7.38,2.06-2.1,4.49-3.75,7.3-4.95,2.82-1.22,5.88-1.83,9.18-1.83,4.29,0,8.16,1,11.58,2.99,3.44,2,6.15,4.61,8.15,7.84l-31.7,21.51Z"/>
      <path class="cls-1" d="M599.89,411.91c0,2.17-.43,4.26-1.26,6.27-.83,2-1.96,3.74-3.4,5.24-1.43,1.5-3.16,2.68-5.18,3.56-2.03.86-4.2,1.29-6.5,1.29s-4.46-.43-6.47-1.29c-2-.88-3.73-2.04-5.18-3.51-1.46-1.48-2.62-3.21-3.46-5.21-.84-1.99-1.26-4.11-1.26-6.35s.42-4.37,1.26-6.37c.84-1.99,1.99-3.74,3.46-5.24,1.46-1.5,3.19-2.66,5.18-3.51,2.01-.84,4.17-1.26,6.47-1.26s4.45.44,6.45,1.32c1.99.86,3.72,2.04,5.18,3.53,1.48,1.5,2.63,3.24,3.46,5.21.84,1.96,1.26,4.07,1.26,6.32Z"/>
      <path class="cls-1" d="M677.73,399.37v3.74h-6.84c-2.62,0-5.07.46-7.35,1.37-2.27.9-4.25,2.17-5.93,3.82-1.69,1.65-3.01,3.65-3.97,5.98-.97,2.34-1.44,4.91-1.44,7.71s.46,5.28,1.39,7.58c.94,2.31,2.24,4.3,3.89,5.98,1.65,1.69,3.62,3.01,5.93,3.95,2.3.93,4.83,1.39,7.58,1.39h6.73v3.74h-6.91c-3.19,0-6.13-.55-8.85-1.68-2.72-1.13-5.09-2.7-7.12-4.69-2.03-1.99-3.6-4.37-4.72-7.14-1.12-2.79-1.68-5.83-1.68-9.13s.57-6.44,1.73-9.21c1.15-2.77,2.72-5.15,4.72-7.14,1.99-2.01,4.36-3.56,7.09-4.64,2.75-1.08,5.71-1.63,8.9-1.63h6.84Z"/>
      <path class="cls-1" d="M695.89,379.15h3.56v65.49h-3.56v-65.49Z"/>
      <path class="cls-1" d="M760.43,444.64h-3.56v-22.44c0-2.51-.46-4.93-1.37-7.27-.9-2.33-2.14-4.41-3.74-6.22-1.59-1.81-3.48-3.25-5.7-4.33-2.22-1.1-4.64-1.65-7.25-1.65-2.42,0-4.72.54-6.89,1.6-2.15,1.05-4.04,2.47-5.65,4.26-1.62,1.77-2.91,3.86-3.89,6.27-.97,2.39-1.44,4.93-1.44,7.61s.48,5.31,1.44,7.69c.98,2.37,2.3,4.46,3.95,6.27s3.55,3.22,5.7,4.26c2.15,1.03,4.41,1.55,6.78,1.55,2.99,0,5.53-.54,7.61-1.63,2.1-1.1,4.18-2.71,6.24-4.85v4.23c-2.37,2-4.69,3.43-6.94,4.31-2.24.86-4.54,1.29-6.91,1.29-3.06,0-5.92-.59-8.56-1.78-2.65-1.19-4.95-2.8-6.89-4.85-1.93-2.06-3.44-4.49-4.54-7.3-1.08-2.8-1.63-5.86-1.63-9.18s.54-6.27,1.63-9.11c1.1-2.84,2.61-5.29,4.54-7.35,1.94-2.06,4.22-3.68,6.84-4.85,2.63-1.19,5.5-1.78,8.62-1.78s6.02.61,8.67,1.83c2.64,1.21,4.91,2.84,6.81,4.9,1.91,2.05,3.4,4.46,4.49,7.25,1.1,2.77,1.65,5.69,1.65,8.74v22.54Z"/>
      <path class="cls-1" d="M777.65,400.3h3.53v8.51h.21c.81-1.68,1.79-3.07,2.94-4.15,1.15-1.1,2.32-1.97,3.51-2.63,1.19-.65,2.32-1.1,3.4-1.34,1.1-.26,1.99-.39,2.68-.39h4.67v3.35h-4.31c-.69,0-1.49.15-2.4.44-.9.28-1.72.63-2.45,1.06-.95.57-1.92,1.33-2.91,2.3-1,.97-1.9,2.13-2.68,3.51-.77,1.38-1.41,2.91-1.91,4.59-.5,1.69-.75,3.53-.75,5.52v23.58h-3.53v-44.34Z"/>
      <path class="cls-1" d="M817.2,387.77c0,.81-.27,1.48-.8,2.01-.52.54-1.18.8-1.99.8s-1.51-.26-2.04-.8c-.52-.53-.77-1.2-.77-2.01s.26-1.48.77-2.01c.53-.53,1.21-.8,2.04-.8s1.47.27,1.99.8c.53.54.8,1.21.8,2.01ZM812.64,400.3h3.56v44.34h-3.56v-44.34Z"/>
      <path class="cls-1" d="M858.27,379.15v3.38h-7.3c-1.5,0-2.9.27-4.2.8-1.31.52-2.48,1.25-3.51,2.19-1.03.93-1.85,2.08-2.45,3.46-.59,1.38-.88,2.91-.88,4.59v6.73h18.34v3.35h-18.34v40.99h-3.53v-52.03c0-1.99.4-3.82,1.21-5.47.81-1.65,1.88-3.07,3.22-4.26s2.9-2.1,4.67-2.76c1.79-.65,3.64-.98,5.57-.98h7.2Z"/>
      <path class="cls-1" d="M868.39,400.3h3.53v26.85c0,2.12.36,4.09,1.08,5.93.72,1.84,1.7,3.43,2.94,4.77,1.25,1.34,2.75,2.41,4.49,3.2,1.75.77,3.66,1.16,5.73,1.16s3.86-.37,5.6-1.11c1.75-.75,3.26-1.82,4.54-3.2,1.29-1.37,2.28-2.97,2.99-4.77.72-1.81,1.08-3.8,1.08-5.98v-26.85h3.56v27.42c0,2.17-.36,4.27-1.08,6.29-.72,2.03-1.77,3.86-3.15,5.49-1.36,1.62-3.01,2.94-4.95,3.97-1.93,1.03-4.14,1.66-6.63,1.91v19.45h-3.92v-19.45c-2.5-.25-4.73-.88-6.71-1.91-1.96-1.03-3.61-2.35-4.95-3.97-1.34-1.63-2.37-3.46-3.1-5.49-.71-2.02-1.06-4.13-1.06-6.29v-27.42Z"/>
      <path class="cls-1" d="M987.27,411.91c0,2.17-.43,4.26-1.26,6.27-.83,2-1.96,3.74-3.4,5.24-1.43,1.5-3.16,2.68-5.18,3.56-2.03.86-4.2,1.29-6.5,1.29s-4.46-.43-6.47-1.29c-2-.88-3.73-2.04-5.18-3.51-1.46-1.48-2.62-3.21-3.46-5.21-.84-1.99-1.26-4.11-1.26-6.35s.42-4.37,1.26-6.37c.84-1.99,1.99-3.74,3.46-5.24,1.46-1.5,3.19-2.66,5.18-3.51,2.01-.84,4.17-1.26,6.47-1.26s4.45.44,6.45,1.32c1.99.86,3.72,2.04,5.18,3.53,1.48,1.5,2.63,3.24,3.46,5.21.84,1.96,1.26,4.07,1.26,6.32Z"/>
      <path class="cls-1" d="M1078.68,465.79h-3.56v-43.59c0-2.51-.46-4.93-1.37-7.27-.9-2.33-2.14-4.41-3.74-6.22-1.59-1.81-3.48-3.25-5.7-4.33-2.22-1.1-4.64-1.65-7.25-1.65-2.37,0-4.66.54-6.84,1.6-2.19,1.05-4.09,2.47-5.7,4.26-1.62,1.77-2.91,3.86-3.89,6.27-.97,2.39-1.44,4.93-1.44,7.61s.48,5.31,1.44,7.69c.98,2.37,2.28,4.46,3.89,6.27,1.61,1.81,3.51,3.22,5.7,4.26,2.18,1.03,4.46,1.55,6.84,1.55,2.99,0,5.53-.54,7.61-1.63,2.1-1.1,4.18-2.71,6.24-4.85v4.23c-2.37,2-4.69,3.43-6.94,4.31-2.24.86-4.54,1.29-6.91,1.29-3.11,0-5.98-.59-8.62-1.78-2.62-1.19-4.89-2.8-6.84-4.85-1.93-2.06-3.44-4.49-4.54-7.3-1.08-2.8-1.63-5.86-1.63-9.18s.54-6.27,1.63-9.11c1.1-2.84,2.61-5.29,4.54-7.35,1.94-2.06,4.22-3.68,6.84-4.85,2.63-1.19,5.5-1.78,8.62-1.78s6.02.61,8.67,1.83c2.64,1.21,4.91,2.84,6.81,4.9,1.91,2.05,3.4,4.46,4.49,7.25,1.1,2.77,1.65,5.69,1.65,8.74v43.7Z"/>
      <path class="cls-1" d="M1095.9,400.3h3.53v26.85c0,2.12.36,4.09,1.08,5.93.72,1.84,1.7,3.43,2.94,4.77,1.25,1.34,2.75,2.41,4.49,3.2,1.75.77,3.66,1.16,5.73,1.16s3.86-.37,5.6-1.11c1.75-.75,3.26-1.82,4.54-3.2,1.29-1.37,2.28-2.97,2.99-4.77.72-1.81,1.08-3.8,1.08-5.98v-26.85h3.56v27.42c0,2.5-.44,4.84-1.32,7.02-.88,2.17-2.12,4.05-3.71,5.65-1.59,1.59-3.47,2.85-5.65,3.79-2.19.93-4.55,1.39-7.09,1.39s-4.94-.46-7.12-1.39c-2.19-.94-4.08-2.21-5.67-3.79-1.59-1.6-2.81-3.48-3.69-5.65-.86-2.18-1.29-4.52-1.29-7.02v-27.42Z"/>
      <path class="cls-1" d="M1156.21,387.77c0,.81-.27,1.48-.8,2.01-.52.54-1.18.8-1.99.8s-1.51-.26-2.04-.8c-.52-.53-.77-1.2-.77-2.01s.26-1.48.77-2.01c.53-.53,1.21-.8,2.04-.8s1.47.27,1.99.8c.53.54.8,1.21.8,2.01ZM1151.65,400.3h3.56v44.34h-3.56v-44.34Z"/>
      <path class="cls-1" d="M1199.17,400.3c1.56,0,2.61.39,3.12,1.16.53.77.8,1.57.8,2.4,0,1.05-.15,1.99-.46,2.81-.31.81-1.15,2.02-2.53,3.64l-21.33,25.82c-.62.74-1.12,1.33-1.5,1.78-.38.43-.66.79-.85,1.08-.17.28-.3.49-.36.64-.07.15-.1.33-.1.52,0,.31.17.54.52.7.34.15.67.23.98.23h26.77v3.56h-28.63c-2.5,0-3.74-1.34-3.74-4.02,0-.31,0-.63.03-.98.03-.34.14-.73.34-1.16.19-.44.48-.98.88-1.6.41-.62.99-1.37,1.75-2.24l21.33-25.82c.68-.81,1.32-1.55,1.91-2.24.6-.68.9-1.28.9-1.78,0-.31-.17-.54-.52-.7-.35-.15-.67-.23-.98-.23h-23.78v-3.56h25.46Z"/>
    </g>
  </g>
</svg>