<svg xmlns="http://www.w3.org/2000/svg" xmlns:xlink="http://www.w3.org/1999/xlink" width="1538" zoomAndPan="magnify" viewBox="0 0 1153.5 555.750005" height="741" preserveAspectRatio="xMidYMid meet" version="1.2"><defs/><g id="8e207a50e1"><g style="fill:#ffffff;fill-opacity:1;"><g transform="translate(95.537907, 338.015045)"><path style="stroke:none" d="M 132.703125 -212.5625 L 132.703125 -161.546875 L 93.828125 -161.546875 L 93.828125 0 L 41 0 L 41 -161.546875 L 2.125 -161.546875 L 2.125 -212.5625 Z M 132.703125 -212.5625 "/></g></g><g style="fill:#ffffff;fill-opacity:1;"><g transform="translate(213.663724, 338.015045)"><path style="stroke:none" d="M 82.59375 -53.75 L 64.078125 -82.90625 L 103.859375 -109.015625 C 100.410156 -111.046875 97.164062 -112.414062 94.125 -113.125 C 91.09375 -113.832031 88.0625 -114.1875 85.03125 -114.1875 C 80.375 -114.1875 76.171875 -113.117188 72.421875 -110.984375 C 68.679688 -108.859375 65.441406 -106.023438 62.703125 -102.484375 C 59.972656 -98.941406 57.847656 -94.894531 56.328125 -90.34375 C 54.804688 -85.789062 54.046875 -81.082031 54.046875 -76.21875 C 54.046875 -70.957031 54.957031 -66.097656 56.78125 -61.640625 C 58.601562 -57.191406 61.03125 -53.242188 64.0625 -49.796875 C 67.101562 -46.359375 70.597656 -43.675781 74.546875 -41.75 C 78.492188 -39.832031 82.59375 -38.875 86.84375 -38.875 C 95.351562 -38.875 103.65625 -41.957031 111.75 -48.125 C 119.84375 -54.300781 126.019531 -62.25 130.28125 -71.96875 L 165.203125 -54.046875 C 161.554688 -45.347656 156.894531 -37.453125 151.21875 -30.359375 C 145.550781 -23.273438 139.175781 -17.203125 132.09375 -12.140625 C 125.007812 -7.085938 117.367188 -3.191406 109.171875 -0.453125 C 100.972656 2.273438 92.421875 3.640625 83.515625 3.640625 C 73.179688 3.640625 63.410156 1.566406 54.203125 -2.578125 C 44.992188 -6.734375 36.894531 -12.398438 29.90625 -19.578125 C 22.925781 -26.765625 17.410156 -35.015625 13.359375 -44.328125 C 9.304688 -53.648438 7.28125 -63.472656 7.28125 -73.796875 C 7.28125 -84.117188 9.304688 -93.9375 13.359375 -103.25 C 17.410156 -112.5625 22.925781 -120.757812 29.90625 -127.84375 C 36.894531 -134.925781 44.992188 -140.59375 54.203125 -144.84375 C 63.410156 -149.101562 73.179688 -151.234375 83.515625 -151.234375 C 100.515625 -151.234375 114.832031 -146.976562 126.46875 -138.46875 C 138.113281 -129.96875 147.882812 -118.53125 155.78125 -104.15625 Z M 82.59375 -53.75 "/></g></g><g style="fill:#ffffff;fill-opacity:1;"><g transform="translate(382.501658, 338.015045)"><path style="stroke:none" d="M 6.6875 -147.578125 L 12.75 -147.578125 C 20.851562 -147.578125 27.785156 -147.117188 33.546875 -146.203125 C 39.316406 -145.296875 44.226562 -143.832031 48.28125 -141.8125 C 52.332031 -139.789062 55.820312 -137.207031 58.75 -134.0625 C 61.6875 -130.925781 64.578125 -127.234375 67.421875 -122.984375 C 69.847656 -127.234375 72.578125 -130.925781 75.609375 -134.0625 C 78.648438 -137.207031 82.242188 -139.738281 86.390625 -141.65625 C 90.546875 -143.582031 95.351562 -145.050781 100.8125 -146.0625 C 106.28125 -147.070312 112.863281 -147.578125 120.5625 -147.578125 L 128.15625 -147.578125 L 128.15625 -105.078125 C 114.582031 -105.078125 104.960938 -102.59375 99.296875 -97.625 C 93.628906 -92.664062 90.796875 -84.722656 90.796875 -73.796875 C 90.796875 -62.859375 93.628906 -54.910156 99.296875 -49.953125 C 104.960938 -44.992188 114.582031 -42.515625 128.15625 -42.515625 L 128.15625 0 L 119.34375 0 C 111.644531 0 105.0625 -0.503906 99.59375 -1.515625 C 94.132812 -2.523438 89.476562 -4.09375 85.625 -6.21875 C 81.78125 -8.34375 78.441406 -10.925781 75.609375 -13.96875 C 72.773438 -17.007812 70.046875 -20.550781 67.421875 -24.59375 C 64.578125 -20.34375 61.6875 -16.648438 58.75 -13.515625 C 55.820312 -10.378906 52.382812 -7.847656 48.4375 -5.921875 C 44.488281 -3.992188 39.832031 -2.523438 34.46875 -1.515625 C 29.101562 -0.503906 22.570312 0 14.875 0 L 6.6875 0 L 6.6875 -42.515625 C 20.25 -42.515625 29.863281 -44.992188 35.53125 -49.953125 C 41.195312 -54.910156 44.03125 -62.859375 44.03125 -73.796875 C 44.03125 -84.722656 41.195312 -92.664062 35.53125 -97.625 C 29.863281 -102.59375 20.25 -105.078125 6.6875 -105.078125 Z M 6.6875 -147.578125 "/></g></g><g style="fill:#ffffff;fill-opacity:1;"><g transform="translate(517.329125, 338.015045)"><path style="stroke:none" d="M 58.609375 -184.03125 L 58.609375 -148.796875 L 92.921875 -148.796875 L 92.921875 -104.46875 L 58.3125 -104.46875 L 58.3125 -64.984375 C 58.3125 -57.296875 59.976562 -51.929688 63.3125 -48.890625 C 66.65625 -45.859375 73.285156 -44.34375 83.203125 -44.34375 C 84.828125 -44.34375 86.445312 -44.390625 88.0625 -44.484375 C 89.6875 -44.585938 91.507812 -44.738281 93.53125 -44.9375 L 93.53125 0 L 64.984375 0 C 56.679688 0 49.238281 -1.265625 42.65625 -3.796875 C 36.082031 -6.328125 30.515625 -9.921875 25.953125 -14.578125 C 21.398438 -19.234375 17.859375 -24.800781 15.328125 -31.28125 C 12.804688 -37.757812 11.546875 -44.945312 11.546875 -52.84375 L 11.546875 -184.03125 Z M 58.609375 -184.03125 "/></g></g><g style="fill:#ffffff;fill-opacity:1;"><g transform="translate(618.44968, 338.015045)"><path style="stroke:none" d="M 69.84375 -188.578125 C 69.84375 -180.679688 67.160156 -174.101562 61.796875 -168.84375 C 56.429688 -163.582031 49.898438 -160.953125 42.203125 -160.953125 C 34.515625 -160.953125 27.988281 -163.582031 22.625 -168.84375 C 17.257812 -174.101562 14.578125 -180.679688 14.578125 -188.578125 C 14.578125 -196.472656 17.257812 -203.050781 22.625 -208.3125 C 27.988281 -213.582031 34.515625 -216.21875 42.203125 -216.21875 C 49.898438 -216.21875 56.429688 -213.582031 61.796875 -208.3125 C 67.160156 -203.050781 69.84375 -196.472656 69.84375 -188.578125 Z M 66.5 -147.578125 L 66.5 0 L 17.921875 0 L 17.921875 -147.578125 Z M 66.5 -147.578125 "/></g></g><g style="fill:#ffffff;fill-opacity:1;"><g transform="translate(702.868687, 338.015045)"><path style="stroke:none" d="M 99 -212.5625 L 99 -168.234375 L 75.921875 -168.234375 C 70.859375 -168.234375 67.160156 -166.765625 64.828125 -163.828125 C 62.503906 -160.890625 61.34375 -155.878906 61.34375 -148.796875 L 99 -148.796875 L 99 -104.46875 L 61.34375 -104.46875 L 61.34375 0 L 12.75 0 L 12.75 -160.03125 C 12.75 -167.519531 14.21875 -174.503906 17.15625 -180.984375 C 20.09375 -187.460938 24.140625 -193.03125 29.296875 -197.6875 C 34.460938 -202.34375 40.640625 -205.984375 47.828125 -208.609375 C 55.015625 -211.242188 62.757812 -212.5625 71.0625 -212.5625 Z M 99 -212.5625 "/></g></g><g style="fill:#ffffff;fill-opacity:1;"><g transform="translate(803.989288, 338.015045)"><path style="stroke:none" d="M 58.90625 -147.578125 L 58.90625 -61.34375 C 58.90625 -55.675781 60.222656 -50.914062 62.859375 -47.0625 C 65.492188 -43.21875 70.050781 -41.296875 76.53125 -41.296875 C 80.164062 -41.296875 83.046875 -41.898438 85.171875 -43.109375 C 87.304688 -44.328125 88.925781 -46 90.03125 -48.125 C 91.144531 -50.257812 91.90625 -52.585938 92.3125 -55.109375 C 92.71875 -57.640625 92.921875 -60.320312 92.921875 -63.15625 L 92.921875 -147.578125 L 139.6875 -147.578125 L 139.6875 -51.625 C 139.6875 -38.664062 136.394531 -27.679688 129.8125 -18.671875 C 123.238281 -9.660156 113.570312 -3.03125 100.8125 1.21875 L 100.8125 63.765625 L 52.234375 63.765625 L 52.234375 1.21875 C 25.503906 -6.882812 12.140625 -24.5 12.140625 -51.625 L 12.140625 -147.578125 Z M 58.90625 -147.578125 "/></g></g><g style="fill:#ffffff;fill-opacity:1;"><g transform="translate(955.82194, 338.015045)"><path style="stroke:none" d="M 78.953125 -212.5625 L 74.703125 -67.109375 L 26.109375 -67.109375 L 21.859375 -212.5625 Z M 81.390625 -27.328125 C 81.390625 -23.273438 80.628906 -19.425781 79.109375 -15.78125 C 77.585938 -12.144531 75.457031 -8.859375 72.71875 -5.921875 C 69.988281 -2.984375 66.75 -0.65625 63 1.0625 C 59.257812 2.78125 55.0625 3.640625 50.40625 3.640625 C 45.957031 3.640625 41.804688 2.78125 37.953125 1.0625 C 34.109375 -0.65625 30.816406 -2.929688 28.078125 -5.765625 C 25.347656 -8.597656 23.222656 -11.882812 21.703125 -15.625 C 20.191406 -19.375 19.4375 -23.273438 19.4375 -27.328125 C 19.4375 -31.578125 20.242188 -35.570312 21.859375 -39.3125 C 23.484375 -43.0625 25.660156 -46.351562 28.390625 -49.1875 C 31.128906 -52.03125 34.367188 -54.257812 38.109375 -55.875 C 41.859375 -57.5 45.957031 -58.3125 50.40625 -58.3125 C 54.863281 -58.3125 59.015625 -57.445312 62.859375 -55.71875 C 66.703125 -54 69.988281 -51.722656 72.71875 -48.890625 C 75.457031 -46.054688 77.585938 -42.765625 79.109375 -39.015625 C 80.628906 -35.273438 81.390625 -31.378906 81.390625 -27.328125 Z M 81.390625 -27.328125 "/></g></g><g style="fill:#ffffff;fill-opacity:1;"><g transform="translate(538.134052, 263.473591)"><path style="stroke:none" d="M 8.921875 0.328125 C 7.660156 0.328125 6.664062 -0.0234375 5.9375 -0.734375 C 5.207031 -1.441406 4.84375 -2.378906 4.84375 -3.546875 C 4.84375 -4.703125 5.207031 -5.648438 5.9375 -6.390625 C 6.664062 -7.128906 7.660156 -7.5 8.921875 -7.5 C 10.210938 -7.5 11.222656 -7.144531 11.953125 -6.4375 C 12.679688 -5.726562 13.046875 -4.789062 13.046875 -3.625 C 13.046875 -2.445312 12.671875 -1.492188 11.921875 -0.765625 C 11.179688 -0.0351562 10.179688 0.328125 8.921875 0.328125 Z M 8.921875 0.328125 "/></g></g></g></svg>