<svg xmlns="http://www.w3.org/2000/svg" xmlns:xlink="http://www.w3.org/1999/xlink" width="1563" zoomAndPan="magnify" viewBox="0 0 1172.25 561.000005" height="748" preserveAspectRatio="xMidYMid meet" version="1.2"><defs/><g id="005f4d46cb"><g style="fill:#ffffff;fill-opacity:1;"><g transform="translate(101.004561, 340.616642)"><path style="stroke:none" d="M 133.71875 -214.203125 L 133.71875 -162.796875 L 94.546875 -162.796875 L 94.546875 0 L 41.3125 0 L 41.3125 -162.796875 L 2.140625 -162.796875 L 2.140625 -214.203125 Z M 133.71875 -214.203125 "/></g></g><g style="fill:#ffffff;fill-opacity:1;"><g transform="translate(220.039561, 340.616642)"><path style="stroke:none" d="M 83.234375 -54.15625 L 64.5625 -83.53125 L 104.65625 -109.859375 C 101.1875 -111.890625 97.921875 -113.265625 94.859375 -113.984375 C 91.796875 -114.703125 88.738281 -115.0625 85.6875 -115.0625 C 80.988281 -115.0625 76.75 -113.988281 72.96875 -111.84375 C 69.195312 -109.695312 65.9375 -106.835938 63.1875 -103.265625 C 60.4375 -99.703125 58.296875 -95.625 56.765625 -91.03125 C 55.234375 -86.445312 54.46875 -81.707031 54.46875 -76.8125 C 54.46875 -71.5 55.382812 -66.597656 57.21875 -62.109375 C 59.050781 -57.628906 61.5 -53.65625 64.5625 -50.1875 C 67.625 -46.71875 71.144531 -44.015625 75.125 -42.078125 C 79.101562 -40.140625 83.234375 -39.171875 87.515625 -39.171875 C 96.085938 -39.171875 104.453125 -42.28125 112.609375 -48.5 C 120.765625 -54.71875 126.988281 -62.722656 131.28125 -72.515625 L 166.46875 -54.46875 C 162.789062 -45.695312 158.09375 -37.738281 152.375 -30.59375 C 146.664062 -23.457031 140.242188 -17.335938 133.109375 -12.234375 C 125.972656 -7.140625 118.269531 -3.210938 110 -0.453125 C 101.738281 2.296875 93.125 3.671875 84.15625 3.671875 C 73.75 3.671875 63.90625 1.582031 54.625 -2.59375 C 45.34375 -6.78125 37.179688 -12.492188 30.140625 -19.734375 C 23.097656 -26.972656 17.535156 -35.285156 13.453125 -44.671875 C 9.378906 -54.054688 7.34375 -63.953125 7.34375 -74.359375 C 7.34375 -84.765625 9.378906 -94.65625 13.453125 -104.03125 C 17.535156 -113.414062 23.097656 -121.675781 30.140625 -128.8125 C 37.179688 -135.957031 45.34375 -141.671875 54.625 -145.953125 C 63.90625 -150.242188 73.75 -152.390625 84.15625 -152.390625 C 101.289062 -152.390625 115.722656 -148.101562 127.453125 -139.53125 C 139.179688 -130.96875 149.023438 -119.441406 156.984375 -104.953125 Z M 83.234375 -54.15625 "/></g></g><g style="fill:#ffffff;fill-opacity:1;"><g transform="translate(390.176995, 340.616642)"><path style="stroke:none" d="M 6.734375 -148.71875 L 12.859375 -148.71875 C 21.015625 -148.71875 28 -148.257812 33.8125 -147.34375 C 39.625 -146.425781 44.570312 -144.945312 48.65625 -142.90625 C 52.738281 -140.863281 56.253906 -138.257812 59.203125 -135.09375 C 62.160156 -131.9375 65.070312 -128.21875 67.9375 -123.9375 C 70.382812 -128.21875 73.132812 -131.9375 76.1875 -135.09375 C 79.25 -138.257812 82.867188 -140.8125 87.046875 -142.75 C 91.234375 -144.6875 96.082031 -146.164062 101.59375 -147.1875 C 107.101562 -148.207031 113.734375 -148.71875 121.484375 -148.71875 L 129.125 -148.71875 L 129.125 -105.875 C 115.457031 -105.875 105.769531 -103.375 100.0625 -98.375 C 94.351562 -93.375 91.5 -85.367188 91.5 -74.359375 C 91.5 -63.335938 94.351562 -55.328125 100.0625 -50.328125 C 105.769531 -45.335938 115.457031 -42.84375 129.125 -42.84375 L 129.125 0 L 120.265625 0 C 112.503906 0 105.867188 -0.507812 100.359375 -1.53125 C 94.859375 -2.550781 90.171875 -4.128906 86.296875 -6.265625 C 82.421875 -8.410156 79.050781 -11.015625 76.1875 -14.078125 C 73.332031 -17.140625 70.582031 -20.707031 67.9375 -24.78125 C 65.070312 -20.5 62.160156 -16.773438 59.203125 -13.609375 C 56.253906 -10.453125 52.789062 -7.90625 48.8125 -5.96875 C 44.832031 -4.03125 40.140625 -2.550781 34.734375 -1.53125 C 29.328125 -0.507812 22.75 0 15 0 L 6.734375 0 L 6.734375 -42.84375 C 20.398438 -42.84375 30.085938 -45.335938 35.796875 -50.328125 C 41.515625 -55.328125 44.375 -63.335938 44.375 -74.359375 C 44.375 -85.367188 41.515625 -93.375 35.796875 -98.375 C 30.085938 -103.375 20.398438 -105.875 6.734375 -105.875 Z M 6.734375 -148.71875 "/></g></g><g style="fill:#ffffff;fill-opacity:1;"><g transform="translate(526.042192, 340.616642)"><path style="stroke:none" d="M 59.0625 -185.4375 L 59.0625 -149.9375 L 93.640625 -149.9375 L 93.640625 -105.265625 L 58.75 -105.265625 L 58.75 -65.484375 C 58.75 -57.734375 60.429688 -52.328125 63.796875 -49.265625 C 67.160156 -46.203125 73.84375 -44.671875 83.84375 -44.671875 C 85.476562 -44.671875 87.109375 -44.722656 88.734375 -44.828125 C 90.367188 -44.929688 92.207031 -45.082031 94.25 -45.28125 L 94.25 0 L 65.484375 0 C 57.117188 0 49.617188 -1.273438 42.984375 -3.828125 C 36.359375 -6.378906 30.75 -10 26.15625 -14.6875 C 21.570312 -19.375 18.003906 -24.984375 15.453125 -31.515625 C 12.898438 -38.046875 11.625 -45.289062 11.625 -53.25 L 11.625 -185.4375 Z M 59.0625 -185.4375 "/></g></g><g style="fill:#ffffff;fill-opacity:1;"><g transform="translate(627.941045, 340.616642)"><path style="stroke:none" d="M 70.375 -190.03125 C 70.375 -182.070312 67.671875 -175.441406 62.265625 -170.140625 C 56.859375 -164.835938 50.28125 -162.1875 42.53125 -162.1875 C 34.78125 -162.1875 28.203125 -164.835938 22.796875 -170.140625 C 17.390625 -175.441406 14.6875 -182.070312 14.6875 -190.03125 C 14.6875 -197.976562 17.390625 -204.601562 22.796875 -209.90625 C 28.203125 -215.21875 34.78125 -217.875 42.53125 -217.875 C 50.28125 -217.875 56.859375 -215.21875 62.265625 -209.90625 C 67.671875 -204.601562 70.375 -197.976562 70.375 -190.03125 Z M 67.015625 -148.71875 L 67.015625 0 L 18.046875 0 L 18.046875 -148.71875 Z M 67.015625 -148.71875 "/></g></g><g style="fill:#ffffff;fill-opacity:1;"><g transform="translate(713.009802, 340.616642)"><path style="stroke:none" d="M 99.75 -214.203125 L 99.75 -169.53125 L 76.5 -169.53125 C 71.394531 -169.53125 67.671875 -168.050781 65.328125 -165.09375 C 62.984375 -162.132812 61.8125 -157.082031 61.8125 -149.9375 L 99.75 -149.9375 L 99.75 -105.265625 L 61.8125 -105.265625 L 61.8125 0 L 12.859375 0 L 12.859375 -161.265625 C 12.859375 -168.804688 14.332031 -175.84375 17.28125 -182.375 C 20.238281 -188.90625 24.316406 -194.515625 29.515625 -199.203125 C 34.722656 -203.898438 40.945312 -207.570312 48.1875 -210.21875 C 55.4375 -212.875 63.242188 -214.203125 71.609375 -214.203125 Z M 99.75 -214.203125 "/></g></g><g style="fill:#ffffff;fill-opacity:1;"><g transform="translate(814.908701, 340.616642)"><path style="stroke:none" d="M 59.359375 -148.71875 L 59.359375 -61.8125 C 59.359375 -56.101562 60.679688 -51.304688 63.328125 -47.421875 C 65.984375 -43.546875 70.578125 -41.609375 77.109375 -41.609375 C 80.785156 -41.609375 83.691406 -42.21875 85.828125 -43.4375 C 87.972656 -44.664062 89.601562 -46.351562 90.71875 -48.5 C 91.84375 -50.644531 92.609375 -52.988281 93.015625 -55.53125 C 93.429688 -58.082031 93.640625 -60.785156 93.640625 -63.640625 L 93.640625 -148.71875 L 140.765625 -148.71875 L 140.765625 -52.015625 C 140.765625 -38.960938 137.445312 -27.894531 130.8125 -18.8125 C 124.1875 -9.738281 114.445312 -3.0625 101.59375 1.21875 L 101.59375 64.265625 L 52.625 64.265625 L 52.625 1.21875 C 25.695312 -6.9375 12.234375 -24.679688 12.234375 -52.015625 L 12.234375 -148.71875 Z M 59.359375 -148.71875 "/></g></g><g style="fill:#ffffff;fill-opacity:1;"><g transform="translate(967.909968, 340.616642)"><path style="stroke:none" d="M 79.5625 -214.203125 L 75.28125 -67.625 L 26.3125 -67.625 L 22.03125 -214.203125 Z M 82.015625 -27.546875 C 82.015625 -23.460938 81.25 -19.582031 79.71875 -15.90625 C 78.1875 -12.238281 76.039062 -8.925781 73.28125 -5.96875 C 70.53125 -3.007812 67.265625 -0.664062 63.484375 1.0625 C 59.710938 2.800781 55.484375 3.671875 50.796875 3.671875 C 46.304688 3.671875 42.125 2.800781 38.25 1.0625 C 34.375 -0.664062 31.054688 -2.957031 28.296875 -5.8125 C 25.546875 -8.664062 23.40625 -11.976562 21.875 -15.75 C 20.34375 -19.53125 19.578125 -23.460938 19.578125 -27.546875 C 19.578125 -31.828125 20.394531 -35.851562 22.03125 -39.625 C 23.664062 -43.394531 25.859375 -46.707031 28.609375 -49.5625 C 31.359375 -52.425781 34.617188 -54.671875 38.390625 -56.296875 C 42.171875 -57.929688 46.304688 -58.75 50.796875 -58.75 C 55.285156 -58.75 59.46875 -57.878906 63.34375 -56.140625 C 67.21875 -54.410156 70.53125 -52.117188 73.28125 -49.265625 C 76.039062 -46.410156 78.1875 -43.09375 79.71875 -39.3125 C 81.25 -35.539062 82.015625 -31.617188 82.015625 -27.546875 Z M 82.015625 -27.546875 "/></g></g><g style="fill:#ffffff;fill-opacity:1;"><g transform="translate(547.012991, 263.985193)"><path style="stroke:none" d="M 8.921875 0.328125 C 7.660156 0.328125 6.664062 -0.0234375 5.9375 -0.734375 C 5.207031 -1.441406 4.84375 -2.378906 4.84375 -3.546875 C 4.84375 -4.691406 5.207031 -5.632812 5.9375 -6.375 C 6.664062 -7.113281 7.660156 -7.484375 8.921875 -7.484375 C 10.203125 -7.484375 11.207031 -7.128906 11.9375 -6.421875 C 12.664062 -5.722656 13.03125 -4.785156 13.03125 -3.609375 C 13.03125 -2.441406 12.65625 -1.492188 11.90625 -0.765625 C 11.164062 -0.0351562 10.171875 0.328125 8.921875 0.328125 Z M 8.921875 0.328125 "/></g></g></g></svg>