<svg xmlns="http://www.w3.org/2000/svg" xmlns:xlink="http://www.w3.org/1999/xlink" width="1125" zoomAndPan="magnify" viewBox="0 0 843.75 113.999999" height="152" preserveAspectRatio="xMidYMid meet" version="1.2"><defs/><g id="5902cdd24b"><g style="fill:#ffffff;fill-opacity:1;"><g transform="translate(18.866257, 77.011759)"><path style="stroke:none" d="M 28.390625 -46.5625 C 28.898438 -46.5625 29.34375 -46.390625 29.71875 -46.046875 C 30.0625 -45.671875 30.234375 -45.226562 30.234375 -44.71875 L 30.234375 -13.53125 C 30.234375 -11.664062 29.894531 -9.90625 29.21875 -8.25 C 28.5 -6.601562 27.523438 -5.164062 26.296875 -3.9375 C 25.066406 -2.707031 23.625 -1.753906 21.96875 -1.078125 C 20.320312 -0.359375 18.566406 0 16.703125 0 C 14.835938 0 13.101562 -0.359375 11.5 -1.078125 C 9.84375 -1.796875 8.398438 -2.769531 7.171875 -4 C 5.941406 -5.226562 4.96875 -6.671875 4.25 -8.328125 C 3.53125 -9.929688 3.171875 -11.664062 3.171875 -13.53125 L 3.171875 -44.71875 C 3.171875 -45.226562 3.363281 -45.671875 3.75 -46.046875 C 4.082031 -46.390625 4.503906 -46.5625 5.015625 -46.5625 L 8.453125 -46.5625 C 8.992188 -46.5625 9.457031 -46.390625 9.84375 -46.046875 C 10.1875 -45.671875 10.359375 -45.226562 10.359375 -44.71875 L 10.359375 -13.71875 C 10.359375 -12.832031 10.523438 -11.984375 10.859375 -11.171875 C 11.203125 -10.367188 11.671875 -9.671875 12.265625 -9.078125 C 12.847656 -8.484375 13.546875 -8.019531 14.359375 -7.6875 C 15.160156 -7.34375 16.003906 -7.171875 16.890625 -7.171875 C 18.628906 -7.171875 20.09375 -7.765625 21.28125 -8.953125 C 22.46875 -10.140625 23.0625 -11.601562 23.0625 -13.34375 L 23.0625 -44.71875 C 23.0625 -45.226562 23.25 -45.671875 23.625 -46.046875 C 24.007812 -46.390625 24.457031 -46.5625 24.96875 -46.5625 Z M 28.390625 -46.5625 "/></g></g><g style="fill:#ffffff;fill-opacity:1;"><g transform="translate(52.277887, 77.011759)"><path style="stroke:none" d="M 15.5 -46.5625 C 18.414062 -46.5625 20.867188 -45.753906 22.859375 -44.140625 C 24.804688 -42.535156 26.269531 -40.523438 27.25 -38.109375 C 28.21875 -35.648438 28.703125 -33.023438 28.703125 -30.234375 C 28.703125 -27.398438 28.21875 -24.773438 27.25 -22.359375 C 26.269531 -19.898438 24.804688 -17.867188 22.859375 -16.265625 C 20.867188 -14.648438 18.414062 -13.84375 15.5 -13.84375 L 12.1875 -13.84375 C 11.6875 -13.84375 11.265625 -13.675781 10.921875 -13.34375 C 10.546875 -12.957031 10.359375 -12.507812 10.359375 -12 L 10.359375 -1.84375 C 10.359375 -1.332031 10.1875 -0.910156 9.84375 -0.578125 C 9.457031 -0.191406 9.015625 0 8.515625 0 L 5.015625 0 C 4.503906 0 4.082031 -0.191406 3.75 -0.578125 C 3.363281 -0.910156 3.171875 -1.332031 3.171875 -1.84375 L 3.171875 -44.71875 C 3.171875 -45.226562 3.363281 -45.671875 3.75 -46.046875 C 4.082031 -46.390625 4.503906 -46.5625 5.015625 -46.5625 Z M 15.625 -21.03125 C 16.9375 -21.03125 18.035156 -21.492188 18.921875 -22.421875 C 19.816406 -23.304688 20.492188 -24.425781 20.953125 -25.78125 C 21.421875 -27.132812 21.65625 -28.617188 21.65625 -30.234375 C 21.65625 -31.796875 21.445312 -33.253906 21.03125 -34.609375 C 20.5625 -35.972656 19.878906 -37.117188 18.984375 -38.046875 C 18.097656 -38.929688 16.976562 -39.375 15.625 -39.375 L 12.1875 -39.375 C 11.6875 -39.375 11.265625 -39.207031 10.921875 -38.875 C 10.546875 -38.488281 10.359375 -38.039062 10.359375 -37.53125 L 10.359375 -22.859375 C 10.359375 -22.359375 10.546875 -21.9375 10.921875 -21.59375 C 11.265625 -21.21875 11.6875 -21.03125 12.1875 -21.03125 Z M 15.625 -21.03125 "/></g></g><g style="fill:#ffffff;fill-opacity:1;"><g transform="translate(84.228551, 77.011759)"><path style="stroke:none" d="M 22.546875 -7.171875 C 23.054688 -7.171875 23.5 -7.003906 23.875 -6.671875 C 24.21875 -6.285156 24.390625 -5.835938 24.390625 -5.328125 L 24.390625 -1.84375 C 24.390625 -1.332031 24.21875 -0.910156 23.875 -0.578125 C 23.5 -0.191406 23.054688 0 22.546875 0 L 5.015625 0 C 4.503906 0 4.082031 -0.191406 3.75 -0.578125 C 3.363281 -0.910156 3.171875 -1.332031 3.171875 -1.84375 L 3.171875 -44.71875 C 3.171875 -45.226562 3.363281 -45.671875 3.75 -46.046875 C 4.082031 -46.390625 4.503906 -46.5625 5.015625 -46.5625 L 8.515625 -46.5625 C 9.015625 -46.5625 9.457031 -46.390625 9.84375 -46.046875 C 10.1875 -45.671875 10.359375 -45.226562 10.359375 -44.71875 L 10.359375 -9.015625 C 10.359375 -8.503906 10.546875 -8.082031 10.921875 -7.75 C 11.265625 -7.363281 11.6875 -7.171875 12.1875 -7.171875 Z M 22.546875 -7.171875 "/></g></g><g style="fill:#ffffff;fill-opacity:1;"><g transform="translate(111.796318, 77.011759)"><path style="stroke:none" d="M 20.828125 0 C 14.941406 0 10.390625 -2.457031 7.171875 -7.375 C 4.503906 -11.519531 3.171875 -16.8125 3.171875 -23.25 C 3.171875 -26.425781 3.507812 -29.367188 4.1875 -32.078125 C 4.863281 -34.742188 5.859375 -37.09375 7.171875 -39.125 C 10.390625 -44.082031 14.941406 -46.5625 20.828125 -46.5625 C 26.710938 -46.5625 31.265625 -44.082031 34.484375 -39.125 C 35.796875 -37.09375 36.789062 -34.742188 37.46875 -32.078125 C 38.144531 -29.367188 38.484375 -26.425781 38.484375 -23.25 C 38.484375 -16.8125 37.148438 -11.519531 34.484375 -7.375 C 31.265625 -2.457031 26.710938 0 20.828125 0 Z M 20.828125 -39.375 C 19.222656 -39.375 17.847656 -39.078125 16.703125 -38.484375 C 15.554688 -37.847656 14.601562 -37.046875 13.84375 -36.078125 C 13.039062 -35.054688 12.40625 -33.957031 11.9375 -32.78125 C 11.476562 -31.550781 11.140625 -30.34375 10.921875 -29.15625 C 10.671875 -27.925781 10.523438 -26.800781 10.484375 -25.78125 C 10.398438 -24.726562 10.359375 -23.882812 10.359375 -23.25 C 10.359375 -22.613281 10.398438 -21.785156 10.484375 -20.765625 C 10.523438 -19.710938 10.671875 -18.59375 10.921875 -17.40625 C 11.140625 -16.21875 11.476562 -15.03125 11.9375 -13.84375 C 12.40625 -12.613281 13.039062 -11.515625 13.84375 -10.546875 C 14.601562 -9.523438 15.554688 -8.71875 16.703125 -8.125 C 17.847656 -7.488281 19.222656 -7.171875 20.828125 -7.171875 C 22.441406 -7.171875 23.820312 -7.488281 24.96875 -8.125 C 26.101562 -8.71875 27.078125 -9.523438 27.890625 -10.546875 C 28.648438 -11.515625 29.257812 -12.613281 29.71875 -13.84375 C 30.1875 -15.03125 30.550781 -16.21875 30.8125 -17.40625 C 31.019531 -18.59375 31.164062 -19.710938 31.25 -20.765625 C 31.289062 -21.785156 31.3125 -22.613281 31.3125 -23.25 C 31.3125 -23.882812 31.289062 -24.726562 31.25 -25.78125 C 31.164062 -26.800781 31.019531 -27.925781 30.8125 -29.15625 C 30.550781 -30.34375 30.1875 -31.550781 29.71875 -32.78125 C 29.257812 -33.957031 28.648438 -35.054688 27.890625 -36.078125 C 27.078125 -37.046875 26.101562 -37.847656 24.96875 -38.484375 C 23.820312 -39.078125 22.441406 -39.375 20.828125 -39.375 Z M 20.828125 -39.375 "/></g></g><g style="fill:#ffffff;fill-opacity:1;"><g transform="translate(153.465572, 77.011759)"><path style="stroke:none" d="M 29.03125 0 C 28.132812 0 27.539062 -0.460938 27.25 -1.390625 C 27.125 -1.859375 26.953125 -2.539062 26.734375 -3.4375 C 26.484375 -4.28125 26.164062 -5.441406 25.78125 -6.921875 C 25.488281 -7.859375 24.878906 -8.328125 23.953125 -8.328125 L 13.78125 -8.328125 C 12.851562 -8.328125 12.238281 -7.859375 11.9375 -6.921875 C 11.644531 -5.773438 11.390625 -4.738281 11.171875 -3.8125 C 10.921875 -2.875 10.691406 -2.066406 10.484375 -1.390625 C 10.179688 -0.460938 9.585938 0 8.703125 0 L 5.078125 0 C 4.484375 0 4 -0.253906 3.625 -0.765625 C 3.238281 -1.222656 3.128906 -1.75 3.296875 -2.34375 C 3.722656 -3.914062 4.253906 -5.910156 4.890625 -8.328125 C 5.523438 -10.691406 6.222656 -13.269531 6.984375 -16.0625 C 7.742188 -18.820312 8.53125 -21.679688 9.34375 -24.640625 C 10.101562 -27.566406 10.84375 -30.363281 11.5625 -33.03125 C 12.238281 -35.65625 12.875 -38.046875 13.46875 -40.203125 C 14.019531 -42.316406 14.460938 -43.96875 14.796875 -45.15625 C 14.878906 -45.582031 15.09375 -45.921875 15.4375 -46.171875 C 15.769531 -46.429688 16.148438 -46.5625 16.578125 -46.5625 L 21.15625 -46.5625 C 21.570312 -46.5625 21.953125 -46.429688 22.296875 -46.171875 C 22.628906 -45.921875 22.835938 -45.582031 22.921875 -45.15625 C 24.410156 -39.570312 25.703125 -34.789062 26.796875 -30.8125 C 27.859375 -26.820312 28.75 -23.472656 29.46875 -20.765625 C 30.1875 -18.054688 30.78125 -15.878906 31.25 -14.234375 C 31.675781 -12.578125 32.035156 -11.265625 32.328125 -10.296875 C 32.578125 -9.273438 32.789062 -8.507812 32.96875 -8 C 33.09375 -7.445312 33.21875 -6.941406 33.34375 -6.484375 C 33.46875 -6.015625 33.617188 -5.484375 33.796875 -4.890625 C 33.921875 -4.296875 34.128906 -3.445312 34.421875 -2.34375 C 34.585938 -1.75 34.484375 -1.222656 34.109375 -0.765625 C 33.722656 -0.253906 33.234375 0 32.640625 0 Z M 14.859375 -17.84375 C 14.691406 -17.25 14.800781 -16.722656 15.1875 -16.265625 C 15.5625 -15.753906 16.046875 -15.5 16.640625 -15.5 L 21.09375 -15.5 C 21.675781 -15.5 22.160156 -15.753906 22.546875 -16.265625 C 22.929688 -16.722656 23.035156 -17.25 22.859375 -17.84375 C 22.523438 -19.03125 22.1875 -20.300781 21.84375 -21.65625 C 21.46875 -23.007812 21.066406 -24.453125 20.640625 -25.984375 C 20.515625 -26.441406 20.28125 -26.800781 19.9375 -27.0625 C 19.601562 -27.269531 19.242188 -27.375 18.859375 -27.375 C 18.484375 -27.375 18.125 -27.269531 17.78125 -27.0625 C 17.445312 -26.800781 17.210938 -26.441406 17.078125 -25.984375 C 16.703125 -24.628906 16.34375 -23.269531 16 -21.90625 C 15.625 -20.550781 15.242188 -19.195312 14.859375 -17.84375 Z M 14.859375 -17.84375 "/></g></g><g style="fill:#ffffff;fill-opacity:1;"><g transform="translate(191.19657, 77.011759)"><path style="stroke:none" d="M 10.359375 -46.5625 C 13.785156 -46.5625 16.875 -45.945312 19.625 -44.71875 C 22.375 -43.488281 24.722656 -41.835938 26.671875 -39.765625 C 28.578125 -37.640625 30.0625 -35.179688 31.125 -32.390625 C 32.132812 -29.554688 32.640625 -26.53125 32.640625 -23.3125 C 32.640625 -20.09375 32.132812 -17.085938 31.125 -14.296875 C 30.0625 -11.453125 28.578125 -8.972656 26.671875 -6.859375 C 24.722656 -4.742188 22.375 -3.070312 19.625 -1.84375 C 16.875 -0.613281 13.785156 0 10.359375 0 L 5.015625 0 C 4.503906 0 4.082031 -0.191406 3.75 -0.578125 C 3.363281 -0.910156 3.171875 -1.332031 3.171875 -1.84375 L 3.171875 -44.71875 C 3.171875 -45.226562 3.363281 -45.671875 3.75 -46.046875 C 4.082031 -46.390625 4.503906 -46.5625 5.015625 -46.5625 Z M 10.359375 -9.140625 C 10.359375 -8.546875 10.566406 -8.082031 10.984375 -7.75 C 11.367188 -7.363281 11.859375 -7.210938 12.453125 -7.296875 C 14.484375 -7.554688 16.28125 -8.148438 17.84375 -9.078125 C 19.414062 -10.015625 20.726562 -11.203125 21.78125 -12.640625 C 22.84375 -14.035156 23.648438 -15.664062 24.203125 -17.53125 C 24.710938 -19.351562 24.96875 -21.28125 24.96875 -23.3125 C 24.96875 -25.34375 24.710938 -27.289062 24.203125 -29.15625 C 23.648438 -30.976562 22.84375 -32.609375 21.78125 -34.046875 C 20.726562 -35.441406 19.414062 -36.601562 17.84375 -37.53125 C 16.28125 -38.46875 14.484375 -39.0625 12.453125 -39.3125 C 11.859375 -39.394531 11.367188 -39.25 10.984375 -38.875 C 10.566406 -38.488281 10.359375 -38.019531 10.359375 -37.46875 Z M 10.359375 -9.140625 "/></g></g><g style="fill:#ffffff;fill-opacity:1;"><g transform="translate(227.021972, 77.011759)"><path style="stroke:none" d=""/></g></g><g style="fill:#ffffff;fill-opacity:1;"><g transform="translate(246.078039, 77.011759)"><path style="stroke:none" d="M 22.171875 -20.265625 C 22.171875 -20.554688 22.273438 -20.785156 22.484375 -20.953125 C 22.648438 -21.128906 22.863281 -21.21875 23.125 -21.21875 L 30.8125 -21.21875 C 31.445312 -21.21875 31.765625 -20.898438 31.765625 -20.265625 L 31.765625 -14.03125 C 31.765625 -12.800781 31.613281 -11.660156 31.3125 -10.609375 C 30.675781 -8.234375 29.507812 -6.15625 27.8125 -4.375 C 26.125 -2.601562 24.09375 -1.359375 21.71875 -0.640625 C 21.300781 -0.503906 21.09375 -0.207031 21.09375 0.25 L 21.09375 3.234375 C 21.09375 3.492188 21.003906 3.707031 20.828125 3.875 C 20.617188 4.082031 20.390625 4.1875 20.140625 4.1875 L 14.859375 4.1875 C 14.566406 4.1875 14.332031 4.082031 14.15625 3.875 C 13.988281 3.707031 13.90625 3.492188 13.90625 3.234375 L 13.90625 0.25 C 13.90625 -0.164062 13.675781 -0.460938 13.21875 -0.640625 C 11.726562 -1.097656 10.367188 -1.773438 9.140625 -2.671875 C 7.910156 -3.515625 6.851562 -4.550781 5.96875 -5.78125 C 5.082031 -6.96875 4.40625 -8.28125 3.9375 -9.71875 C 3.425781 -11.15625 3.171875 -12.679688 3.171875 -14.296875 C 3.171875 -16.328125 3.570312 -18.226562 4.375 -20 C 5.1875 -21.78125 6.289062 -23.328125 7.6875 -24.640625 C 8.0625 -25.109375 8.082031 -25.554688 7.75 -25.984375 C 6.863281 -27.078125 6.164062 -28.300781 5.65625 -29.65625 C 5.144531 -31.007812 4.890625 -32.453125 4.890625 -33.984375 C 4.890625 -36.734375 5.671875 -39.1875 7.234375 -41.34375 C 8.804688 -43.46875 10.820312 -44.972656 13.28125 -45.859375 C 13.695312 -45.984375 13.90625 -46.28125 13.90625 -46.75 L 13.90625 -49.796875 C 13.90625 -50.046875 13.988281 -50.28125 14.15625 -50.5 C 14.332031 -50.664062 14.566406 -50.75 14.859375 -50.75 L 20.140625 -50.75 C 20.390625 -50.75 20.617188 -50.664062 20.828125 -50.5 C 21.003906 -50.28125 21.09375 -50.046875 21.09375 -49.796875 L 21.09375 -46.75 C 21.09375 -46.28125 21.300781 -45.984375 21.71875 -45.859375 C 23.882812 -45.097656 25.726562 -43.828125 27.25 -42.046875 C 28.726562 -40.222656 29.640625 -38.128906 29.984375 -35.765625 C 30.066406 -35.210938 29.851562 -34.875 29.34375 -34.75 L 24.203125 -33.03125 C 23.859375 -32.945312 23.5625 -33.007812 23.3125 -33.21875 C 23.050781 -33.382812 22.921875 -33.640625 22.921875 -33.984375 C 22.921875 -34.742188 22.796875 -35.460938 22.546875 -36.140625 C 22.253906 -36.773438 21.875 -37.347656 21.40625 -37.859375 C 20.894531 -38.316406 20.320312 -38.695312 19.6875 -39 C 19.007812 -39.289062 18.289062 -39.4375 17.53125 -39.4375 C 16.769531 -39.4375 16.070312 -39.289062 15.4375 -39 C 14.757812 -38.695312 14.164062 -38.316406 13.65625 -37.859375 C 13.144531 -37.347656 12.765625 -36.773438 12.515625 -36.140625 C 12.210938 -35.460938 12.0625 -34.742188 12.0625 -33.984375 C 12.0625 -32.585938 12.570312 -31.335938 13.59375 -30.234375 C 14.5625 -29.128906 15.851562 -28.578125 17.46875 -28.578125 L 17.65625 -28.578125 C 17.90625 -28.578125 18.140625 -28.492188 18.359375 -28.328125 C 18.523438 -28.117188 18.609375 -27.882812 18.609375 -27.625 L 18.609375 -22.296875 C 18.609375 -22.035156 18.523438 -21.820312 18.359375 -21.65625 C 18.140625 -21.445312 17.90625 -21.34375 17.65625 -21.34375 L 17.46875 -21.34375 C 16.40625 -21.34375 15.453125 -21.148438 14.609375 -20.765625 C 13.722656 -20.390625 12.960938 -19.882812 12.328125 -19.25 C 11.691406 -18.570312 11.203125 -17.804688 10.859375 -16.953125 C 10.523438 -16.109375 10.359375 -15.222656 10.359375 -14.296875 C 10.359375 -13.316406 10.546875 -12.40625 10.921875 -11.5625 C 11.304688 -10.664062 11.816406 -9.898438 12.453125 -9.265625 C 13.085938 -8.640625 13.847656 -8.132812 14.734375 -7.75 C 15.578125 -7.363281 16.488281 -7.171875 17.46875 -7.171875 C 19.25 -7.171875 20.773438 -7.742188 22.046875 -8.890625 C 23.316406 -9.992188 24.117188 -11.347656 24.453125 -12.953125 C 24.535156 -13.253906 24.492188 -13.507812 24.328125 -13.71875 C 24.117188 -13.925781 23.84375 -14.03125 23.5 -14.03125 L 23.125 -14.03125 C 22.863281 -14.03125 22.648438 -14.140625 22.484375 -14.359375 C 22.273438 -14.523438 22.171875 -14.753906 22.171875 -15.046875 Z M 22.171875 -20.265625 "/></g></g><g style="fill:#ffffff;fill-opacity:1;"><g transform="translate(281.014143, 77.011759)"><path style="stroke:none" d=""/></g></g><g style="fill:#ffffff;fill-opacity:1;"><g transform="translate(300.070233, 77.011759)"><path style="stroke:none" d="M 37.734375 -8.640625 C 37.984375 -8.515625 38.148438 -8.300781 38.234375 -8 C 38.273438 -7.707031 38.210938 -7.453125 38.046875 -7.234375 L 38.046875 -7.171875 C 36.265625 -4.804688 34.101562 -3.03125 31.5625 -1.84375 C 28.976562 -0.613281 26.097656 0 22.921875 0 C 16.492188 0 11.457031 -2.390625 7.8125 -7.171875 C 4.71875 -11.367188 3.171875 -16.726562 3.171875 -23.25 C 3.171875 -26.507812 3.570312 -29.492188 4.375 -32.203125 C 5.144531 -34.910156 6.289062 -37.28125 7.8125 -39.3125 C 9.59375 -41.726562 11.773438 -43.550781 14.359375 -44.78125 C 16.898438 -45.96875 19.753906 -46.5625 22.921875 -46.5625 C 26.097656 -46.5625 28.976562 -45.96875 31.5625 -44.78125 C 34.101562 -43.550781 36.265625 -41.726562 38.046875 -39.3125 C 38.210938 -39.101562 38.273438 -38.847656 38.234375 -38.546875 C 38.148438 -38.253906 37.984375 -38.046875 37.734375 -37.921875 L 33.21875 -35.25 C 32.707031 -35.039062 32.285156 -35.125 31.953125 -35.5 C 31.234375 -36.351562 30.46875 -37.03125 29.65625 -37.53125 C 28.8125 -38.039062 27.988281 -38.445312 27.1875 -38.75 C 26.382812 -39 25.617188 -39.164062 24.890625 -39.25 C 24.128906 -39.332031 23.472656 -39.375 22.921875 -39.375 C 21.953125 -39.375 20.769531 -39.226562 19.375 -38.9375 C 17.9375 -38.59375 16.5625 -37.875 15.25 -36.78125 C 13.894531 -35.675781 12.75 -34.066406 11.8125 -31.953125 C 10.84375 -29.785156 10.359375 -26.882812 10.359375 -23.25 C 10.359375 -19.601562 10.84375 -16.722656 11.8125 -14.609375 C 12.75 -12.492188 13.894531 -10.882812 15.25 -9.78125 C 16.5625 -8.675781 17.9375 -7.976562 19.375 -7.6875 C 20.769531 -7.34375 21.953125 -7.171875 22.921875 -7.171875 C 23.472656 -7.171875 24.128906 -7.210938 24.890625 -7.296875 C 25.617188 -7.390625 26.382812 -7.582031 27.1875 -7.875 C 27.988281 -8.125 28.8125 -8.503906 29.65625 -9.015625 C 30.46875 -9.523438 31.234375 -10.203125 31.953125 -11.046875 C 32.285156 -11.472656 32.707031 -11.539062 33.21875 -11.25 Z M 37.734375 -8.640625 "/></g></g><g style="fill:#ffffff;fill-opacity:1;"><g transform="translate(341.485389, 77.011759)"><path style="stroke:none" d="M 22.546875 -7.171875 C 23.054688 -7.171875 23.5 -7.003906 23.875 -6.671875 C 24.21875 -6.285156 24.390625 -5.835938 24.390625 -5.328125 L 24.390625 -1.84375 C 24.390625 -1.332031 24.21875 -0.910156 23.875 -0.578125 C 23.5 -0.191406 23.054688 0 22.546875 0 L 5.015625 0 C 4.503906 0 4.082031 -0.191406 3.75 -0.578125 C 3.363281 -0.910156 3.171875 -1.332031 3.171875 -1.84375 L 3.171875 -44.71875 C 3.171875 -45.226562 3.363281 -45.671875 3.75 -46.046875 C 4.082031 -46.390625 4.503906 -46.5625 5.015625 -46.5625 L 8.515625 -46.5625 C 9.015625 -46.5625 9.457031 -46.390625 9.84375 -46.046875 C 10.1875 -45.671875 10.359375 -45.226562 10.359375 -44.71875 L 10.359375 -9.015625 C 10.359375 -8.503906 10.546875 -8.082031 10.921875 -7.75 C 11.265625 -7.363281 11.6875 -7.171875 12.1875 -7.171875 Z M 22.546875 -7.171875 "/></g></g><g style="fill:#ffffff;fill-opacity:1;"><g transform="translate(369.053177, 77.011759)"><path style="stroke:none" d="M 29.03125 0 C 28.132812 0 27.539062 -0.460938 27.25 -1.390625 C 27.125 -1.859375 26.953125 -2.539062 26.734375 -3.4375 C 26.484375 -4.28125 26.164062 -5.441406 25.78125 -6.921875 C 25.488281 -7.859375 24.878906 -8.328125 23.953125 -8.328125 L 13.78125 -8.328125 C 12.851562 -8.328125 12.238281 -7.859375 11.9375 -6.921875 C 11.644531 -5.773438 11.390625 -4.738281 11.171875 -3.8125 C 10.921875 -2.875 10.691406 -2.066406 10.484375 -1.390625 C 10.179688 -0.460938 9.585938 0 8.703125 0 L 5.078125 0 C 4.484375 0 4 -0.253906 3.625 -0.765625 C 3.238281 -1.222656 3.128906 -1.75 3.296875 -2.34375 C 3.722656 -3.914062 4.253906 -5.910156 4.890625 -8.328125 C 5.523438 -10.691406 6.222656 -13.269531 6.984375 -16.0625 C 7.742188 -18.820312 8.53125 -21.679688 9.34375 -24.640625 C 10.101562 -27.566406 10.84375 -30.363281 11.5625 -33.03125 C 12.238281 -35.65625 12.875 -38.046875 13.46875 -40.203125 C 14.019531 -42.316406 14.460938 -43.96875 14.796875 -45.15625 C 14.878906 -45.582031 15.09375 -45.921875 15.4375 -46.171875 C 15.769531 -46.429688 16.148438 -46.5625 16.578125 -46.5625 L 21.15625 -46.5625 C 21.570312 -46.5625 21.953125 -46.429688 22.296875 -46.171875 C 22.628906 -45.921875 22.835938 -45.582031 22.921875 -45.15625 C 24.410156 -39.570312 25.703125 -34.789062 26.796875 -30.8125 C 27.859375 -26.820312 28.75 -23.472656 29.46875 -20.765625 C 30.1875 -18.054688 30.78125 -15.878906 31.25 -14.234375 C 31.675781 -12.578125 32.035156 -11.265625 32.328125 -10.296875 C 32.578125 -9.273438 32.789062 -8.507812 32.96875 -8 C 33.09375 -7.445312 33.21875 -6.941406 33.34375 -6.484375 C 33.46875 -6.015625 33.617188 -5.484375 33.796875 -4.890625 C 33.921875 -4.296875 34.128906 -3.445312 34.421875 -2.34375 C 34.585938 -1.75 34.484375 -1.222656 34.109375 -0.765625 C 33.722656 -0.253906 33.234375 0 32.640625 0 Z M 14.859375 -17.84375 C 14.691406 -17.25 14.800781 -16.722656 15.1875 -16.265625 C 15.5625 -15.753906 16.046875 -15.5 16.640625 -15.5 L 21.09375 -15.5 C 21.675781 -15.5 22.160156 -15.753906 22.546875 -16.265625 C 22.929688 -16.722656 23.035156 -17.25 22.859375 -17.84375 C 22.523438 -19.03125 22.1875 -20.300781 21.84375 -21.65625 C 21.46875 -23.007812 21.066406 -24.453125 20.640625 -25.984375 C 20.515625 -26.441406 20.28125 -26.800781 19.9375 -27.0625 C 19.601562 -27.269531 19.242188 -27.375 18.859375 -27.375 C 18.484375 -27.375 18.125 -27.269531 17.78125 -27.0625 C 17.445312 -26.800781 17.210938 -26.441406 17.078125 -25.984375 C 16.703125 -24.628906 16.34375 -23.269531 16 -21.90625 C 15.625 -20.550781 15.242188 -19.195312 14.859375 -17.84375 Z M 14.859375 -17.84375 "/></g></g><g style="fill:#ffffff;fill-opacity:1;"><g transform="translate(406.784153, 77.011759)"><path style="stroke:none" d="M 15.5 -46.5625 C 17.875 -46.5625 19.925781 -46.03125 21.65625 -44.96875 C 23.394531 -43.863281 24.816406 -42.445312 25.921875 -40.71875 C 27.015625 -38.976562 27.796875 -37.03125 28.265625 -34.875 C 28.734375 -32.707031 28.878906 -30.523438 28.703125 -28.328125 C 28.492188 -26.128906 27.988281 -24.035156 27.1875 -22.046875 C 26.34375 -20.054688 25.195312 -18.378906 23.75 -17.015625 C 23.113281 -16.472656 22.945312 -15.816406 23.25 -15.046875 L 27.8125 -2.484375 C 28.03125 -1.890625 27.96875 -1.335938 27.625 -0.828125 C 27.25 -0.273438 26.722656 0 26.046875 0 L 22.421875 0 C 21.535156 0 20.941406 -0.398438 20.640625 -1.203125 L 16.515625 -12.640625 C 16.210938 -13.441406 15.617188 -13.84375 14.734375 -13.84375 L 12.1875 -13.84375 C 11.6875 -13.84375 11.265625 -13.675781 10.921875 -13.34375 C 10.546875 -12.957031 10.359375 -12.507812 10.359375 -12 L 10.359375 -1.84375 C 10.359375 -1.332031 10.1875 -0.910156 9.84375 -0.578125 C 9.457031 -0.191406 9.015625 0 8.515625 0 L 5.015625 0 C 4.503906 0 4.082031 -0.191406 3.75 -0.578125 C 3.363281 -0.910156 3.171875 -1.332031 3.171875 -1.84375 L 3.171875 -44.71875 C 3.171875 -45.226562 3.363281 -45.671875 3.75 -46.046875 C 4.082031 -46.390625 4.503906 -46.5625 5.015625 -46.5625 Z M 10.359375 -22.859375 C 10.359375 -22.359375 10.546875 -21.9375 10.921875 -21.59375 C 11.265625 -21.21875 11.6875 -21.03125 12.1875 -21.03125 L 15.625 -21.03125 C 16.9375 -21.03125 18.035156 -21.492188 18.921875 -22.421875 C 19.816406 -23.304688 20.492188 -24.425781 20.953125 -25.78125 C 21.421875 -27.132812 21.65625 -28.617188 21.65625 -30.234375 C 21.65625 -31.796875 21.445312 -33.253906 21.03125 -34.609375 C 20.5625 -35.972656 19.878906 -37.117188 18.984375 -38.046875 C 18.097656 -38.929688 16.976562 -39.375 15.625 -39.375 L 12.1875 -39.375 C 11.6875 -39.375 11.265625 -39.207031 10.921875 -38.875 C 10.546875 -38.488281 10.359375 -38.039062 10.359375 -37.53125 Z M 10.359375 -22.859375 "/></g></g><g style="fill:#ffffff;fill-opacity:1;"><g transform="translate(438.734829, 77.011759)"><path style="stroke:none" d="M 8.515625 -46.5625 C 9.015625 -46.5625 9.457031 -46.390625 9.84375 -46.046875 C 10.1875 -45.671875 10.359375 -45.226562 10.359375 -44.71875 L 10.359375 -1.84375 C 10.359375 -1.332031 10.1875 -0.910156 9.84375 -0.578125 C 9.457031 -0.191406 9.015625 0 8.515625 0 L 5.015625 0 C 4.503906 0 4.082031 -0.191406 3.75 -0.578125 C 3.363281 -0.910156 3.171875 -1.332031 3.171875 -1.84375 L 3.171875 -44.71875 C 3.171875 -45.226562 3.363281 -45.671875 3.75 -46.046875 C 4.082031 -46.390625 4.503906 -46.5625 5.015625 -46.5625 Z M 8.515625 -46.5625 "/></g></g><g style="fill:#ffffff;fill-opacity:1;"><g transform="translate(452.264648, 77.011759)"><path style="stroke:none" d="M 26.046875 -41.21875 C 26.046875 -40.707031 25.875 -40.285156 25.53125 -39.953125 C 25.15625 -39.566406 24.710938 -39.375 24.203125 -39.375 L 12.1875 -39.375 C 11.6875 -39.375 11.265625 -39.207031 10.921875 -38.875 C 10.546875 -38.488281 10.359375 -38.039062 10.359375 -37.53125 L 10.359375 -33.734375 C 10.359375 -33.222656 10.546875 -32.796875 10.921875 -32.453125 C 11.265625 -32.078125 11.6875 -31.890625 12.1875 -31.890625 L 20.140625 -31.890625 C 20.679688 -31.890625 21.144531 -31.71875 21.53125 -31.375 C 21.875 -31 22.046875 -30.554688 22.046875 -30.046875 L 22.046875 -26.609375 C 22.046875 -26.097656 21.875 -25.65625 21.53125 -25.28125 C 21.144531 -24.894531 20.679688 -24.703125 20.140625 -24.703125 L 12.1875 -24.703125 C 11.6875 -24.703125 11.265625 -24.535156 10.921875 -24.203125 C 10.546875 -23.816406 10.359375 -23.367188 10.359375 -22.859375 L 10.359375 -1.84375 C 10.359375 -1.332031 10.1875 -0.910156 9.84375 -0.578125 C 9.457031 -0.191406 9.015625 0 8.515625 0 L 5.015625 0 C 4.503906 0 4.082031 -0.191406 3.75 -0.578125 C 3.363281 -0.910156 3.171875 -1.332031 3.171875 -1.84375 L 3.171875 -44.71875 C 3.171875 -45.226562 3.363281 -45.671875 3.75 -46.046875 C 4.082031 -46.390625 4.503906 -46.5625 5.015625 -46.5625 L 24.203125 -46.5625 C 24.710938 -46.5625 25.15625 -46.390625 25.53125 -46.046875 C 25.875 -45.671875 26.046875 -45.226562 26.046875 -44.71875 Z M 26.046875 -41.21875 "/></g></g><g style="fill:#ffffff;fill-opacity:1;"><g transform="translate(481.483925, 77.011759)"><path style="stroke:none" d="M 14.09375 -14.421875 L 3.359375 -44.078125 C 3.234375 -44.378906 3.191406 -44.675781 3.234375 -44.96875 C 3.273438 -45.257812 3.382812 -45.515625 3.5625 -45.734375 C 3.976562 -46.285156 4.484375 -46.5625 5.078125 -46.5625 L 8.765625 -46.5625 C 9.609375 -46.5625 10.179688 -46.15625 10.484375 -45.34375 L 17.21875 -26.9375 C 17.300781 -26.71875 17.46875 -26.609375 17.71875 -26.609375 C 17.976562 -26.609375 18.148438 -26.71875 18.234375 -26.9375 L 24.890625 -45.34375 C 25.191406 -46.15625 25.785156 -46.5625 26.671875 -46.5625 L 30.296875 -46.5625 C 30.972656 -46.5625 31.484375 -46.285156 31.828125 -45.734375 C 32.203125 -45.265625 32.285156 -44.710938 32.078125 -44.078125 L 21.28125 -14.421875 L 21.28125 -1.84375 C 21.28125 -1.332031 21.109375 -0.910156 20.765625 -0.578125 C 20.390625 -0.191406 19.945312 0 19.4375 0 L 16 0 C 15.5 0 15.054688 -0.191406 14.671875 -0.578125 C 14.285156 -0.910156 14.09375 -1.332031 14.09375 -1.84375 Z M 14.09375 -14.421875 "/></g></g><g style="fill:#ffffff;fill-opacity:1;"><g transform="translate(516.864706, 77.011759)"><path style="stroke:none" d=""/></g></g><g style="fill:#ffffff;fill-opacity:1;"><g transform="translate(535.92075, 77.011759)"><path style="stroke:none" d="M 22.171875 -20.265625 C 22.171875 -20.554688 22.273438 -20.785156 22.484375 -20.953125 C 22.648438 -21.128906 22.863281 -21.21875 23.125 -21.21875 L 30.8125 -21.21875 C 31.445312 -21.21875 31.765625 -20.898438 31.765625 -20.265625 L 31.765625 -14.03125 C 31.765625 -12.800781 31.613281 -11.660156 31.3125 -10.609375 C 30.675781 -8.234375 29.507812 -6.15625 27.8125 -4.375 C 26.125 -2.601562 24.09375 -1.359375 21.71875 -0.640625 C 21.300781 -0.503906 21.09375 -0.207031 21.09375 0.25 L 21.09375 3.234375 C 21.09375 3.492188 21.003906 3.707031 20.828125 3.875 C 20.617188 4.082031 20.390625 4.1875 20.140625 4.1875 L 14.859375 4.1875 C 14.566406 4.1875 14.332031 4.082031 14.15625 3.875 C 13.988281 3.707031 13.90625 3.492188 13.90625 3.234375 L 13.90625 0.25 C 13.90625 -0.164062 13.675781 -0.460938 13.21875 -0.640625 C 11.726562 -1.097656 10.367188 -1.773438 9.140625 -2.671875 C 7.910156 -3.515625 6.851562 -4.550781 5.96875 -5.78125 C 5.082031 -6.96875 4.40625 -8.28125 3.9375 -9.71875 C 3.425781 -11.15625 3.171875 -12.679688 3.171875 -14.296875 C 3.171875 -16.328125 3.570312 -18.226562 4.375 -20 C 5.1875 -21.78125 6.289062 -23.328125 7.6875 -24.640625 C 8.0625 -25.109375 8.082031 -25.554688 7.75 -25.984375 C 6.863281 -27.078125 6.164062 -28.300781 5.65625 -29.65625 C 5.144531 -31.007812 4.890625 -32.453125 4.890625 -33.984375 C 4.890625 -36.734375 5.671875 -39.1875 7.234375 -41.34375 C 8.804688 -43.46875 10.820312 -44.972656 13.28125 -45.859375 C 13.695312 -45.984375 13.90625 -46.28125 13.90625 -46.75 L 13.90625 -49.796875 C 13.90625 -50.046875 13.988281 -50.28125 14.15625 -50.5 C 14.332031 -50.664062 14.566406 -50.75 14.859375 -50.75 L 20.140625 -50.75 C 20.390625 -50.75 20.617188 -50.664062 20.828125 -50.5 C 21.003906 -50.28125 21.09375 -50.046875 21.09375 -49.796875 L 21.09375 -46.75 C 21.09375 -46.28125 21.300781 -45.984375 21.71875 -45.859375 C 23.882812 -45.097656 25.726562 -43.828125 27.25 -42.046875 C 28.726562 -40.222656 29.640625 -38.128906 29.984375 -35.765625 C 30.066406 -35.210938 29.851562 -34.875 29.34375 -34.75 L 24.203125 -33.03125 C 23.859375 -32.945312 23.5625 -33.007812 23.3125 -33.21875 C 23.050781 -33.382812 22.921875 -33.640625 22.921875 -33.984375 C 22.921875 -34.742188 22.796875 -35.460938 22.546875 -36.140625 C 22.253906 -36.773438 21.875 -37.347656 21.40625 -37.859375 C 20.894531 -38.316406 20.320312 -38.695312 19.6875 -39 C 19.007812 -39.289062 18.289062 -39.4375 17.53125 -39.4375 C 16.769531 -39.4375 16.070312 -39.289062 15.4375 -39 C 14.757812 -38.695312 14.164062 -38.316406 13.65625 -37.859375 C 13.144531 -37.347656 12.765625 -36.773438 12.515625 -36.140625 C 12.210938 -35.460938 12.0625 -34.742188 12.0625 -33.984375 C 12.0625 -32.585938 12.570312 -31.335938 13.59375 -30.234375 C 14.5625 -29.128906 15.851562 -28.578125 17.46875 -28.578125 L 17.65625 -28.578125 C 17.90625 -28.578125 18.140625 -28.492188 18.359375 -28.328125 C 18.523438 -28.117188 18.609375 -27.882812 18.609375 -27.625 L 18.609375 -22.296875 C 18.609375 -22.035156 18.523438 -21.820312 18.359375 -21.65625 C 18.140625 -21.445312 17.90625 -21.34375 17.65625 -21.34375 L 17.46875 -21.34375 C 16.40625 -21.34375 15.453125 -21.148438 14.609375 -20.765625 C 13.722656 -20.390625 12.960938 -19.882812 12.328125 -19.25 C 11.691406 -18.570312 11.203125 -17.804688 10.859375 -16.953125 C 10.523438 -16.109375 10.359375 -15.222656 10.359375 -14.296875 C 10.359375 -13.316406 10.546875 -12.40625 10.921875 -11.5625 C 11.304688 -10.664062 11.816406 -9.898438 12.453125 -9.265625 C 13.085938 -8.640625 13.847656 -8.132812 14.734375 -7.75 C 15.578125 -7.363281 16.488281 -7.171875 17.46875 -7.171875 C 19.25 -7.171875 20.773438 -7.742188 22.046875 -8.890625 C 23.316406 -9.992188 24.117188 -11.347656 24.453125 -12.953125 C 24.535156 -13.253906 24.492188 -13.507812 24.328125 -13.71875 C 24.117188 -13.925781 23.84375 -14.03125 23.5 -14.03125 L 23.125 -14.03125 C 22.863281 -14.03125 22.648438 -14.140625 22.484375 -14.359375 C 22.273438 -14.523438 22.171875 -14.753906 22.171875 -15.046875 Z M 22.171875 -20.265625 "/></g></g><g style="fill:#ffffff;fill-opacity:1;"><g transform="translate(570.856854, 77.011759)"><path style="stroke:none" d=""/></g></g><g style="fill:#ffffff;fill-opacity:1;"><g transform="translate(589.912944, 77.011759)"><path style="stroke:none" d="M 29.03125 0 C 28.132812 0 27.539062 -0.460938 27.25 -1.390625 C 27.125 -1.859375 26.953125 -2.539062 26.734375 -3.4375 C 26.484375 -4.28125 26.164062 -5.441406 25.78125 -6.921875 C 25.488281 -7.859375 24.878906 -8.328125 23.953125 -8.328125 L 13.78125 -8.328125 C 12.851562 -8.328125 12.238281 -7.859375 11.9375 -6.921875 C 11.644531 -5.773438 11.390625 -4.738281 11.171875 -3.8125 C 10.921875 -2.875 10.691406 -2.066406 10.484375 -1.390625 C 10.179688 -0.460938 9.585938 0 8.703125 0 L 5.078125 0 C 4.484375 0 4 -0.253906 3.625 -0.765625 C 3.238281 -1.222656 3.128906 -1.75 3.296875 -2.34375 C 3.722656 -3.914062 4.253906 -5.910156 4.890625 -8.328125 C 5.523438 -10.691406 6.222656 -13.269531 6.984375 -16.0625 C 7.742188 -18.820312 8.53125 -21.679688 9.34375 -24.640625 C 10.101562 -27.566406 10.84375 -30.363281 11.5625 -33.03125 C 12.238281 -35.65625 12.875 -38.046875 13.46875 -40.203125 C 14.019531 -42.316406 14.460938 -43.96875 14.796875 -45.15625 C 14.878906 -45.582031 15.09375 -45.921875 15.4375 -46.171875 C 15.769531 -46.429688 16.148438 -46.5625 16.578125 -46.5625 L 21.15625 -46.5625 C 21.570312 -46.5625 21.953125 -46.429688 22.296875 -46.171875 C 22.628906 -45.921875 22.835938 -45.582031 22.921875 -45.15625 C 24.410156 -39.570312 25.703125 -34.789062 26.796875 -30.8125 C 27.859375 -26.820312 28.75 -23.472656 29.46875 -20.765625 C 30.1875 -18.054688 30.78125 -15.878906 31.25 -14.234375 C 31.675781 -12.578125 32.035156 -11.265625 32.328125 -10.296875 C 32.578125 -9.273438 32.789062 -8.507812 32.96875 -8 C 33.09375 -7.445312 33.21875 -6.941406 33.34375 -6.484375 C 33.46875 -6.015625 33.617188 -5.484375 33.796875 -4.890625 C 33.921875 -4.296875 34.128906 -3.445312 34.421875 -2.34375 C 34.585938 -1.75 34.484375 -1.222656 34.109375 -0.765625 C 33.722656 -0.253906 33.234375 0 32.640625 0 Z M 14.859375 -17.84375 C 14.691406 -17.25 14.800781 -16.722656 15.1875 -16.265625 C 15.5625 -15.753906 16.046875 -15.5 16.640625 -15.5 L 21.09375 -15.5 C 21.675781 -15.5 22.160156 -15.753906 22.546875 -16.265625 C 22.929688 -16.722656 23.035156 -17.25 22.859375 -17.84375 C 22.523438 -19.03125 22.1875 -20.300781 21.84375 -21.65625 C 21.46875 -23.007812 21.066406 -24.453125 20.640625 -25.984375 C 20.515625 -26.441406 20.28125 -26.800781 19.9375 -27.0625 C 19.601562 -27.269531 19.242188 -27.375 18.859375 -27.375 C 18.484375 -27.375 18.125 -27.269531 17.78125 -27.0625 C 17.445312 -26.800781 17.210938 -26.441406 17.078125 -25.984375 C 16.703125 -24.628906 16.34375 -23.269531 16 -21.90625 C 15.625 -20.550781 15.242188 -19.195312 14.859375 -17.84375 Z M 14.859375 -17.84375 "/></g></g><g style="fill:#ffffff;fill-opacity:1;"><g transform="translate(627.64392, 77.011759)"><path style="stroke:none" d="M 30.9375 -46.5625 C 31.4375 -46.5625 31.878906 -46.390625 32.265625 -46.046875 C 32.609375 -45.671875 32.78125 -45.226562 32.78125 -44.71875 L 32.78125 -1.84375 C 32.78125 -1.332031 32.609375 -0.910156 32.265625 -0.578125 C 31.878906 -0.191406 31.4375 0 30.9375 0 L 26.046875 0 C 25.273438 0 24.722656 -0.359375 24.390625 -1.078125 L 11.6875 -28.265625 C 11.5625 -28.597656 11.304688 -28.722656 10.921875 -28.640625 C 10.546875 -28.554688 10.359375 -28.328125 10.359375 -27.953125 L 10.359375 -1.84375 C 10.359375 -1.332031 10.1875 -0.910156 9.84375 -0.578125 C 9.457031 -0.191406 8.992188 0 8.453125 0 L 5.015625 0 C 4.503906 0 4.082031 -0.191406 3.75 -0.578125 C 3.363281 -0.910156 3.171875 -1.332031 3.171875 -1.84375 L 3.171875 -44.71875 C 3.171875 -45.226562 3.363281 -45.671875 3.75 -46.046875 C 4.082031 -46.390625 4.503906 -46.5625 5.015625 -46.5625 L 9.90625 -46.5625 C 10.707031 -46.5625 11.257812 -46.203125 11.5625 -45.484375 L 24.265625 -18.296875 C 24.390625 -17.953125 24.664062 -17.820312 25.09375 -17.90625 C 25.425781 -17.988281 25.59375 -18.222656 25.59375 -18.609375 L 25.59375 -44.71875 C 25.59375 -45.226562 25.785156 -45.671875 26.171875 -46.046875 C 26.546875 -46.390625 26.988281 -46.5625 27.5 -46.5625 Z M 30.9375 -46.5625 "/></g></g><g style="fill:#ffffff;fill-opacity:1;"><g transform="translate(663.59637, 77.011759)"><path style="stroke:none" d="M 29.03125 0 C 28.132812 0 27.539062 -0.460938 27.25 -1.390625 C 27.125 -1.859375 26.953125 -2.539062 26.734375 -3.4375 C 26.484375 -4.28125 26.164062 -5.441406 25.78125 -6.921875 C 25.488281 -7.859375 24.878906 -8.328125 23.953125 -8.328125 L 13.78125 -8.328125 C 12.851562 -8.328125 12.238281 -7.859375 11.9375 -6.921875 C 11.644531 -5.773438 11.390625 -4.738281 11.171875 -3.8125 C 10.921875 -2.875 10.691406 -2.066406 10.484375 -1.390625 C 10.179688 -0.460938 9.585938 0 8.703125 0 L 5.078125 0 C 4.484375 0 4 -0.253906 3.625 -0.765625 C 3.238281 -1.222656 3.128906 -1.75 3.296875 -2.34375 C 3.722656 -3.914062 4.253906 -5.910156 4.890625 -8.328125 C 5.523438 -10.691406 6.222656 -13.269531 6.984375 -16.0625 C 7.742188 -18.820312 8.53125 -21.679688 9.34375 -24.640625 C 10.101562 -27.566406 10.84375 -30.363281 11.5625 -33.03125 C 12.238281 -35.65625 12.875 -38.046875 13.46875 -40.203125 C 14.019531 -42.316406 14.460938 -43.96875 14.796875 -45.15625 C 14.878906 -45.582031 15.09375 -45.921875 15.4375 -46.171875 C 15.769531 -46.429688 16.148438 -46.5625 16.578125 -46.5625 L 21.15625 -46.5625 C 21.570312 -46.5625 21.953125 -46.429688 22.296875 -46.171875 C 22.628906 -45.921875 22.835938 -45.582031 22.921875 -45.15625 C 24.410156 -39.570312 25.703125 -34.789062 26.796875 -30.8125 C 27.859375 -26.820312 28.75 -23.472656 29.46875 -20.765625 C 30.1875 -18.054688 30.78125 -15.878906 31.25 -14.234375 C 31.675781 -12.578125 32.035156 -11.265625 32.328125 -10.296875 C 32.578125 -9.273438 32.789062 -8.507812 32.96875 -8 C 33.09375 -7.445312 33.21875 -6.941406 33.34375 -6.484375 C 33.46875 -6.015625 33.617188 -5.484375 33.796875 -4.890625 C 33.921875 -4.296875 34.128906 -3.445312 34.421875 -2.34375 C 34.585938 -1.75 34.484375 -1.222656 34.109375 -0.765625 C 33.722656 -0.253906 33.234375 0 32.640625 0 Z M 14.859375 -17.84375 C 14.691406 -17.25 14.800781 -16.722656 15.1875 -16.265625 C 15.5625 -15.753906 16.046875 -15.5 16.640625 -15.5 L 21.09375 -15.5 C 21.675781 -15.5 22.160156 -15.753906 22.546875 -16.265625 C 22.929688 -16.722656 23.035156 -17.25 22.859375 -17.84375 C 22.523438 -19.03125 22.1875 -20.300781 21.84375 -21.65625 C 21.46875 -23.007812 21.066406 -24.453125 20.640625 -25.984375 C 20.515625 -26.441406 20.28125 -26.800781 19.9375 -27.0625 C 19.601562 -27.269531 19.242188 -27.375 18.859375 -27.375 C 18.484375 -27.375 18.125 -27.269531 17.78125 -27.0625 C 17.445312 -26.800781 17.210938 -26.441406 17.078125 -25.984375 C 16.703125 -24.628906 16.34375 -23.269531 16 -21.90625 C 15.625 -20.550781 15.242188 -19.195312 14.859375 -17.84375 Z M 14.859375 -17.84375 "/></g></g><g style="fill:#ffffff;fill-opacity:1;"><g transform="translate(701.327392, 77.011759)"><path style="stroke:none" d="M 22.546875 -7.171875 C 23.054688 -7.171875 23.5 -7.003906 23.875 -6.671875 C 24.21875 -6.285156 24.390625 -5.835938 24.390625 -5.328125 L 24.390625 -1.84375 C 24.390625 -1.332031 24.21875 -0.910156 23.875 -0.578125 C 23.5 -0.191406 23.054688 0 22.546875 0 L 5.015625 0 C 4.503906 0 4.082031 -0.191406 3.75 -0.578125 C 3.363281 -0.910156 3.171875 -1.332031 3.171875 -1.84375 L 3.171875 -44.71875 C 3.171875 -45.226562 3.363281 -45.671875 3.75 -46.046875 C 4.082031 -46.390625 4.503906 -46.5625 5.015625 -46.5625 L 8.515625 -46.5625 C 9.015625 -46.5625 9.457031 -46.390625 9.84375 -46.046875 C 10.1875 -45.671875 10.359375 -45.226562 10.359375 -44.71875 L 10.359375 -9.015625 C 10.359375 -8.503906 10.546875 -8.082031 10.921875 -7.75 C 11.265625 -7.363281 11.6875 -7.171875 12.1875 -7.171875 Z M 22.546875 -7.171875 "/></g></g><g style="fill:#ffffff;fill-opacity:1;"><g transform="translate(728.895134, 77.011759)"><path style="stroke:none" d="M 14.09375 -14.421875 L 3.359375 -44.078125 C 3.234375 -44.378906 3.191406 -44.675781 3.234375 -44.96875 C 3.273438 -45.257812 3.382812 -45.515625 3.5625 -45.734375 C 3.976562 -46.285156 4.484375 -46.5625 5.078125 -46.5625 L 8.765625 -46.5625 C 9.609375 -46.5625 10.179688 -46.15625 10.484375 -45.34375 L 17.21875 -26.9375 C 17.300781 -26.71875 17.46875 -26.609375 17.71875 -26.609375 C 17.976562 -26.609375 18.148438 -26.71875 18.234375 -26.9375 L 24.890625 -45.34375 C 25.191406 -46.15625 25.785156 -46.5625 26.671875 -46.5625 L 30.296875 -46.5625 C 30.972656 -46.5625 31.484375 -46.285156 31.828125 -45.734375 C 32.203125 -45.265625 32.285156 -44.710938 32.078125 -44.078125 L 21.28125 -14.421875 L 21.28125 -1.84375 C 21.28125 -1.332031 21.109375 -0.910156 20.765625 -0.578125 C 20.390625 -0.191406 19.945312 0 19.4375 0 L 16 0 C 15.5 0 15.054688 -0.191406 14.671875 -0.578125 C 14.285156 -0.910156 14.09375 -1.332031 14.09375 -1.84375 Z M 14.09375 -14.421875 "/></g></g><g style="fill:#ffffff;fill-opacity:1;"><g transform="translate(764.275915, 77.011759)"><path style="stroke:none" d="M 27.8125 -39.828125 C 27.8125 -39.523438 27.75 -39.25 27.625 -39 L 11.5 -7.9375 C 11.414062 -7.8125 11.414062 -7.644531 11.5 -7.4375 C 11.625 -7.257812 11.769531 -7.171875 11.9375 -7.171875 L 25.984375 -7.171875 C 26.484375 -7.171875 26.925781 -7.003906 27.3125 -6.671875 C 27.644531 -6.285156 27.8125 -5.816406 27.8125 -5.265625 L 27.8125 -1.84375 C 27.8125 -1.332031 27.644531 -0.910156 27.3125 -0.578125 C 26.925781 -0.191406 26.484375 0 25.984375 0 L 5.015625 0 C 4.503906 0 4.082031 -0.191406 3.75 -0.578125 C 3.363281 -0.910156 3.171875 -1.332031 3.171875 -1.84375 L 3.171875 -6.734375 C 3.171875 -7.023438 3.234375 -7.300781 3.359375 -7.5625 L 19.5 -38.625 C 19.625 -38.75 19.625 -38.914062 19.5 -39.125 C 19.457031 -39.289062 19.3125 -39.375 19.0625 -39.375 L 5.015625 -39.375 C 4.503906 -39.375 4.082031 -39.566406 3.75 -39.953125 C 3.363281 -40.285156 3.171875 -40.726562 3.171875 -41.28125 L 3.171875 -44.71875 C 3.171875 -45.226562 3.363281 -45.671875 3.75 -46.046875 C 4.082031 -46.390625 4.503906 -46.5625 5.015625 -46.5625 L 25.984375 -46.5625 C 26.484375 -46.5625 26.925781 -46.390625 27.3125 -46.046875 C 27.644531 -45.671875 27.8125 -45.226562 27.8125 -44.71875 Z M 27.8125 -39.828125 "/></g></g><g style="fill:#ffffff;fill-opacity:1;"><g transform="translate(795.273809, 77.011759)"><path style="stroke:none" d="M 26.046875 -41.21875 C 26.046875 -40.707031 25.875 -40.285156 25.53125 -39.953125 C 25.15625 -39.566406 24.710938 -39.375 24.203125 -39.375 L 12.1875 -39.375 C 11.6875 -39.375 11.265625 -39.207031 10.921875 -38.875 C 10.546875 -38.488281 10.359375 -38.039062 10.359375 -37.53125 L 10.359375 -33.734375 C 10.359375 -33.222656 10.546875 -32.796875 10.921875 -32.453125 C 11.265625 -32.078125 11.6875 -31.890625 12.1875 -31.890625 L 20.140625 -31.890625 C 20.679688 -31.890625 21.144531 -31.71875 21.53125 -31.375 C 21.875 -31 22.046875 -30.554688 22.046875 -30.046875 L 22.046875 -26.609375 C 22.046875 -26.097656 21.875 -25.65625 21.53125 -25.28125 C 21.144531 -24.894531 20.679688 -24.703125 20.140625 -24.703125 L 12.1875 -24.703125 C 11.6875 -24.703125 11.265625 -24.535156 10.921875 -24.203125 C 10.546875 -23.816406 10.359375 -23.367188 10.359375 -22.859375 L 10.359375 -9.015625 C 10.359375 -8.503906 10.546875 -8.082031 10.921875 -7.75 C 11.265625 -7.363281 11.6875 -7.171875 12.1875 -7.171875 L 24.203125 -7.171875 C 24.710938 -7.171875 25.15625 -7.003906 25.53125 -6.671875 C 25.875 -6.285156 26.046875 -5.835938 26.046875 -5.328125 L 26.046875 -1.84375 C 26.046875 -1.332031 25.875 -0.910156 25.53125 -0.578125 C 25.15625 -0.191406 24.710938 0 24.203125 0 L 5.015625 0 C 4.503906 0 4.082031 -0.191406 3.75 -0.578125 C 3.363281 -0.910156 3.171875 -1.332031 3.171875 -1.84375 L 3.171875 -44.71875 C 3.171875 -45.226562 3.363281 -45.671875 3.75 -46.046875 C 4.082031 -46.390625 4.503906 -46.5625 5.015625 -46.5625 L 24.203125 -46.5625 C 24.710938 -46.5625 25.15625 -46.390625 25.53125 -46.046875 C 25.875 -45.671875 26.046875 -45.226562 26.046875 -44.71875 Z M 26.046875 -41.21875 "/></g></g><g style="fill:#ffffff;fill-opacity:1;"><g transform="translate(412.799544, 61.668852)"><path style="stroke:none" d="M 4.421875 0.546875 C 3.640625 0.523438 3.03125 0.285156 2.59375 -0.171875 C 2.15625 -0.628906 1.9375 -1.179688 1.9375 -1.828125 C 1.9375 -2.492188 2.15625 -3.0625 2.59375 -3.53125 C 3.03125 -4.007812 3.640625 -4.25 4.421875 -4.25 C 5.222656 -4.25 5.84375 -4.007812 6.28125 -3.53125 C 6.71875 -3.0625 6.9375 -2.492188 6.9375 -1.828125 C 6.9375 -1.179688 6.71875 -0.625 6.28125 -0.15625 C 5.84375 0.3125 5.222656 0.546875 4.421875 0.546875 Z M 4.421875 0.546875 "/></g></g></g></svg>